<?xml version="1.0" standalone="no"?>
<!DOCTYPE svg PUBLIC "-//W3C//DTD SVG 1.1//EN" "http://www.w3.org/Graphics/SVG/1.1/DTD/svg11.dtd" >
<svg xmlns="http://www.w3.org/2000/svg" xmlns:xlink="http://www.w3.org/1999/xlink" version="1.1">
<metadata>
Created by FontForge 20170731 at Mon Sep  6 16:04:33 2021
 By Aleksey,,,
Copyright WELCOME SAVINGS BANK. All right reserved.
</metadata>
<defs>
<font id="TTWelcomeBold" horiz-adv-x="920" >
  <font-face 
    font-family="Welcome Bold"
    font-weight="400"
    font-stretch="normal"
    units-per-em="1000"
    panose-1="2 2 6 3 2 1 1 2 1 1"
    ascent="800"
    descent="-200"
    x-height="470"
    cap-height="677"
    bbox="-54 -306 978 800"
    underline-thickness="25"
    underline-position="-181"
    unicode-range="U+0020-FFE6"
  />
<missing-glyph horiz-adv-x="900" 
d="M50 -150v900h800v-900h-800zM115 -114h670l-335 385zM424 301l-334 384v-768zM783 714h-667l333 -384zM476 300l334 -384v770z" />
    <glyph glyph-name=".notdef" horiz-adv-x="900" 
d="M50 -150v900h800v-900h-800zM115 -114h670l-335 385zM424 301l-334 384v-768zM783 714h-667l333 -384zM476 300l334 -384v770z" />
    <glyph glyph-name="glyph1" horiz-adv-x="0" 
 />
    <glyph glyph-name="glyph2" horiz-adv-x="1024" 
 />
    <glyph glyph-name="space" unicode=" " horiz-adv-x="220" 
 />
    <glyph glyph-name="exclam" unicode="!" horiz-adv-x="341" 
d="M100 670h140l-11 -557h-118zM105 42h131v-125h-131v125z" />
    <glyph glyph-name="quotedbl" unicode="&#x22;" horiz-adv-x="426" 
d="M229 788h140l17 -263h-110zM218 525h-110l-66 263h140z" />
    <glyph glyph-name="numbersign" unicode="#" horiz-adv-x="760" 
d="M415 115h-144l-40 -198h-108l40 198h-121l15 97h125l35 170h-129l16 96h132l39 192h108l-39 -192h144l39 192h108l-39 -192h123l-17 -96h-125l-34 -170h129l-17 -97h-132l-39 -198h-109zM290 212h144l35 170h-144z" />
    <glyph glyph-name="dollar" unicode="$" horiz-adv-x="601" 
d="M260 -176v97q-53 6 -93 21.5t-67 32.5q-32 19 -55 42l70 94q26 -22 57 -39q26 -15 61.5 -27t76.5 -12q21 0 41 6t35.5 18t24.5 29.5t9 40.5q0 35 -26.5 57t-66.5 40.5t-87 36.5t-87 45t-66.5 66t-26.5 100q0 40 14.5 72.5t41 57t63 40.5t81.5 22v98h92v-96q46 -5 81 -17
t58 -25q27 -15 46 -33l-55 -101q-21 17 -48 31q-23 11 -55.5 21t-71.5 10q-49 0 -78.5 -19.5t-29.5 -54.5q0 -40 26.5 -64t66 -42.5t86 -36t86 -43t66 -64t26.5 -98.5q0 -39 -13.5 -74.5t-39.5 -63t-64 -46.5t-87 -25v-97h-92z" />
    <glyph glyph-name="percent" unicode="%" horiz-adv-x="862" 
d="M214 341q-36 0 -67 11.5t-54.5 33t-37 52t-13.5 68.5t13.5 68.5t37 52.5t54.5 33.5t67 11.5t67.5 -11.5t55.5 -33.5t37.5 -52.5t13.5 -68.5t-13.5 -68.5t-37.5 -52t-55.5 -33t-67.5 -11.5zM630 649h124l-525 -711h-125zM214 446q27 0 45.5 15.5t18.5 44.5q0 26 -18.5 44
t-45.5 18q-26 0 -44 -16.5t-18 -45.5t18 -44.5t44 -15.5zM647 -86q-36 0 -67 11.5t-54.5 33t-37 52t-13.5 68.5t13.5 68.5t37 52.5t54.5 33.5t67 11.5t67.5 -11.5t55.5 -33.5t37.5 -52.5t13.5 -68.5t-13.5 -68.5t-37.5 -52t-55.5 -33t-67.5 -11.5zM647 19q27 0 45.5 15.5
t18.5 44.5q0 26 -18.5 44t-45.5 18q-26 0 -44 -16.5t-18 -45.5t18 -44.5t44 -15.5z" />
    <glyph glyph-name="ampersand" unicode="&#x26;" horiz-adv-x="759" 
d="M719 286l-136 -187l165 -176h-161l-76 80q-27 -30 -53 -49t-53 -30.5t-55 -15.5t-59 -4q-49 0 -94 13.5t-79.5 40t-55 67t-20.5 94.5q0 63 40 115t119 97l-3 4q-18 19 -33 37t-26 37.5t-17 42t-6 49.5q0 45 16.5 79t45 56.5t65.5 34t79 11.5q43 0 82 -10.5t68.5 -31.5
t46.5 -54t17 -78q0 -61 -39.5 -106t-115.5 -89l123 -131l75 104h140zM295 17q32 0 65.5 15t70.5 55l-157 167q-47 -29 -71 -59.5t-24 -68.5q0 -26 9.5 -46t25.5 -34t37 -21.5t44 -7.5zM241 496q0 -29 19.5 -53.5t44.5 -47.5l6 -7q49 26 74.5 51.5t25.5 61.5q0 34 -24 51.5
t-57 17.5q-36 0 -62.5 -18t-26.5 -56z" />
    <glyph glyph-name="quotesingle" unicode="'" horiz-adv-x="260" 
d="M218 525h-110l-66 263h140z" />
    <glyph glyph-name="parenleft" unicode="(" horiz-adv-x="385" 
d="M231 -142q-60 97 -93.5 215t-33.5 249q0 115 33 220.5t94 202.5h113q-59 -99 -89 -205t-30 -219q0 -119 29.5 -236t89.5 -227h-113v0z" />
    <glyph glyph-name="parenright" unicode=")" horiz-adv-x="385" 
d="M42 -142q60 110 89.5 227t29.5 236q0 113 -30 219t-89 205h113q61 -97 94 -202.5t33 -220.5q0 -131 -33.5 -249t-93.5 -215h-113z" />
    <glyph glyph-name="asterisk" unicode="*" horiz-adv-x="520" 
d="M88 296l89 106v3l-133 32l35 115l129 -52l-10 139h122l-9 -139l128 52l38 -114l-136 -33v-3l90 -105l-97 -71l-73 117h-2l-74 -117z" />
    <glyph glyph-name="plus" unicode="+" horiz-adv-x="672" 
d="M52 345h229v230h109v-230h230v-105h-230v-230h-109v230h-229v105z" />
    <glyph glyph-name="comma" unicode="," horiz-adv-x="296" 
d="M100 54h152l-102 -248h-122z" />
    <glyph glyph-name="hyphen" unicode="-" horiz-adv-x="454" 
d="M402 240h-350v105h350v-105z" />
    <glyph glyph-name="period" unicode="." horiz-adv-x="290" 
d="M68 54h155v-135h-155v135z" />
    <glyph glyph-name="slash" unicode="/" horiz-adv-x="465" 
d="M300 698h135l-270 -816h-135z" />
    <glyph glyph-name="zero" unicode="0" horiz-adv-x="640" 
d="M43 293q0 88 14.5 151.5t38 106.5t53.5 69t61 39.5t59.5 18t50.5 4.5q21 0 50 -4.5t59.5 -18t60.5 -39.5t53.5 -69t38 -106.5t14.5 -151.5t-14.5 -151t-38 -106t-53.5 -69t-60.5 -40t-59.5 -18.5t-50 -4.5t-50 4.5t-60 18.5t-61 40t-53.5 69t-38 106t-14.5 151zM177 293
q0 -35 4.5 -81.5t19.5 -88t43.5 -70.5t75.5 -29t75 29t42.5 70.5t19 88t4.5 81.5q0 36 -4.5 82.5t-19 88t-42.5 70t-75 28.5t-75.5 -28.5t-43.5 -70t-19.5 -88t-4.5 -82.5z" />
    <glyph glyph-name="one" unicode="1" horiz-adv-x="640" 
d="M348 516l-131 -118l-73 88l220 184h119v-753h-135v599z" />
    <glyph glyph-name="two" unicode="2" horiz-adv-x="640" 
d="M61 28l292 301q13 13 27 28t26 31.5t19.5 34.5t7.5 38q0 53 -31 77t-79 24q-51 0 -84.5 -30.5t-39.5 -97.5l-137 11q5 61 27 105.5t56.5 73.5t80 43.5t97.5 14.5t97 -13t78 -39.5t52 -67.5t19 -97q0 -35 -9.5 -63.5t-25.5 -54t-37.5 -49.5t-45.5 -49l-214 -216h342v-116
h-518v111z" />
    <glyph glyph-name="three" unicode="3" horiz-adv-x="640" 
d="M255 360h33q28 0 54 4t45.5 15.5t31.5 32t12 53.5q0 42 -26.5 69.5t-76.5 27.5q-53 0 -84 -27t-42 -65l-126 38q23 87 90.5 130.5t165.5 43.5q49 0 92 -13t75 -38.5t50 -64t18 -89.5q0 -62 -34.5 -109t-95.5 -63v-2q36 -6 63.5 -22.5t46.5 -41.5t28.5 -56.5t9.5 -66.5
q0 -56 -21 -98.5t-57 -70.5t-83.5 -42t-99.5 -14q-48 0 -91.5 11.5t-78.5 35t-61 60t-38 86.5l134 38q13 -53 47 -82t88 -29t89.5 29t35.5 87q0 36 -14.5 58.5t-37.5 36t-52 18.5t-59 5h-31v115z" />
    <glyph glyph-name="four" unicode="4" horiz-adv-x="640" 
d="M374 62h-336v109l341 499h125v-491h112v-117h-112v-145h-130v145zM374 479l-204 -300h204v300z" />
    <glyph glyph-name="five" unicode="5" horiz-adv-x="640" 
d="M548 552h-313l-3 -149q18 5 40.5 7.5t46.5 2.5q59 0 107 -17t82 -49t52.5 -78.5t18.5 -105.5q0 -65 -21 -113.5t-58.5 -80.5t-89.5 -48.5t-113 -16.5q-91 0 -155.5 45t-90.5 133l136 37q13 -44 43.5 -68.5t80.5 -24.5q64 0 99 36.5t35 94.5q0 40 -14 67.5t-38.5 44
t-57.5 23t-70 5.5q-46 -2 -90.5 -9t-79.5 -19l7 401h446v-118z" />
    <glyph glyph-name="six" unicode="6" horiz-adv-x="640" 
d="M482 675l-183 -272q11 3 22 5t22 2q60 0 107 -19.5t79.5 -53t49 -78t16.5 -94.5q0 -60 -20 -108.5t-55.5 -82t-85 -52t-108.5 -18.5q-60 0 -111 18t-87.5 51.5t-57 82t-20.5 108.5t19 110t52 100l199 301h162zM189 166q0 -33 10.5 -59t29 -44t43.5 -28t54 -10q28 0 53 10
t43.5 29t29 44.5t10.5 57.5q0 33 -10.5 59t-29 44.5t-43.5 28.5t-53 10q-29 0 -54 -10t-43.5 -28t-29 -44.5t-10.5 -59.5z" />
    <glyph glyph-name="seven" unicode="7" horiz-adv-x="640" 
d="M75 670h520v-108l-303 -645h-153l307 635h-371v118z" />
    <glyph glyph-name="eight" unicode="8" horiz-adv-x="640" 
d="M324 682q53 0 99 -13t79.5 -38t53 -62t19.5 -85q0 -62 -29 -107t-87 -62v-2q27 -6 52.5 -22t44.5 -39.5t30.5 -54t11.5 -66.5q0 -57 -21.5 -99.5t-58.5 -71t-87 -42.5t-107 -14t-107 14t-87 42.5t-58.5 71t-21.5 99.5q0 36 11.5 66.5t31 54t44.5 39.5t52 22v2
q-57 17 -86 62t-29 107q0 48 19.5 85t53 62t79 38t98.5 13zM324 567q-57 0 -88 -26.5t-31 -69.5q0 -45 31.5 -74.5t87.5 -29.5q25 0 47 8t38.5 21.5t25.5 32.5t9 42q0 43 -33.5 69.5t-86.5 26.5zM324 263q-30 0 -56.5 -7.5t-45.5 -22t-30 -36t-11 -49.5q0 -59 39.5 -91.5
t103.5 -32.5q65 0 104.5 32.5t39.5 91.5q0 28 -11 49.5t-30.5 36t-46 22t-56.5 7.5z" />
    <glyph glyph-name="nine" unicode="9" horiz-adv-x="640" 
d="M168 -83l178 265q-21 -6 -44 -6q-60 0 -107 19.5t-79.5 53t-49 78t-16.5 94.5q0 60 20 108.5t55.5 82t85 52t108.5 18.5q60 0 111 -18t87.5 -51.5t57 -82t20.5 -108.5t-19 -110t-52 -100l-194 -295h-162zM456 420q0 33 -10.5 59t-29 44t-43.5 28t-54 10t-53.5 -10
t-43 -29t-29 -45t-10.5 -57q0 -33 10.5 -59t29 -44.5t43 -28.5t53.5 -10t54 10t43.5 28t29 44.5t10.5 59.5z" />
    <glyph glyph-name="colon" unicode=":" horiz-adv-x="290" 
d="M68 54h155v-135h-155v135zM68 458h155v-136h-155v136z" />
    <glyph glyph-name="semicolon" unicode=";" horiz-adv-x="322" 
d="M94 458h155v-136h-155v136zM97 54h152l-102 -248h-122z" />
    <glyph glyph-name="less" unicode="&#x3c;" horiz-adv-x="582" 
d="M62 262v83l458 308v-137l-312 -212l312 -212v-138z" />
    <glyph glyph-name="equal" unicode="=" horiz-adv-x="489" 
d="M52 443h385v-104h-385v104zM52 246h385v-104h-385v104z" />
    <glyph glyph-name="greater" unicode="&#x3e;" horiz-adv-x="582" 
d="M62 -46v138l312 212l-312 212v137l458 -308v-83z" />
    <glyph glyph-name="question" unicode="?" horiz-adv-x="510" 
d="M152 187q0 38 13 67.5t32.5 53t42 43t42 39.5t32.5 42.5t13 50.5q0 37 -28 59t-70 20q-32 -2 -62.5 -20t-50.5 -50l-93 72q42 65 97.5 91.5t120.5 28.5q48 1 89.5 -11t71.5 -36t47.5 -59.5t17.5 -81.5q0 -45 -13.5 -78t-34.5 -59t-44.5 -46.5t-44.5 -41t-34.5 -43
t-13.5 -50.5v-65h-130v74zM152 42h131v-125h-131v125z" />
    <glyph glyph-name="at" unicode="@" horiz-adv-x="853" 
d="M745 36q-56 -63 -133 -96.5t-165 -33.5q-89 0 -163 28.5t-127 80t-83 122.5t-30 155q0 83 29 154t81.5 123t125.5 81.5t161 29.5q76 0 144.5 -22.5t119.5 -66t79.5 -107.5t24.5 -146q-4 -86 -31 -138t-63 -79t-74 -33.5t-63 -1.5q-28 5 -46 21t-27 38q-19 -24 -54 -44
t-90 -17q-30 1 -56 14t-46 36t-31.5 54.5t-11.5 70.5q0 48 15 91t42 74.5t64.5 50t81.5 18.5q33 0 64 -12.5t50 -47.5l9 47h98l-39 -204q-2 -8 -5.5 -27t-3.5 -38.5t5.5 -35t22.5 -18.5t33 7t28.5 32t20 56.5t7.5 80.5q0 124 -71.5 189t-198.5 65q-66 0 -119.5 -22
t-91 -61.5t-58 -93.5t-20.5 -118q0 -68 22 -122.5t62 -92t96.5 -57.5t125.5 -20q59 0 108.5 16.5t87.5 46.5zM427 404q-48 0 -77.5 -36.5t-29.5 -93.5q0 -14 2.5 -31t11 -33t25 -26.5t45.5 -10.5q30 0 48.5 11.5t30 30.5t16 42.5t5.5 46.5q3 44 -17.5 72t-59.5 28z" />
    <glyph glyph-name="A" unicode="A" horiz-adv-x="700" 
d="M496 83h-293l-54 -166h-142l271 753h143l271 -753h-142zM240 196h219l-109 334z" />
    <glyph glyph-name="B" unicode="B" horiz-adv-x="660" 
d="M71 670h279q51 0 93.5 -13t73.5 -37.5t48 -61t17 -82.5q0 -53 -23.5 -96t-66.5 -66v-2q31 -9 54 -27t38 -41.5t22.5 -51.5t7.5 -57q0 -57 -21 -98t-57 -67.5t-83 -39.5t-99 -13h-283v753zM353 362q45 0 69 28t24 69t-24 67t-72 26h-144v-190h147zM368 34q53 0 81 31
t28 79q0 47 -28.5 77t-80.5 30h-162v-217h162z" />
    <glyph glyph-name="C" unicode="C" horiz-adv-x="750" 
d="M51 296q0 86 29 157t80.5 122t122.5 79t154 28q69 0 120.5 -16t86.5 -36q40 -23 70 -51l-61 -96q-27 22 -60 40q-29 15 -67 27.5t-83 12.5q-60 0 -106.5 -20t-79 -55.5t-49.5 -84t-17 -105.5t17.5 -107t50 -87t79.5 -58.5t106 -21.5q49 0 90 15t70 33q34 21 62 49l69 -95
q-32 -35 -76 -61q-38 -23 -93 -42t-127 -19q-86 0 -157.5 28.5t-122.5 80.5t-79.5 124t-28.5 159z" />
    <glyph glyph-name="D" unicode="D" horiz-adv-x="750" 
d="M71 670h251q87 0 158 -25.5t121 -73.5t77.5 -118t27.5 -159t-27.5 -159t-77.5 -118.5t-121 -74t-158 -25.5h-251v753zM319 34q57 0 103.5 17t79.5 50t50.5 81.5t17.5 111.5t-18 111t-51 81t-79 49.5t-103 16.5h-112v-518h112z" />
    <glyph glyph-name="E" unicode="E" horiz-adv-x="570" 
d="M71 670h460v-118h-324v-192h290v-118h-290v-208h342v-117h-478v753z" />
    <glyph glyph-name="F" unicode="F" horiz-adv-x="560" 
d="M71 -83v753h460v-118h-324v-192h290v-118h-290v-325h-136z" />
    <glyph glyph-name="G" unicode="G" horiz-adv-x="800" 
d="M652 504q-43 26 -94.5 42.5t-114.5 16.5q-60 0 -107 -20.5t-79.5 -56.5t-49 -84.5t-16.5 -103.5q0 -59 17.5 -109.5t50.5 -87t79 -57t103 -20.5q51 0 94.5 8.5t78.5 27.5v170h-172v118h303v-371q-137 -73 -305 -73q-85 0 -156.5 28t-123 79t-80.5 122t-29 157
q0 88 29 160.5t80.5 124t123 79.5t156.5 28q83 0 151 -20t123 -62z" />
    <glyph glyph-name="H" unicode="H" horiz-adv-x="760" 
d="M71 670h136v-316h345v316h136v-753h-136v319h-345v-319h-136v753z" />
    <glyph glyph-name="I" unicode="I" horiz-adv-x="310" 
d="M87 670h137v-753h-137v753z" />
    <glyph glyph-name="J" unicode="J" horiz-adv-x="520" 
d="M461 127q0 -44 -14 -84.5t-41.5 -71.5t-69.5 -49t-97 -18q-86 0 -142.5 42.5t-73.5 137.5l123 29q6 -45 29 -68t58 -23q28 0 45.5 10t27.5 28t14 44.5t4 59.5v506h137v-543z" />
    <glyph glyph-name="K" unicode="K" horiz-adv-x="720" 
d="M207 350l295 320h177l-344 -357l367 -396h-184l-311 353v-353h-136v753h136v-320z" />
    <glyph glyph-name="L" unicode="L" horiz-adv-x="570" 
d="M207 670v-636h332v-117h-468v753h136z" />
    <glyph glyph-name="M" unicode="M" horiz-adv-x="930" 
d="M71 670h189l206 -544l210 544h187v-753h-128v598l-222 -598h-92l-222 598v-598h-128v753z" />
    <glyph glyph-name="N" unicode="N" horiz-adv-x="760" 
d="M71 670h136l345 -546v546h133v-753h-135l-346 546v-546h-133v753z" />
    <glyph glyph-name="O" unicode="O" horiz-adv-x="880" 
d="M51 293q0 85 29 156t80.5 123t123 81t156.5 29t156.5 -29t123 -81t80.5 -123t29 -156q0 -84 -29 -155.5t-80.5 -123.5t-123 -81t-156.5 -29t-156.5 29t-123 81t-80.5 123.5t-29 155.5zM191 293q0 -63 19.5 -113t53.5 -84.5t79.5 -53t96.5 -18.5q52 0 97 18.5t78.5 53
t53 84.5t19.5 113q0 64 -19.5 114t-53 84.5t-78.5 53t-97 18.5q-51 0 -96.5 -18.5t-79.5 -53t-53.5 -84.5t-19.5 -114z" />
    <glyph glyph-name="P" unicode="P" horiz-adv-x="650" 
d="M71 670h300q53 0 97.5 -18t76.5 -50t49.5 -77t17.5 -100t-17.5 -100.5t-49.5 -78.5t-76.5 -51t-97.5 -18h-164v-260h-136v753zM346 294q60 0 93 35.5t33 95.5q0 58 -33 92.5t-91 34.5h-141v-258h139z" />
    <glyph glyph-name="Q" unicode="Q" horiz-adv-x="880" 
d="M51 293q0 85 29 156t80.5 123t123 81t156.5 29t156.5 -29t123 -81t80.5 -123t29 -156q0 -72 -20.5 -133t-58.5 -111l82 -77l-79 -86l-88 84q-47 -32 -103.5 -49t-121.5 -17q-85 0 -156.5 29t-123 81t-80.5 123.5t-29 155.5zM466 158l79 86l106 -101q17 30 27 67.5
t10 82.5q0 64 -19.5 114t-53 84.5t-78.5 53t-97 18.5q-51 0 -96.5 -18.5t-79.5 -53t-53.5 -84.5t-19.5 -114q0 -63 19.5 -113t53.5 -84.5t79.5 -53t96.5 -18.5q72 0 130 35z" />
    <glyph glyph-name="R" unicode="R" horiz-adv-x="660" 
d="M71 670h290q53 0 97 -17t76 -48t49.5 -75.5t17.5 -98.5q0 -81 -37 -139.5t-100 -84.5l178 -290h-153l-163 270h-119v-270h-136v753zM336 305q60 0 93 33t33 93q0 58 -33 89.5t-91 31.5h-131v-247h129z" />
    <glyph glyph-name="S" unicode="S" horiz-adv-x="580" 
d="M104 105q26 -23 57 -41q26 -15 61 -27.5t75 -12.5q22 0 42 6.5t35.5 18.5t24.5 30.5t9 42.5q0 36 -26.5 59t-66.5 42t-86.5 37.5t-86.5 46.5t-66.5 68.5t-26.5 103.5q0 47 19 84.5t52.5 64t80 40.5t100.5 14q56 0 97.5 -12.5t69.5 -27.5q33 -18 56 -40l-55 -104
q-21 18 -48 32q-23 12 -55.5 22.5t-71.5 10.5q-48 0 -77.5 -20.5t-29.5 -56.5q0 -41 26.5 -66.5t66 -45t86 -37.5t86 -44t66 -66t26.5 -102q0 -46 -17 -86t-49 -70t-78 -47.5t-105 -17.5q-63 0 -112 15.5t-82 35.5q-40 23 -68 52z" />
    <glyph glyph-name="T" unicode="T" horiz-adv-x="650" 
d="M259 552h-237v118h610v-118h-237v-635h-136v635z" />
    <glyph glyph-name="U" unicode="U" horiz-adv-x="750" 
d="M71 670h136v-487q0 -80 45 -119.5t121 -39.5t122 39.5t46 120.5v486h137v-493q0 -63 -22 -114t-62 -86t-96 -54t-124 -19t-124 19t-96 54t-61.5 86t-21.5 114v493z" />
    <glyph glyph-name="V" unicode="V" horiz-adv-x="700" 
d="M550 670h142l-271 -753h-143l-271 753h142l201 -613z" />
    <glyph glyph-name="W" unicode="W" horiz-adv-x="980" 
d="M546 670l147 -585l134 585h141l-189 -753h-158l-136 527l-136 -527h-158l-183 753h141l126 -585l152 585h119z" />
    <glyph glyph-name="X" unicode="X" horiz-adv-x="660" 
d="M250 301l-229 369h154l152 -257l153 257h154l-229 -369l240 -384h-155l-162 272l-163 -272h-155z" />
    <glyph glyph-name="Y" unicode="Y" horiz-adv-x="650" 
d="M257 222l-246 448h155l159 -324l159 324h155l-246 -448v-305h-136v305z" />
    <glyph glyph-name="Z" unicode="Z" horiz-adv-x="640" 
d="M42 5l373 547h-357v118h534v-87l-373 -549h377v-117h-554v88z" />
    <glyph glyph-name="bracketleft" unicode="[" horiz-adv-x="390" 
d="M104 745h239v-98h-114v-692h114v-97h-239v887z" />
    <glyph glyph-name="backslash" unicode="\" horiz-adv-x="1019" 
d="M42 317h105l-71 332h125l61 -332h106l83 332h113l80 -332h107l65 332h126l-75 -332h111v-86h-130l-65 -293h-145l-73 293h-119l-72 -293h-145l-63 293h-124v86zM467 317h77l-38 155zM307 70l40 161h-70zM703 74l31 157h-69z" />
    <glyph glyph-name="bracketright" unicode="]" horiz-adv-x="390" 
d="M291 -142h-239v97h114v692h-114v98h239v-887z" />
    <glyph glyph-name="asciicircum" unicode="^" horiz-adv-x="490" 
d="M320 457l-75 190l-76 -190h-111l144 331h85l144 -331h-111z" />
    <glyph glyph-name="underscore" unicode="_" horiz-adv-x="540" 
d="M538 -116v-104h-536v104h536z" />
    <glyph glyph-name="grave" unicode="`" horiz-adv-x="360" 
d="M59 788h139l102 -213h-110z" />
    <glyph glyph-name="a" unicode="a" horiz-adv-x="580" 
d="M386 -83v60q-16 -21 -36 -35t-40.5 -22.5t-41 -12t-38.5 -3.5q-36 0 -69.5 9.5t-58.5 29t-40 49t-15 70.5q0 46 17.5 79.5t46 56t63.5 36t70.5 21t68 9.5t54.5 2h10q-1 52 -24 72.5t-67 20.5q-29 0 -56 -6.5t-47 -14.5q-24 -10 -45 -21l-51 97q25 16 58 28
q28 11 66.5 19.5t86.5 8.5q108 0 166.5 -56t58.5 -159v-338h-137zM264 10q38 0 71 24t51 59v82h-24q-26 0 -57.5 -3.5t-58.5 -14t-45.5 -29.5t-18.5 -49q0 -29 20 -49t62 -20z" />
    <glyph glyph-name="b" unicode="b" horiz-adv-x="650" 
d="M206 391q29 38 71.5 58.5t95.5 20.5q55 0 98.5 -20.5t74 -58t46.5 -89.5t16 -115q0 -64 -17.5 -116.5t-50 -89.5t-77 -57t-98.5 -20q-47 0 -91 19t-75 60v-66h-128v753h135v-279zM202 184q0 -32 8.5 -62t25 -53.5t41.5 -37.5t59 -14q28 0 53 11t44 32.5t29.5 52.5
t10.5 72q0 78 -37.5 124.5t-98.5 46.5q-26 0 -50.5 -10t-43.5 -31t-30 -53.5t-11 -77.5z" />
    <glyph glyph-name="c" unicode="c" horiz-adv-x="590" 
d="M347 -96q-61 0 -114.5 19.5t-93.5 56t-63.5 89t-23.5 118.5t23 118.5t63.5 89t94 56t115.5 19.5q54 0 93 -12t65 -26q30 -17 50 -37l-59 -91q-18 15 -40 26q-19 10 -45.5 18t-59.5 8q-34 0 -64 -11t-52 -32.5t-35 -53t-13 -72.5q0 -42 13 -73.5t35 -52.5t52 -31.5
t65 -10.5t65.5 9.5t52.5 21.5q26 14 46 32l52 -96q-25 -23 -58 -41q-29 -16 -69.5 -28.5t-94.5 -12.5z" />
    <glyph glyph-name="d" unicode="d" horiz-adv-x="650" 
d="M452 670h136v-753h-128v67q-31 -41 -75 -60.5t-92 -19.5q-54 0 -98.5 20t-76.5 57t-50 89.5t-18 116.5q0 63 16 115t46.5 89.5t74 58t98.5 20.5q53 0 95 -20.5t72 -58.5v279zM457 184q0 45 -11.5 77.5t-30.5 53.5t-43.5 31t-50.5 10q-61 0 -98.5 -46.5t-37.5 -124.5
q0 -41 10.5 -72t29.5 -52.5t43.5 -32.5t53.5 -11q34 0 59 14t42 37.5t25.5 53.5t8.5 62z" />
    <glyph glyph-name="e" unicode="e" horiz-adv-x="620" 
d="M343 -96q-72 0 -126.5 22t-91 60.5t-55.5 89.5t-19 109q0 66 19 118.5t53.5 89.5t84 57t109.5 20q70 0 121.5 -25t83.5 -68.5t44.5 -101t5.5 -123.5h-382q11 -72 54.5 -102.5t105.5 -30.5q36 0 66 9.5t52 21.5q26 14 47 32l52 -96q-25 -23 -58 -41q-29 -16 -70.5 -28.5
t-95.5 -12.5zM317 366q-22 0 -42.5 -6t-37.5 -20.5t-29.5 -38t-17.5 -58.5h249q-7 67 -41.5 95t-80.5 28z" />
    <glyph glyph-name="f" unicode="f" horiz-adv-x="390" 
d="M105 460v30q0 67 24 105t58.5 57.5t72.5 24.5t66 5q11 0 19 -0.5t14 -1.5q7 -1 12 -1v-107q-7 0 -13 1q-6 0 -12.5 0.5t-12.5 0.5q-14 0 -30.5 -2.5t-30 -11.5t-22.5 -26.5t-9 -47.5v-26h125v-107h-125v-436h-136v436h-87v107h87z" />
    <glyph glyph-name="g" unicode="g" horiz-adv-x="650" 
d="M293 -85q-54 0 -98.5 19t-76.5 55t-50 87t-18 116q0 63 16 114.5t46.5 88t74 56t98.5 19.5q50 0 93.5 -17t73.5 -59v71h136v-515q0 -74 -26 -123t-68 -78.5t-95 -42t-106 -12.5q-51 0 -101.5 13t-89.5 34l39 103q21 -10 45 -18q20 -7 47 -12t58 -5t60 7t51 22.5
t35.5 40.5t13.5 61v51q-31 -40 -72.5 -58t-85.5 -18zM457 189q0 46 -11.5 78t-30.5 51.5t-43.5 28.5t-50.5 9q-61 0 -98.5 -43t-37.5 -123q0 -41 10.5 -72t29.5 -51t43.5 -30t53.5 -10q34 0 59 13t42 35.5t25.5 51.5t8.5 62z" />
    <glyph glyph-name="h" unicode="h" horiz-adv-x="640" 
d="M206 363q29 51 75.5 79t105.5 28q90 0 139 -48.5t49 -156.5v-348h-136v320q0 50 -18 80t-65 30q-42 0 -80 -25t-70 -97v-308h-135v753h135v-307z" />
    <glyph glyph-name="i" unicode="i" horiz-adv-x="280" 
d="M73 470h137v-553h-137v553zM73 550v120h137v-120h-137z" />
    <glyph glyph-name="j" unicode="j" horiz-adv-x="290" 
d="M83 550v120h137v-120h-137zM220 470v-582q0 -66 -25 -105t-60.5 -58.5t-74.5 -25t-67 -5.5h-18.5t-14.5 1q-8 1 -14 2v113q5 -1 9 -1h19q14 0 33 2t36 11t28.5 27t11.5 49v572h137z" />
    <glyph glyph-name="k" unicode="k" horiz-adv-x="580" 
d="M208 270l184 200h166l-235 -255l249 -298h-172l-192 244v-244h-137v753h137v-400z" />
    <glyph glyph-name="l" unicode="l" horiz-adv-x="290" 
d="M78 670h137v-753h-137v753z" />
    <glyph glyph-name="m" unicode="m" horiz-adv-x="960" 
d="M201 373q14 24 34.5 42t43.5 30.5t47.5 18.5t47.5 6q62 0 104.5 -26.5t61.5 -84.5q13 28 33.5 48.5t45.5 34.5t51.5 21t50.5 7q82 0 130 -49t48 -156v-348h-137v320q0 25 -3.5 45t-13 34.5t-25.5 22.5t-41 8q-11 0 -26.5 -4t-33 -14t-34.5 -27t-32 -42v-343h-136v320
q0 50 -17.5 80t-66.5 30q-11 0 -26.5 -4t-33 -14t-34.5 -26t-31 -41v-345h-137v548h130v-92z" />
    <glyph glyph-name="n" unicode="n" horiz-adv-x="640" 
d="M206 363q29 51 75.5 79t105.5 28q90 0 139 -48.5t49 -156.5v-348h-137v320q0 50 -17.5 80t-64.5 30q-41 0 -79 -24t-69 -93v-313h-137v548h135v-102z" />
    <glyph glyph-name="o" unicode="o" horiz-adv-x="690" 
d="M349 -96q-62 0 -116 19.5t-94.5 56t-63.5 89t-23 118.5t23 118.5t63.5 89t94 56t115.5 19.5t116 -19.5t94.5 -56t63.5 -89t23 -118.5t-23 -118.5t-63.5 -89t-94.5 -56t-115 -19.5zM348 356q-32 0 -61 -11t-51 -32.5t-35 -53t-13 -72.5q0 -42 13 -73.5t35 -52.5t51 -31.5
t62 -10.5q32 0 61 10.5t51 31.5t35 52.5t13 73.5q0 41 -13 72.5t-35 53t-51 32.5t-62 11z" />
    <glyph glyph-name="p" unicode="p" horiz-adv-x="650" 
d="M71 -295v753h128v-66q31 39 75 58.5t91 19.5q54 0 98.5 -20t77 -57t50 -89.5t17.5 -116.5q0 -63 -16 -115t-46.5 -89.5t-74 -58t-98.5 -20.5q-52 0 -94 20t-71 56v-275h-137zM202 190q0 -45 11 -77.5t30 -53t43.5 -30.5t50.5 -10q61 0 98.5 46t37.5 124q0 40 -10.5 71.5
t-29.5 53.5t-44 33t-53 11q-34 0 -59 -14t-41.5 -37.5t-25 -54t-8.5 -62.5z" />
    <glyph glyph-name="q" unicode="q" horiz-adv-x="650" 
d="M451 -295v275q-30 -36 -72 -56t-93 -20q-55 0 -98.5 20.5t-74 58t-46.5 89.5t-16 115q0 64 18 116.5t50 89.5t76.5 57t98.5 20q48 0 92 -19.5t75 -59.5v67h128v-753h-138zM458 190q0 32 -8.5 62.5t-25.5 54t-42 37.5t-59 14q-28 0 -53 -11t-43.5 -33t-29.5 -53.5
t-11 -71.5q0 -78 37.5 -124t98.5 -46q26 0 50.5 10t43.5 30.5t30.5 53t11.5 77.5z" />
    <glyph glyph-name="r" unicode="r" horiz-adv-x="440" 
d="M201 359q29 61 78.5 86t103.5 25h16t19 -2v-122q-8 0 -15 1q-7 0 -14 0.5t-14 0.5q-127 0 -169 -104v-327h-135v548h130v-106z" />
    <glyph glyph-name="s" unicode="s" horiz-adv-x="500" 
d="M93 77q18 -17 42 -30q20 -11 48 -20t63 -9q15 0 30 2.5t27 8.5t19 15.5t7 23.5q0 20 -21 34t-52.5 27t-68 27.5t-68 35.5t-52.5 50.5t-21 73.5q0 38 16.5 66.5t46 48t69 29.5t85.5 10q48 0 83.5 -10t58.5 -21q27 -13 47 -30l-52 -99q-16 12 -37 23q-18 9 -43.5 16.5
t-57.5 7.5q-14 0 -28.5 -2t-26 -7t-19 -14t-7.5 -24q0 -19 21 -32.5t52.5 -26t68.5 -26.5t68.5 -35t52.5 -50.5t21 -72.5q0 -36 -15 -66t-43 -51.5t-68 -33.5t-91 -12q-54 0 -94.5 12t-68.5 27q-33 18 -57 40z" />
    <glyph glyph-name="t" unicode="t" horiz-adv-x="400" 
d="M246 460h130v-107h-130v-255q0 -30 9.5 -47t23.5 -25.5t30.5 -11t30.5 -2.5h13t13 1q7 1 13 2v-108q-6 -1 -13 -2q-6 -1 -14 -1h-19q-28 0 -66 4.5t-72.5 23.5t-58.5 57t-24 105v259h-94v107h94v156h134v-156z" />
    <glyph glyph-name="u" unicode="u" horiz-adv-x="640" 
d="M440 -83v106q-30 -50 -76 -78t-105 -28q-91 0 -139.5 48.5t-48.5 156.5v348h136v-320q0 -50 18 -80t65 -30q19 0 40 5t40.5 18t37 35t31.5 56v316h136v-553h-135z" />
    <glyph glyph-name="v" unicode="v" horiz-adv-x="570" 
d="M153 470l130 -405l131 405h141l-194 -553h-153l-198 553h143z" />
    <glyph glyph-name="w" unicode="w" horiz-adv-x="850" 
d="M488 470l112 -410l101 411h140l-164 -554h-146l-105 385l-104 -385h-146l-166 554h143l100 -406l113 405h122z" />
    <glyph glyph-name="x" unicode="x" horiz-adv-x="560" 
d="M205 202l-184 268h149l108 -167l110 167h149l-185 -268l195 -285h-146l-123 185l-122 -185h-146z" />
    <glyph glyph-name="y" unicode="y" horiz-adv-x="560" 
d="M101 -193q23 0 38.5 4t26.5 13t18.5 22.5t15.5 33.5l26 71l-216 519h138l142 -371l129 371h130l-241 -633q-14 -35 -30 -62t-37.5 -45t-51.5 -27t-71 -9q-51 0 -96 13l15 111q31 -11 64 -11z" />
    <glyph glyph-name="z" unicode="z" horiz-adv-x="560" 
d="M221 26h302v-109h-481v72l294 372h-280v109h459v-73z" />
    <glyph glyph-name="braceleft" unicode="{" horiz-adv-x="430" 
d="M97 358q38 0 48.5 23t10.5 66v119q0 61 19 96.5t46.5 54t58 24t53.5 5.5h62v-100h-49q-11 0 -24 -3t-24.5 -12.5t-19.5 -27.5t-8 -48v-116q0 -40 -12.5 -66t-26.5 -41q-17 -18 -38 -27v-2q21 -8 38 -26q14 -15 26.5 -41t12.5 -68v-119q0 -31 8 -49t19.5 -27.5t24.5 -12
t24 -2.5h49v-100h-62q-23 0 -53.5 5t-58 23.5t-46.5 54t-19 96.5v121q0 43 -11 66.5t-48 23.5h-44v110h44z" />
    <glyph glyph-name="bar" unicode="|" horiz-adv-x="300" 
d="M97 761h109v-1015h-109v1015z" />
    <glyph glyph-name="braceright" unicode="}" horiz-adv-x="430" 
d="M373 358v-110h-43q-38 0 -49 -23.5t-11 -66.5v-121q0 -61 -19 -96.5t-46.5 -54t-58 -23.5t-52.5 -5h-63v100h49q10 0 23.5 2.5t25 12t19.5 27.5t8 49v119q0 42 12 68t26 41q17 18 39 26v2q-22 9 -39 27q-14 15 -26 41t-12 66v116q0 30 -8 48t-19.5 27.5t-25 12.5t-23.5 3
h-49v100h63q22 0 52.5 -5.5t58 -24t46.5 -54t19 -96.5v-119q0 -43 11 -66t49 -23h43z" />
    <glyph glyph-name="asciitilde" unicode="~" horiz-adv-x="620" 
d="M52 203q0 98 42.5 144.5t120.5 46.5q42 0 68 -15t44.5 -33.5t34 -33.5t36.5 -15q33 0 48 27.5t15 63.5h111q0 -99 -42 -145t-120 -46q-42 0 -67.5 15t-44 32.5t-34 32.5t-37.5 15q-33 0 -48 -26.5t-15 -62.5h-112v0z" />
    <glyph glyph-name="exclamdown" unicode="&#xa1;" horiz-adv-x="240" 
d="M193 -223h-147l7 510h132zM188 355h-141v140h141v-140z" />
    <glyph glyph-name="currency" unicode="&#xa4;" horiz-adv-x="560" 
d="M278 548q35 0 61 -8.5t47 -21.5l73 75l74 -75l-79 -73q26 -44 26 -109q0 -76 -27 -118l76 -75l-73 -72l-73 77q-23 -15 -49.5 -24t-57.5 -9q-28 0 -55.5 9t-49.5 22l-72 -76l-73 71l75 75q-28 43 -28 114q0 76 31 119l-77 70l72 74l74 -74q43 29 105 29zM277 445
q-42 0 -62.5 -33t-20.5 -81q0 -30 7.5 -51t19.5 -34q12 -14 26.5 -20.5t28.5 -6.5q15 0 30 6.5t27 20.5q11 13 18 35t7 54q0 21 -5 40.5t-14 35.5q-10 15 -25.5 24.5t-36.5 9.5z" />
    <glyph glyph-name="section" unicode="&#xa7;" horiz-adv-x="450" 
d="M80 79q29 -20 60.5 -31t63.5 -11q12 0 25.5 2t24.5 8t18 17t7 29q0 22 -17.5 39.5t-62.5 35.5q-77 31 -108 72.5t-31 91.5q0 38 16.5 71t46.5 50q-30 23 -46.5 54t-16.5 63q0 73 50 111.5t135 38.5q83 0 139 -38l-34 -103q-21 14 -48.5 26.5t-58.5 12.5q-29 0 -45 -9.5
t-16 -32.5q0 -26 20 -44t62 -35q73 -30 105 -70.5t32 -100.5q0 -73 -57 -118q27 -24 42.5 -55t15.5 -66q0 -72 -50 -112.5t-150 -40.5q-46 0 -83 10.5t-72 34.5zM283 322q0 27 -16 42.5t-56 31.5q-16 -9 -24 -25t-8 -33q0 -26 19.5 -41t61.5 -32q14 11 18.5 27t4.5 30z" />
    <glyph glyph-name="dieresis" unicode="&#xa8;" horiz-adv-x="520" 
d="M86 541v131h131v-131h-131zM302 541v131h131v-131h-131z" />
    <glyph glyph-name="ordfeminine" unicode="&#xaa;" horiz-adv-x="380" 
d="M236 442q-16 -13 -38 -22.5t-45 -9.5q-28 0 -49.5 9.5t-36.5 26.5q-15 16 -22.5 36.5t-7.5 43.5q0 60 49.5 99.5t143.5 44.5q-2 18 -14.5 29.5t-35.5 11.5q-21 0 -44.5 -8.5t-48.5 -31.5l-28 83q28 23 61.5 34.5t68.5 11.5q45 0 73.5 -13.5t44.5 -35.5t22 -49.5t6 -56.5
v-226h-99v23zM234 579q-12 0 -26.5 -1.5t-26.5 -5.5q-13 -5 -22.5 -14t-11.5 -24q-3 -26 25 -30q8 -2 19 1t21 11q9 7 15.5 17t6.5 22v24z" />
    <glyph glyph-name="uni00AD" unicode="&#xad;" horiz-adv-x="500" 
d="M415 355v-109h-329v109h329z" />
    <glyph glyph-name="degree" unicode="&#xb0;" horiz-adv-x="420" 
d="M337 621q0 -26 -10 -49.5t-27 -40.5q-18 -17 -41 -27t-49 -10t-49 10t-40 27q-18 17 -28.5 40.5t-10.5 49.5t10.5 49t28.5 41q17 17 40 27t49 10t49 -10t41 -27q17 -18 27 -41t10 -49zM252 621q0 21 -12.5 33.5t-29.5 12.5t-30 -12.5t-13 -33.5q0 -22 13 -34.5t30 -12.5
t29.5 12.5t12.5 34.5z" />
    <glyph glyph-name="plusminus" unicode="&#xb1;" horiz-adv-x="660" 
d="M573 444v-109h-181v-187h-124v187h-179v109h179v186h124v-186h181zM89 92h482v-106h-482v106z" />
    <glyph glyph-name="uni00B2" unicode="&#xb2;" horiz-adv-x="340" 
d="M42 478q44 42 71.5 71.5t43.5 50.5t22 37.5t8 33.5q3 29 -26 29q-13 0 -29 -9t-44 -38l-54 78q37 35 67 49.5t69 14.5q31 0 54 -10t38 -26q15 -17 22.5 -39t7.5 -45q0 -22 -4.5 -42.5t-15.5 -42.5t-29 -45.5t-45 -50.5h105v-89h-261v73z" />
    <glyph glyph-name="uni00B3" unicode="&#xb3;" horiz-adv-x="340" 
d="M78 517q22 -14 40 -19.5t37 -5.5q26 0 35 9.5t9 22.5q0 20 -15.5 30.5t-38.5 10.5h-39v87h39q22 0 31 7.5t11 22.5q1 10 -6 17t-20 7q-15 0 -30.5 -4t-39.5 -22l-39 72q31 24 59 34.5t59 10.5t54 -9t38 -23q14 -15 21 -33.5t7 -36.5q0 -20 -10 -42.5t-30 -39.5
q24 -11 38.5 -36t14.5 -54q0 -23 -9 -44.5t-27 -38.5q-19 -18 -46.5 -28.5t-64.5 -10.5q-35 0 -62 8.5t-61 28.5z" />
    <glyph glyph-name="acute" unicode="&#xb4;" horiz-adv-x="400" 
d="M331 757l-129 -164h-114l94 164h149z" />
    <glyph glyph-name="paragraph" unicode="&#xb6;" horiz-adv-x="560" 
d="M250 246q-33 3 -67.5 17t-62.5 40q-29 26 -47 65.5t-18 93.5q0 43 12 86.5t44 78.5q31 35 87 56.5t145 21.5q45 0 74 -3t56 -10v-769h-95v683h-30v-683h-98v323z" />
    <glyph glyph-name="periodcentered" unicode="&#xb7;" horiz-adv-x="300" 
d="M79 231v141h141v-141h-141z" />
    <glyph glyph-name="cedilla" unicode="&#xb8;" horiz-adv-x="300" 
d="M190 -45q28 -11 43 -31.5t15 -46.5q0 -42 -32.5 -59t-78.5 -17q-26 0 -44.5 4.5t-38.5 15.5l23 62q20 -9 30.5 -10.5t18.5 -2.5q23 -1 25 10t-17 18.5t-53 9.5l43 101l81 -18z" />
    <glyph glyph-name="uni00B9" unicode="&#xb9;" horiz-adv-x="340" 
d="M163 798h74v-388h-104v269l-28 -15l-41 80z" />
    <glyph glyph-name="ordmasculine" unicode="&#xba;" horiz-adv-x="420" 
d="M212 799q39 0 71.5 -14t56.5 -39q23 -25 36 -59.5t13 -75.5q0 -51 -16 -87.5t-41 -60.5q-26 -24 -59 -35.5t-66 -11.5q-37 0 -69 13.5t-56 38.5q-24 24 -37.5 59t-13.5 78q0 45 14.5 80.5t39.5 61.5q24 25 57 38.5t70 13.5zM211 712q-37 0 -53 -30t-16 -75
q0 -51 18 -77.5t49 -26.5t49.5 26.5t18.5 80.5q0 19 -3.5 37.5t-10.5 32.5q-8 14 -20.5 23t-31.5 9z" />
    <glyph glyph-name="onequarter" unicode="&#xbc;" horiz-adv-x="720" 
d="M400 102l157 260h82v-241h42v-83h-42v-66h-89v66h-150v64zM550 122v73l-42 -72zM71 -48l442 708h103l-442 -708h-103zM133 655h74v-388h-104v269l-28 -15l-41 80z" />
    <glyph glyph-name="onehalf" unicode="&#xbd;" horiz-adv-x="720" 
d="M421 45q44 42 71.5 71.5t43.5 51.5q16 21 22 37.5t8 33.5q3 29 -26 29q-13 0 -29 -9t-44 -38l-54 78q37 35 67 49.5t69 14.5q31 0 54 -10t38 -26q15 -17 22.5 -39t7.5 -45q0 -44 -20 -85.5t-74 -96.5h105v-89h-261v73zM48 -48l442 708h103l-442 -708h-103zM133 655h74
v-388h-104v269l-28 -15l-41 80z" />
    <glyph glyph-name="threequarters" unicode="&#xbe;" horiz-adv-x="720" 
d="M400 103l157 260h82v-242h42v-83h-42v-66h-89v66h-150v65zM550 122v72l-42 -72h42zM78 380q22 -14 40 -19.5t37 -5.5q26 0 35 9.5t9 22.5q0 20 -15.5 30.5t-38.5 10.5h-39v87h39q22 0 31 7.5t11 22.5q1 10 -6 17t-20 7q-15 0 -30.5 -4t-39.5 -22l-39 72q31 24 59 34.5
t59 10.5t54 -9t38 -23q14 -15 21 -33.5t7 -36.5q0 -20 -10 -42.5t-30 -39.5q24 -11 38.5 -36t14.5 -54q0 -23 -9 -44.5t-27 -38.5q-19 -18 -46.5 -28.5t-64.5 -10.5q-35 0 -62 8.5t-61 28.5zM108 -48l442 708h103l-442 -708h-103z" />
    <glyph glyph-name="questiondown" unicode="&#xbf;" horiz-adv-x="440" 
d="M300 267q0 -43 -11.5 -92.5t-55.5 -99.5q-35 -38 -49.5 -68t-14.5 -62t14 -47t46 -15q31 0 57 17t59 59l71 -95q-46 -49 -91.5 -70t-104.5 -21q-47 0 -82.5 12.5t-59.5 33.5q-25 22 -37.5 51.5t-12.5 62.5q0 54 28 101t66 92q29 34 39.5 70.5t10.5 71.5v43h128v-44z
M306 356h-141v140h141v-140z" />
    <glyph glyph-name="AE" unicode="&#xc6;" horiz-adv-x="870" 
d="M521 65h321v-113h-457v174h-164l-78 -174h-140l334 725h489v-113h-305v-182h289v-113h-289v-204zM385 231v258l-116 -258h116z" />
    <glyph glyph-name="Eth" unicode="&#xd0;" horiz-adv-x="650" 
d="M-9 260v105h78v312h219q88 0 150 -26t101 -73t57 -114t18 -149t-18 -149t-57 -114q-39 -48 -101 -74t-150 -26h-219v308h-78zM205 65h90q39 0 72 12t57 41q24 28 37 76t13 121q0 72 -14 120t-39 77q-25 28 -60 40t-76 12h-80v-199h114v-105h-114v-195z" />
    <glyph glyph-name="multiply" unicode="&#xd7;" horiz-adv-x="600" 
d="M230 296l-178 244h133l114 -156l115 156h133l-179 -244l195 -268h-130l-134 180l-133 -180h-130z" />
    <glyph glyph-name="Oslash" unicode="&#xd8;" horiz-adv-x="700" 
d="M542 617q60 -51 90.5 -128t30.5 -171q0 -92 -24.5 -162.5t-66.5 -118.5q-43 -48 -101.5 -72.5t-126.5 -24.5q-40 0 -76 9l-22 -55h-127l44 107q-63 51 -93.5 131.5t-30.5 174.5q0 84 22.5 153.5t64.5 118.5q41 49 98.5 76t128.5 27q41 0 83 -11l15 37h128zM172 309
q0 -43 10.5 -90.5t33.5 -86.5l178 436q-24 8 -44 8q-45 0 -78 -22.5t-55 -59.5q-23 -37 -34 -85t-11 -100zM530 314q0 38 -10.5 83.5t-32.5 84.5l-177 -430q9 -3 18.5 -4t20.5 -1q43 0 76.5 21.5t57.5 58.5q23 36 35 84.5t12 102.5z" />
    <glyph glyph-name="Thorn" unicode="&#xde;" horiz-adv-x="537" 
d="M268 536q121 0 178 -55t57 -167q0 -109 -57 -166t-178 -57h-65v-139h-136v725h136v-141h65zM264 204q49 0 77 24t28 84t-28 85.5t-77 25.5h-61v-219h61z" />
    <glyph glyph-name="germandbls" unicode="&#xdf;" horiz-adv-x="610" 
d="M270 84q32 -20 58 -30t57 -10q72 0 72 46q0 29 -16.5 46.5t-60.5 34.5q-78 30 -109.5 73t-31.5 94q0 32 8.5 55.5t22.5 40.5t32 29t38 21q21 11 32 21.5t11 30.5q0 21 -22 30t-57 9q-27 0 -46 -8.5t-31 -28.5q-13 -21 -18.5 -54.5t-5.5 -84.5v-448h-136v450
q0 147 61.5 216t175.5 69q39 0 76.5 -7.5t66.5 -25.5t46.5 -47t16.5 -72q-1 -29 -9 -49.5t-20 -35.5q-13 -15 -30 -26t-36 -21q-23 -12 -35 -24.5t-12 -33.5q0 -27 17 -42.5t62 -32.5q75 -29 106 -70t31 -105q0 -39 -15 -68t-41 -48q-27 -19 -64 -28.5t-81 -9.5
q-47 0 -80 10t-68 32z" />
    <glyph glyph-name="ae" unicode="&#xe6;" horiz-adv-x="820" 
d="M763 5q-46 -32 -92 -47.5t-100 -15.5q-57 0 -104 21.5t-82 63.5q-35 -40 -84.5 -63.5t-121.5 -23.5q-42 0 -71 13t-47 34q-18 22 -26.5 50t-8.5 58q0 48 21 85t59 63q38 25 91 38.5t117 15.5q-1 14 -6 29.5t-15 28.5q-11 13 -29 21.5t-45 8.5q-26 0 -56 -10.5t-68 -38.5
l-36 92q37 28 78 43.5t96 15.5q63 0 101.5 -18t62.5 -48q29 30 70.5 48t92.5 18q68 0 113 -25t71 -67q25 -43 33.5 -99t3.5 -117h-335v-4q0 -33 11.5 -58t30.5 -41q18 -16 42 -24t49 -8q35 0 72.5 13t80.5 42zM316 199q-27 0 -55 -5t-51 -16t-38 -29t-15 -43q0 -34 12 -48
t32 -14q42 0 71.5 19.5t40.5 45.5q2 6 2.5 12.5t0.5 12.5v65zM560 385q-27 0 -46.5 -9.5t-32.5 -24.5t-21 -33.5t-12 -36.5h208q-3 17 -8.5 35.5t-16.5 33.5t-28 25t-43 10z" />
    <glyph glyph-name="eth" unicode="&#xf0;" horiz-adv-x="560" 
d="M370 601q7 -6 13.5 -12t13.5 -13q55 -57 87.5 -137t32.5 -189q0 -73 -17.5 -130.5t-49.5 -97.5q-33 -40 -78.5 -61t-101.5 -21q-57 0 -101 21t-74 57q-30 35 -45 82t-15 99q0 55 17 98.5t46 73.5t67.5 45.5t82.5 15.5q36 0 67.5 -8t66.5 -36q-19 48 -37.5 72.5
t-35.5 41.5q-8 7 -15 13.5t-15 11.5l-115 -94l-74 90l61 49q-14 2 -29 2h-32l11 113q48 -2 87 -8t73 -17l96 79l73 -91zM268 49q60 0 89.5 45.5t29.5 124.5q0 11 -2 19t-4 14q-15 36 -44 56t-61 20q-111 0 -111 -136q0 -70 26 -106.5t77 -36.5z" />
    <glyph glyph-name="divide" unicode="&#xf7;" horiz-adv-x="620" 
d="M52 345h516v-105h-516v105zM242 157h136v-135h-136v135zM242 564h136v-136h-136v136z" />
    <glyph glyph-name="oslash" unicode="&#xf8;" horiz-adv-x="580" 
d="M133 -8q-45 36 -67.5 92.5t-22.5 125.5q0 66 19 117.5t53 87.5q34 35 79.5 53.5t99.5 18.5q19 0 39 -3l21 52h121l-38 -93q48 -35 74 -93.5t26 -131.5q0 -74 -22 -126.5t-57 -86.5q-36 -34 -81 -49.5t-91 -15.5q-14 0 -27.5 1.5t-25.5 3.5l-18 -44h-119zM408 215
q0 23 -5.5 50t-17.5 52l-112 -274q5 -1 17 -1q52 0 85 46t33 127zM172 213q0 -20 4 -42t12 -44l104 258q-32 0 -54.5 -14t-36.5 -38q-15 -24 -22 -55t-7 -65z" />
    <glyph glyph-name="thorn" unicode="&#xfe;" horiz-adv-x="570" 
d="M189 463q53 44 137 44q51 0 91.5 -18.5t69.5 -52.5q29 -35 44.5 -84.5t15.5 -111.5q0 -72 -19.5 -125t-51.5 -87q-32 -35 -75 -51.5t-89 -16.5q-36 0 -70 9.5t-62 33.5v-231h-125v925h134v-234zM189 184q0 -51 26.5 -82.5t78.5 -31.5q61 0 90 44t29 123q0 35 -7 64.5
t-21 51.5q-14 21 -36.5 33t-52.5 12q-25 0 -45 -11t-33 -29q-14 -18 -21.5 -42t-7.5 -49v-83z" />
    <glyph glyph-name="dcroat" unicode="&#x111;" horiz-adv-x="620" 
d="M516 -48h-125v33q-28 -24 -62 -34.5t-70 -10.5q-47 0 -89.5 16.5t-74.5 51.5q-32 34 -51.5 87t-19.5 125q0 62 15.5 111.5t44.5 84.5q29 34 69.5 52.5t91.5 18.5q82 0 137 -46v88h-111v113h111v71h134v-71h89v-113h-89v-577zM382 247q0 25 -7.5 49t-20.5 42
q-14 18 -34 29t-45 11q-31 0 -53 -12t-36 -33q-15 -22 -21.5 -51.5t-6.5 -64.5q0 -79 29 -123t90 -44q52 0 78.5 31.5t26.5 82.5v83z" />
    <glyph glyph-name="Hbar" unicode="&#x126;" horiz-adv-x="720" 
d="M626 -48h-136v317h-262v-317h-136v497h-65v113h65v115h136v-115h262v115h136v-115h65v-113h-65v-497zM490 382v67h-262v-67h262z" />
    <glyph glyph-name="hbar" unicode="&#x127;" horiz-adv-x="610" 
d="M235 440q30 25 62.5 36t67.5 11q48 0 84.5 -14t61.5 -39q24 -26 36 -60.5t12 -76.5v-345h-134v346q0 42 -16 63t-54 21q-20 0 -38 -8.5t-33 -22.5t-27.5 -32.5t-21.5 -37.5v-329h-134v583h-89v113h89v58h134v-58h112v-113h-112v-95z" />
    <glyph glyph-name="dotlessi" unicode="&#x131;" horiz-adv-x="240" 
d="M187 476v-524h-134v524h134z" />
    <glyph glyph-name="IJ" unicode="&#x132;" horiz-adv-x="620" 
d="M62 -47v724h136v-724h-136zM555 190q0 -69 -16.5 -116.5t-46.5 -77.5q-30 -29 -71 -42t-90 -13q-27 0 -51 1.5t-50 10.5l18 111q13 -4 23 -6t19 -3q8 -1 16 -1h18q24 0 42 6t30 22q11 16 17 43t6 68v484h136v-487z" />
    <glyph glyph-name="ij" unicode="&#x133;" horiz-adv-x="460" 
d="M185 476v-524h-134v524h134zM51 535v141h134v-141h-134zM155 -141q64 6 91 32.5t27 71.5v513h134v-510q0 -46 -11 -83.5t-38 -65.5q-27 -27 -73.5 -43.5t-116.5 -21.5zM273 535v141h134v-141h-134z" />
    <glyph glyph-name="kgreenlandic" unicode="&#x138;" horiz-adv-x="482" 
d="M481 -49h-143l-147 207l-4 -4v-202h-131v524h131v-153l143 153h153l-212 -230z" />
    <glyph glyph-name="Ldot" unicode="&#x13f;" horiz-adv-x="520" 
d="M203 65h290v-113h-426v725h136v-612zM293 286v137h136v-137h-136z" />
    <glyph glyph-name="ldot" unicode="&#x140;" horiz-adv-x="440" 
d="M186 -48h-134v754h134v-754zM251 265v137h136v-137h-136z" />
    <glyph glyph-name="Lslash" unicode="&#x141;" horiz-adv-x="550" 
d="M244 394l160 90v-130l-160 -90v-199h290v-113h-426v235l-106 -59v130l106 59v360h136v-283z" />
    <glyph glyph-name="lslash" unicode="&#x142;" horiz-adv-x="340" 
d="M235 494l24 20l73 -91l-97 -79v-392h-134v283l-22 -18l-74 90l96 78v321h134v-212z" />
    <glyph glyph-name="napostrophe" unicode="&#x149;" horiz-adv-x="690" 
d="M171 471q0 -67 -34 -104.5t-109 -48.5v88q26 4 35.5 11t11.5 27h-46v143h142v-116zM514 291q0 46 -23 63t-59 17q-26 0 -49.5 -15t-41.5 -49v-367h-132v525h132v-28q21 17 52.5 28t58.5 11q43 0 78.5 -12t61.5 -35q25 -24 39 -58t14 -79v-351h-131v350z" />
    <glyph glyph-name="Eng" unicode="&#x14a;" horiz-adv-x="665" 
d="M601 -81q0 -73 -29 -103t-95 -30q-26 0 -51 15t-53 50l62 74q5 -14 11.5 -24.5t15.5 -10.5q11 0 11 22v65l-275 509v-541h-131v732h163l240 -461v461h131v-758z" />
    <glyph glyph-name="eng" unicode="&#x14b;" horiz-adv-x="543" 
d="M364 302q0 46 -24.5 63t-60.5 17q-26 0 -49.5 -15t-41.5 -49v-373h-132v531h132v-26q21 16 52.5 26.5t58.5 10.5q43 0 78.5 -12t61.5 -35q25 -24 39 -58t14 -79v-385q0 -67 -26 -101t-83 -34q-33 0 -59.5 16t-57.5 52l61 72q7 -11 12.5 -19.5t13.5 -8.5q5 0 8 3.5t3 17.5
v386z" />
    <glyph glyph-name="OE" unicode="&#x152;" horiz-adv-x="900" 
d="M559 65h316v-113h-522q-72 0 -130.5 22.5t-99.5 66.5t-63 110.5t-22 154.5q0 91 21.5 160.5t62.5 116.5q41 46 99.5 70t131.5 24h506v-113h-300v-182h284v-113h-284v-204zM174 306q0 -113 43.5 -178.5t135.5 -65.5h70v506h-70q-48 0 -81.5 -19.5t-55.5 -54.5t-32 -83
t-10 -105z" />
    <glyph glyph-name="oe" unicode="&#x153;" horiz-adv-x="900" 
d="M858 8q-51 -33 -96 -49.5t-100 -16.5q-60 0 -109 21.5t-83 70.5q-35 -48 -85.5 -71t-108.5 -23q-51 0 -95.5 17t-78.5 51t-53.5 84.5t-19.5 117.5q0 70 19.5 122t53.5 87q33 34 78 51t96 17q60 0 109.5 -21t83.5 -69q64 90 180 90q67 0 111.5 -26t70.5 -69
q25 -44 34 -100t5 -116h-327q6 -73 40.5 -102t86.5 -29q65 0 148 54zM276 384q-33 0 -55.5 -13.5t-36.5 -36.5t-20 -55t-6 -69q0 -85 31.5 -126t86.5 -41q57 0 89 41t32 126q0 37 -6.5 69t-20.5 55q-15 23 -38 36.5t-56 13.5zM649 384q-28 0 -46.5 -9t-30.5 -23
q-12 -15 -18 -33t-9 -36h199q-3 17 -9 35t-17 33q-11 14 -28 23.5t-41 9.5z" />
    <glyph glyph-name="Tbar" unicode="&#x166;" horiz-adv-x="530" 
d="M329 -47h-136v412h-133v113h133v86h-182v113h508v-113h-190v-86h144v-113h-144v-412z" />
    <glyph glyph-name="tbar" unicode="&#x167;" horiz-adv-x="333" 
d="M85 380h-69v106h69v125h134v-125h102v-106h-102v-47h102v-106h-102v-121q0 -22 1.5 -33.5t8.5 -18.5q9 -9 32 -9q10 0 21 0.5t38 5.5l11 -97q-25 -8 -54 -12t-49 -3q-42 1 -70 15.5t-44 37.5t-22.5 52.5t-6.5 61.5v121h-69v106h69v47z" />
    <glyph glyph-name="caron" unicode="&#x2c7;" horiz-adv-x="360" 
d="M128 592l-99 165h119l33 -62l32 62h116l-99 -165h-102z" />
    <glyph glyph-name="uni02D0" unicode="&#x2d0;" horiz-adv-x="300" 
d="M35 543h228l-111 -197zM152 253l111 -197h-228z" />
    <glyph glyph-name="breve" unicode="&#x2d8;" horiz-adv-x="375" 
d="M323 757q-11 -134 -134 -134q-63 0 -96.5 35.5t-38.5 98.5h106q2 -28 9.5 -37.5t19.5 -9.5q14 0 20.5 9.5t7.5 37.5h106z" />
    <glyph glyph-name="dotaccent" unicode="&#x2d9;" horiz-adv-x="300" 
d="M88 764h124v-125h-124v125z" />
    <glyph glyph-name="ring" unicode="&#x2da;" horiz-adv-x="300" 
d="M250 676q0 -23 -8.5 -41.5t-22.5 -31.5t-32 -20.5t-37 -7.5t-37 7.5t-32 20.5q-15 13 -23.5 31.5t-8.5 41.5q0 22 8.5 40.5t23.5 32.5q14 13 32 20t37 7t37 -7t32 -20q14 -14 22.5 -32.5t8.5 -40.5zM172 676q0 10 -6.5 16.5t-15.5 6.5q-10 0 -16.5 -6.5t-6.5 -16.5
q0 -11 6.5 -17t16.5 -6q9 0 15.5 6t6.5 17z" />
    <glyph glyph-name="ogonek" unicode="&#x2db;" horiz-adv-x="300" 
d="M211 -61q-29 -4 -47.5 -19.5t-12.5 -34.5q5 -11 18 -11q9 0 23 4t30 14l23 -60q-23 -16 -47.5 -23t-47.5 -7q-19 0 -36.5 3.5t-30.5 12.5q-14 9 -22 24.5t-8 38.5q0 19 9 39.5t26 37.5q17 18 42 31t57 17z" />
    <glyph glyph-name="hungarumlaut" unicode="&#x2dd;" horiz-adv-x="440" 
d="M249 757l-129 -164h-94l95 164h128zM400 757l-129 -164h-94l95 164h128z" />
    <glyph glyph-name="Alpha" unicode="&#x391;" horiz-adv-x="600" 
d="M363 683l243 -738h-136l-57 181h-230l-53 -181h-136l242 738h127zM383 231l-84 268l-82 -268h166z" />
    <glyph glyph-name="Beta" unicode="&#x392;" horiz-adv-x="570" 
d="M275 683q112 0 174.5 -46.5t62.5 -146.5q0 -50 -15.5 -87.5t-63.5 -66.5q57 -22 84.5 -68t27.5 -103q0 -114 -62.5 -167t-172.5 -53h-253v738h218zM297 58q52 0 83.5 23.5t31.5 85.5q0 54 -35 78t-90 24h-98v-211h108zM264 382q52 0 83.5 24.5t31.5 81.5q0 24 -8.5 39.5
t-22.5 25.5q-14 9 -33.5 13t-41.5 4h-84v-188h75z" />
    <glyph glyph-name="Gamma" unicode="&#x393;" horiz-adv-x="530" 
d="M503 563h-300v-611h-136v724h436v-113z" />
    <glyph glyph-name="uni0394" unicode="&#x394;" horiz-adv-x="640" 
d="M279 676h98l259 -725h-632zM179 64h280l-135 398z" />
    <glyph glyph-name="Epsilon" unicode="&#x395;" horiz-adv-x="560" 
d="M193 58h336v-113h-472v738h456v-113h-320v-188h304v-113h-304v-211z" />
    <glyph glyph-name="Zeta" unicode="&#x396;" horiz-adv-x="570" 
d="M29 570v113h517v-77l-359 -548h364v-113h-535v75l358 550h-345z" />
    <glyph glyph-name="Eta" unicode="&#x397;" horiz-adv-x="660" 
d="M465 382v301h136v-738h-136v324h-272v-324h-136v738h136v-301h272z" />
    <glyph glyph-name="Theta" unicode="&#x398;" horiz-adv-x="700" 
d="M350 -67q-71 0 -130 25.5t-102 73.5t-66.5 117t-23.5 157q0 91 23.5 162.5t65.5 120.5t101.5 74.5t131.5 25.5t131.5 -25.5t101.5 -74.5t66 -120.5t24 -162.5q0 -88 -24 -157t-67 -117t-102 -73.5t-130 -25.5zM350 580q-48 0 -83 -21.5t-58 -58.5q-24 -37 -34.5 -87
t-10.5 -107t11.5 -105t35.5 -83q23 -36 58 -55.5t81 -19.5t81 19.5t59 55.5q23 35 35 83t12 105t-11 107t-34 87q-24 37 -59 58.5t-83 21.5zM190 362h320v-113h-320v113z" />
    <glyph glyph-name="Iota" unicode="&#x399;" horiz-adv-x="241" 
d="M52 -55v738h136v-738h-136z" />
    <glyph glyph-name="Kappa" unicode="&#x39a;" horiz-adv-x="593" 
d="M457 683h161l-298 -317l311 -421h-158l-237 327l-43 -43v-284h-136v738h136v-280z" />
    <glyph glyph-name="Lambda" unicode="&#x39b;" horiz-adv-x="600" 
d="M1 -47l236 723h125l235 -723h-140l-158 526l-158 -526h-140z" />
    <glyph glyph-name="Mu" unicode="&#x39c;" horiz-adv-x="780" 
d="M723 683v-738h-132v441l-133 -441h-136l-133 441v-441h-132v738h162l171 -559l171 559h162z" />
    <glyph glyph-name="Nu" unicode="&#x39d;" horiz-adv-x="665" 
d="M452 -55l-264 534v-537h-131v741h159l264 -528v528h131v-738h-159z" />
    <glyph glyph-name="Xi" unicode="&#x39e;" horiz-adv-x="660" 
d="M66 677h526v-113h-526v113zM140 382h379v-113h-379v113zM66 64h526v-113h-526v113z" />
    <glyph glyph-name="Omicron" unicode="&#x39f;" horiz-adv-x="700" 
d="M350 -67q-71 0 -130 25.5t-102 73.5t-66.5 117t-23.5 157q0 91 23.5 162.5t65.5 120.5t101.5 74.5t131.5 25.5t131.5 -25.5t101.5 -74.5t66 -120.5t24 -162.5q0 -88 -24 -157t-67 -117t-102 -73.5t-130 -25.5zM350 580q-48 0 -83 -21.5t-58 -58.5q-24 -37 -34.5 -87
t-10.5 -107t11.5 -105t35.5 -83q23 -36 58 -55.5t81 -19.5t81 19.5t59 55.5q23 35 35 83t12 105t-11 107t-34 87q-24 37 -59 58.5t-83 21.5z" />
    <glyph glyph-name="Pi" unicode="&#x3a0;" horiz-adv-x="660" 
d="M455 -48v613h-252v-613h-136v726h524v-726h-136z" />
    <glyph glyph-name="Rho" unicode="&#x3a1;" horiz-adv-x="557" 
d="M300 683q118 0 176.5 -58.5t58.5 -170.5q0 -109 -58.5 -169.5t-176.5 -60.5h-107v-279h-136v738h243zM296 337q49 0 77 27.5t28 87.5t-28 89t-77 29h-103v-233h103z" />
    <glyph glyph-name="Sigma" unicode="&#x3a3;" horiz-adv-x="570" 
d="M40 10l290 303l-290 281v81h496v-113h-293l256 -241l-249 -254h287v-115h-497v58z" />
    <glyph glyph-name="Tau" unicode="&#x3a4;" horiz-adv-x="530" 
d="M0 683h529v-113h-200v-625h-136v625h-193v113z" />
    <glyph glyph-name="Upsilon" unicode="&#x3a5;" horiz-adv-x="600" 
d="M-15 683h149l164 -296l169 296h147l-248 -415v-323h-136v322z" />
    <glyph glyph-name="Phi" unicode="&#x3a6;" horiz-adv-x="640" 
d="M385 569q47 -9 86 -31.5t67 -55.5q27 -34 42.5 -78.5t15.5 -97.5t-15.5 -97.5t-42.5 -77.5q-28 -34 -67 -56.5t-86 -31.5v-91h-131v91q-47 9 -86 31.5t-67 56.5q-28 33 -43 77.5t-15 97.5t15.5 97t43.5 78q27 34 66 56t86 31v108h131v-107zM465 306q0 54 -21 91.5
t-59 54.5v-292q38 17 59 54.5t21 91.5zM174 307q0 -54 21 -92t59 -55v291q-38 -17 -59 -53.5t-21 -90.5z" />
    <glyph glyph-name="Chi" unicode="&#x3a7;" horiz-adv-x="590" 
d="M-10 683h149l156 -253l157 253h149l-238 -369l238 -369h-148l-158 254l-158 -254h-148l239 369z" />
    <glyph glyph-name="Psi" unicode="&#x3a8;" horiz-adv-x="680" 
d="M408 273q40 15 63.5 52t23.5 103v248h136v-235q0 -68 -17 -118.5t-46 -85.5q-30 -35 -71 -55t-89 -28v-202h-136v202q-48 7 -89 27t-70 55q-30 35 -46.5 86t-16.5 119v235h136v-248q0 -66 22 -103t64 -52v403h136v-403z" />
    <glyph glyph-name="uni03A9" unicode="&#x3a9;" horiz-adv-x="760" 
d="M380 572q-50 0 -85.5 -17t-57.5 -47q-23 -30 -34 -72t-11 -93t11 -97.5t31 -86.5q19 -40 47 -71t61 -50v-87h-301v113h114q-46 50 -72.5 121.5t-26.5 156.5q0 79 20.5 142t61.5 107q41 43 101.5 66.5t140.5 23.5q78 0 139 -23.5t102 -66.5q41 -44 62 -107t21 -142
q0 -85 -26.5 -156.5t-72.5 -121.5h114v-113h-301v87q33 19 61 50t48 71q19 40 30 86.5t11 97.5t-11 93t-33 72q-23 30 -59 47t-85 17z" />
    <glyph glyph-name="alpha" unicode="&#x3b1;" horiz-adv-x="623" 
d="M625 56q-20 -66 -51 -92.5t-81 -26.5q-33 0 -62 19.5t-46 64.5q-34 -47 -73 -64t-79 -17q-57 0 -97.5 21t-64.5 57q-25 36 -35.5 83.5t-8.5 100.5q2 57 16 108.5t42 90.5q27 39 69 62t100 23q48 0 89 -20.5t67 -75.5l27 87l117 -38l-96 -286q1 -32 5.5 -53.5t10.5 -34.5
q5 -13 11.5 -18.5t12.5 -5.5q8 0 13 9t13 44zM337 227q2 33 -2 61.5t-14 49.5q-11 20 -27.5 32t-39.5 12q-29 0 -48 -19t-30 -47t-16 -60t-6 -58q-4 -76 14.5 -115.5t63.5 -39.5q27 0 46 18t32 45q12 27 18.5 59.5t8.5 61.5z" />
    <glyph glyph-name="beta" unicode="&#x3b2;" horiz-adv-x="540" 
d="M505 168q0 -46 -12.5 -87.5t-38.5 -72.5q-27 -31 -67 -49.5t-94 -18.5q-24 0 -52.5 6.5t-46.5 16.5v-142h-127v662q0 54 13.5 92t40.5 61q26 23 63.5 33.5t85.5 10.5q49 0 87.5 -14t65.5 -39t41 -60.5t14 -78.5q0 -42 -12 -77.5t-49 -66.5q24 -16 41 -36.5t28 -43.5
q10 -24 14.5 -48t4.5 -48zM377 168q0 21 -4.5 43t-14.5 39t-26 28t-38 11h-48v98h48q31 0 44.5 21.5t13.5 78.5q0 89 -82 89q-36 0 -56 -20t-20 -78v-400q18 -18 40.5 -26t48.5 -8q51 0 72.5 34.5t21.5 89.5z" />
    <glyph glyph-name="gamma" unicode="&#x3b3;" horiz-adv-x="520" 
d="M324 69q18 -26 32 -49.5t25 -43.5q19 -36 18 -71t-18 -62q-18 -27 -50.5 -43.5t-75.5 -16.5q-44 0 -76.5 16t-50.5 43t-19.5 62t17.5 73q22 41 65 101l-185 364l117 51l133 -290l141 286l117 -49zM283 -82q0 8 -8 26t-19 38q-30 -42 -30 -65q0 -18 7.5 -25t21.5 -7
t21 7.5t7 25.5z" />
    <glyph glyph-name="delta" unicode="&#x3b4;" horiz-adv-x="560" 
d="M33 188q0 40 13.5 75.5t36.5 66.5q23 30 54 55.5t67 45.5q-42 35 -55.5 67.5t-13.5 63.5q0 23 9.5 44.5t29.5 38.5q19 16 49 25.5t71 9.5q58 0 101 -16t72 -39l-60 -96q-21 17 -48 32t-62 15q-13 0 -21 -5t-8 -19t6 -26.5t16 -23.5q9 -11 21 -20t23 -16q54 -34 91 -66.5
t60 -65.5t33 -68t10 -74q0 -56 -18 -102t-51 -80t-78.5 -52.5t-100.5 -18.5q-53 0 -98 15.5t-78 47.5q-33 31 -52 77.5t-19 108.5zM394 185q0 30 -6 52t-19 41q-14 19 -37 38t-56 43q-22 -12 -42 -28.5t-35 -37.5t-24 -47t-9 -57q0 -40 10.5 -67.5t27.5 -44.5
q16 -18 37.5 -25.5t43.5 -7.5q45 0 77 34.5t32 106.5z" />
    <glyph glyph-name="epsilon" unicode="&#x3b5;" horiz-adv-x="470" 
d="M447 79q-26 -72 -81.5 -105.5t-128.5 -33.5q-42 0 -80 9t-66 27q-29 19 -46 48.5t-17 70.5q0 19 7 41t21 42t36.5 35t52.5 21q-26 7 -44.5 20.5t-30.5 30.5q-12 16 -17.5 33t-5.5 31q0 39 17.5 66.5t45.5 45.5q28 17 62.5 24.5t68.5 7.5q63 0 112 -25.5t84 -85.5
l-105 -55q-44 63 -91 63q-33 0 -48 -9.5t-15 -29.5q0 -18 11.5 -30.5t30.5 -20.5t43.5 -11t50.5 -2v-108q-75 -2 -113.5 -19.5t-38.5 -62.5q0 -31 20 -41.5t55 -10.5q38 0 61 18t40 63z" />
    <glyph glyph-name="zeta" unicode="&#x3b6;" horiz-adv-x="460" 
d="M436 -89q0 -26 -9 -49t-26 -40q-18 -17 -45 -27.5t-63 -10.5q-15 0 -28 0.5t-26 3.5t-28.5 9t-34.5 16l36 99q22 -10 35 -14.5t29 -6.5q15 -2 25 1t12 20q2 16 -7 27.5t-23 18.5q-15 7 -31 11.5t-29 7.5q-88 23 -136.5 78.5t-52.5 145.5q-2 46 7 89t30 87q20 43 51.5 89
t75.5 97h-131v113h302v-96q-47 -41 -85.5 -85t-65.5 -91q-27 -48 -40.5 -98t-10.5 -102q3 -58 28.5 -88t76.5 -41q38 -8 68.5 -19.5t51.5 -30.5t32.5 -46.5t11.5 -67.5z" />
    <glyph glyph-name="eta" unicode="&#x3b7;" horiz-adv-x="600" 
d="M492 -40q0 -14 3.5 -20t17.5 -6q13 0 24 10.5t18 21.5l60 -71q-29 -36 -56.5 -52.5t-60.5 -16.5q-60 0 -97 29t-37 96v351q0 46 -24.5 63t-60.5 17q-26 0 -49.5 -15t-41.5 -49v-373h-132v531h132v-26q21 16 52.5 26.5t58.5 10.5q43 0 78.5 -12t61.5 -35q25 -24 39 -58
t14 -79v-343z" />
    <glyph glyph-name="theta" unicode="&#x3b8;" horiz-adv-x="580" 
d="M290 -60q-62 0 -109 25t-78 73q-32 47 -48 114.5t-16 153.5q0 178 62 277t189 99t189 -99t62 -277q0 -86 -16 -153.5t-47 -114.5q-32 -48 -79 -73t-109 -25zM290 573q-31 0 -52.5 -16t-35.5 -44q-15 -29 -22.5 -68t-10.5 -83h241q-3 44 -10.5 83t-21.5 68
q-14 28 -35.5 44t-52.5 16zM290 50q28 0 49.5 14.5t36.5 40.5q14 26 22.5 63t11.5 81h-240q3 -44 11.5 -81t23.5 -63q14 -26 35 -40.5t50 -14.5z" />
    <glyph glyph-name="iota" unicode="&#x3b9;" horiz-adv-x="280" 
d="M180 74q0 -29 16 -28q11 1 20.5 12t16.5 22l60 -71q-27 -36 -54.5 -52.5t-62.5 -16.5q-60 0 -92 29t-32 96v411h128v-402z" />
    <glyph glyph-name="kappa" unicode="&#x3ba;" horiz-adv-x="482" 
d="M484 -48h-144l-146 221l-8 -9v-212h-130v524h130v-151l142 150h157l-209 -216z" />
    <glyph glyph-name="lambda" unicode="&#x3bb;" horiz-adv-x="629" 
d="M142 -67l-117 44l193 462l-23 72q-10 30 -21.5 39t-25.5 11q-7 1 -16 -0.5t-29 -6.5l-28 117q17 4 28.5 6.5t21.5 4.5q9 1 17 1t19 -1q51 -3 92 -33t62 -96l143 -441q8 -23 16.5 -39t16.5 -16t15.5 7.5t17.5 40.5l114 -44q-12 -34 -26 -57t-31 -38q-18 -14 -40.5 -20
t-51.5 -6q-58 0 -96.5 36.5t-58.5 102.5l-58 178z" />
    <glyph glyph-name="uni03BC" unicode="&#x3bc;" horiz-adv-x="540" 
d="M492 476v-345q0 -42 -12.5 -76.5t-36.5 -60.5q-25 -25 -61 -39t-82 -14q-35 0 -59.5 7.5t-50.5 24.5v-220h-134v723h134v-364q18 -32 38 -49t56 -17q74 0 74 84v346h134z" />
    <glyph glyph-name="nu" unicode="&#x3bd;" horiz-adv-x="500" 
d="M225 -48l-140 388q-5 13 -14 21t-20 12q-12 3 -24 4t-24 1v109q73 5 122.5 -18t72.5 -90l78 -226l98 323h132l-178 -524h-103z" />
    <glyph glyph-name="xi" unicode="&#x3be;" horiz-adv-x="460" 
d="M151 470q0 29 11 50.5t32 42.5h-127v113h302l-2 -98q-37 -20 -60.5 -43.5t-23.5 -61.5q0 -26 16 -44.5t41 -30.5v-97q-32 -7 -57.5 -23t-43.5 -36q-18 -21 -28 -44.5t-10 -45.5q1 -26 17 -47t54 -30q36 -9 66.5 -20.5t52.5 -29.5q21 -19 33 -46.5t12 -67.5
q0 -26 -8.5 -49t-26.5 -40t-45 -27.5t-63 -10.5q-30 0 -55.5 5t-62.5 24l37 100q21 -11 35 -15.5t29 -6.5q12 -2 21 1.5t13 19.5q4 14 -4 25t-21 19q-14 8 -30.5 13t-31.5 8q-66 15 -103.5 56.5t-37.5 110.5q0 66 35.5 118t110.5 94q-37 21 -57 49.5t-20 64.5z" />
    <glyph glyph-name="omicron" unicode="&#x3bf;" horiz-adv-x="550" 
d="M275 -67q-54 0 -101.5 18t-81.5 54q-35 35 -55 86.5t-20 118.5q0 70 19.5 123t54.5 89q34 36 81 54t103 18q55 0 102.5 -18t82.5 -54q34 -36 53.5 -89t19.5 -123q0 -67 -20 -118.5t-54 -86.5q-35 -36 -82.5 -54t-101.5 -18zM275 390q-33 0 -56.5 -14t-38.5 -38
q-15 -25 -22.5 -58t-7.5 -70q0 -85 35 -129t90 -44t90 44t35 129q0 37 -7.5 70t-22.5 58q-15 24 -38.5 38t-56.5 14z" />
    <glyph glyph-name="pi" unicode="&#x3c0;" horiz-adv-x="620" 
d="M476 77q0 -18 2 -25.5t6 -7.5q8 0 17 5.5t26 28.5l59 -70q-27 -35 -56 -51.5t-61 -16.5q-61 0 -93.5 30t-32.5 97v298h-75v-190q0 -63 -8.5 -106.5t-32.5 -71.5q-25 -28 -69.5 -40.5t-115.5 -12.5v111q32 0 50.5 4.5t28.5 18.5q9 13 11.5 38t2.5 67v182h-96v110h534v-110
h-97v-288z" />
    <glyph glyph-name="rho" unicode="&#x3c1;" horiz-adv-x="570" 
d="M56 194q0 91 22.5 148t57.5 89q34 32 75.5 44t80.5 12q55 0 101.5 -17.5t80.5 -51.5q33 -35 51.5 -88t18.5 -123q0 -62 -16.5 -111.5t-45.5 -83.5q-30 -35 -70 -53.5t-87 -18.5q-48 0 -79.5 11.5t-58.5 36.5v-235h-131v441zM187 173q0 -26 7.5 -49t21.5 -40
q14 -18 34 -28.5t45 -10.5q31 0 53 13t35 35t19 52t6 65q1 79 -25 125.5t-90 46.5q-106 0 -106 -163v-46z" />
    <glyph glyph-name="sigma" unicode="&#x3c3;" horiz-adv-x="570" 
d="M563 409q-31 -5 -53 -6.5t-48 -0.5q29 -36 44.5 -82.5t15.5 -109.5q0 -67 -19 -117.5t-52 -84.5t-78.5 -51t-97.5 -17q-53 0 -98 17t-78 51t-52 84.5t-19 117.5q0 70 18.5 122t51.5 87q32 34 77.5 51t99.5 17q32 0 62.5 1.5t62.5 4.5t67.5 8t77.5 13zM275 383
q-33 0 -54.5 -13t-34.5 -36q-13 -24 -18.5 -55.5t-5.5 -68.5q0 -85 29 -125.5t84 -40.5t84 40.5t29 125.5q0 37 -5.5 68.5t-18.5 55.5q-13 23 -34.5 36t-54.5 13z" />
    <glyph glyph-name="tau" unicode="&#x3c4;" horiz-adv-x="530" 
d="M325 74q0 -29 16 -28q11 1 20.5 12t16.5 22l60 -71q-27 -36 -54.5 -52.5t-62.5 -16.5q-60 0 -92 29t-32 96v298h-185v113h506v-113h-193v-289z" />
    <glyph glyph-name="upsilon" unicode="&#x3c5;" horiz-adv-x="555" 
d="M437 490q32 -72 53 -148.5t21 -154.5q0 -52 -13 -97t-40 -78q-28 -34 -72 -53.5t-107 -19.5q-47 0 -87.5 14t-70.5 41q-30 28 -47 69.5t-17 96.5v316h130v-310q0 -58 23 -85t65 -27q33 0 53.5 9.5t32.5 26.5q11 17 15.5 41t4.5 53q0 35 -7 73t-17 75q-11 37 -23.5 71
t-23.5 61z" />
    <glyph glyph-name="phi" unicode="&#x3c6;" horiz-adv-x="550" 
d="M337 480q41 -9 75 -30.5t59 -55.5q24 -34 37.5 -80t13.5 -104q0 -55 -14 -99.5t-38 -77.5q-25 -34 -59 -55.5t-74 -30.5v-113h-123v113q-41 9 -75 30.5t-58 54.5q-25 33 -39 77.5t-14 100.5q0 58 13.5 104t38.5 80q24 34 58.5 55.5t75.5 30.5v113h123v-113zM155 210
q0 -55 15.5 -93t43.5 -58v308q-31 -22 -45 -64t-14 -93zM395 210q0 51 -14 92.5t-44 63.5v-306q27 20 42.5 57.5t15.5 92.5z" />
    <glyph glyph-name="chi" unicode="&#x3c7;" horiz-adv-x="550" 
d="M-17 482h149l142 -242l143 243h149l-218 -370l217 -369h-148l-144 244l-143 -244h-148l217 369z" />
    <glyph glyph-name="psi" unicode="&#x3c8;" horiz-adv-x="680" 
d="M408 73q40 15 63.5 52t23.5 103v248h136v-235q0 -68 -17 -118.5t-46 -84.5q-30 -35 -71 -55t-89 -28v-203h-136v202q-48 8 -89 28t-70 55q-30 34 -46.5 84.5t-16.5 119.5v235h136v-248q0 -66 22 -103t64 -52v403h136v-403z" />
    <glyph glyph-name="omega" unicode="&#x3c9;" horiz-adv-x="720" 
d="M485 -59q-30 0 -62.5 13t-61.5 37q-27 -24 -60.5 -37.5t-66.5 -13.5q-55 0 -93.5 19t-62.5 51q-25 32 -36 75.5t-11 91.5t5.5 89.5t18.5 78.5t35.5 72t55.5 70l101 -65q-49 -50 -66.5 -109.5t-17.5 -134.5q0 -23 2 -44.5t10 -37.5q7 -17 21.5 -27.5t38.5 -10.5
q23 0 42.5 17t19.5 40v186h125v-186q0 -23 19.5 -39.5t42.5 -16.5q24 0 38.5 10t21.5 27t9 38t2 44q0 75 -18.5 133.5t-67.5 108.5l101 66q33 -35 55.5 -69.5t36.5 -71.5q13 -38 19 -79t6 -89t-11 -91t-35 -75q-24 -33 -62.5 -51.5t-93.5 -18.5z" />
    <glyph glyph-name="uni0401" unicode="&#x401;" horiz-adv-x="560" 
d="M203 65h315v-113h-451v664h435v-113h-299v-151h283v-113h-283v-174zM115 652v131h131v-131h-131zM323 652v131h131v-131h-131z" />
    <glyph glyph-name="uni0410" unicode="&#x410;" horiz-adv-x="600" 
d="M368 684l239 -739h-139l-55 181h-230l-51 -181h-139l238 739h137zM383 231l-84 257l-82 -257h166z" />
    <glyph glyph-name="uni0411" unicode="&#x411;" horiz-adv-x="570" 
d="M287 65q26 0 47 4.5t36 16.5q14 11 21.5 31t7.5 50q0 53 -33 74t-89 21h-74v-197h84zM259 375q90 0 144 -20t83 -51t39 -68t10 -71q0 -113 -61 -163t-169 -50h-238v725h425v-113h-289v-189h56z" />
    <glyph glyph-name="uni0412" unicode="&#x412;" horiz-adv-x="570" 
d="M275 683q115 0 176.5 -46.5t61.5 -146.5q0 -50 -15.5 -87.5t-64.5 -66.5q60 -24 86.5 -69t26.5 -102q0 -115 -59 -167.5t-177 -52.5h-253v738h218zM297 58q53 0 83 23.5t30 85.5q0 54 -34.5 78t-88.5 24h-94v-211h104zM264 382q51 0 82 24.5t31 81.5q0 24 -8 39.5
t-22 25.5q-14 9 -33 13t-41 4h-80v-188h71z" />
    <glyph glyph-name="uni0413" unicode="&#x413;" horiz-adv-x="530" 
d="M503 564h-300v-612h-136v725h436v-113z" />
    <glyph glyph-name="uni0414" unicode="&#x414;" horiz-adv-x="720" 
d="M540 -26h-361v-125h-136v184q100 109 151.5 230.5t51.5 258.5v156h372v-590l58 -1v-238h-136v125zM374 565v-51q0 -109 -32 -220.5t-98 -205.5l238 -1v478h-108z" />
    <glyph glyph-name="uni0415" unicode="&#x415;" horiz-adv-x="560" 
d="M193 58h336v-113h-472v738h456v-113h-320v-188h304v-113h-304v-211z" />
    <glyph glyph-name="uni0416" unicode="&#x416;" horiz-adv-x="940" 
d="M879 -47q-135 0 -216.5 78t-93.5 226h-34v-304h-133v304h-31q-13 -148 -94 -226t-216 -78h-15v110h15q92 0 136 64.5t44 178.5q0 57 -10.5 105t-31.5 83q-22 35 -56 54.5t-82 19.5h-21v109h21q134 0 214 -80.5t95 -226.5h32v307h133v-307h35q7 72 31.5 129t64.5 97
q39 39 93 60t120 21h21v-109h-21q-48 0 -82 -19.5t-55 -54.5q-22 -35 -32.5 -83t-10.5 -105q0 -114 44 -178.5t136 -64.5h15v-110h-15z" />
    <glyph glyph-name="uni0417" unicode="&#x417;" horiz-adv-x="540" 
d="M501 170q0 -50 -17 -89.5t-47 -67.5q-31 -29 -73.5 -44t-93.5 -15q-52 0 -94.5 14.5t-72.5 43.5q-30 28 -46.5 69t-16.5 95v21h134q0 -64 22.5 -97t70.5 -33q54 0 75 25.5t21 80.5q0 29 -12.5 55t-43.5 37q-17 6 -39.5 9t-66.5 3v115q51 0 76 2.5t43 14.5q14 9 20.5 29
t6.5 47q0 77 -73 77q-46 0 -64.5 -28t-20.5 -92h-130q0 114 56.5 173.5t159.5 59.5q46 0 83.5 -12t64.5 -36t41.5 -59.5t14.5 -81.5t-15.5 -81.5t-50.5 -62.5q45 -29 66.5 -73.5t21.5 -98.5z" />
    <glyph glyph-name="uni0418" unicode="&#x418;" horiz-adv-x="665" 
d="M188 683v-522l259 522h164v-738h-131v541l-262 -541h-161v738h131z" />
    <glyph glyph-name="uni0419" unicode="&#x419;" horiz-adv-x="665" 
d="M198 616v-467l242 467h160v-663h-131v472l-247 -472h-155v663h131zM477 775q-3 -38 -15.5 -63.5t-30.5 -40.5q-19 -15 -42 -21.5t-47 -6.5q-55 0 -92 31t-43 101h109q2 -28 8.5 -36.5t17.5 -8.5t18 8.5t8 36.5h109z" />
    <glyph glyph-name="uni041A" unicode="&#x41a;" horiz-adv-x="593" 
d="M425 675h162l-286 -310l299 -412h-159l-228 317l-10 -12v-305h-136v723h136v-240z" />
    <glyph glyph-name="uni041B" unicode="&#x41b;" horiz-adv-x="690" 
d="M621 -61h-136v625h-215v-414q0 -46 -13 -83t-43 -64q-30 -28 -78.5 -44.5t-118.5 -21.5l-11 105q63 8 96.5 30.5t33.5 77.5v527h485v-738z" />
    <glyph glyph-name="uni041C" unicode="&#x41c;" horiz-adv-x="780" 
d="M191 -55h-134v741h167l166 -556l166 556h167v-741h-134v440l-126 -440h-146l-126 440v-440z" />
    <glyph glyph-name="uni041D" unicode="&#x41d;" horiz-adv-x="660" 
d="M465 -55v324h-272v-324h-136v738h136v-301h272v301h136v-738h-136z" />
    <glyph glyph-name="uni041E" unicode="&#x41e;" horiz-adv-x="700" 
d="M350 -67q-71 0 -130 25.5t-102 73.5t-66.5 117t-23.5 157q0 91 23.5 162.5t65.5 120.5t101.5 74.5t131.5 25.5t131.5 -25.5t101.5 -74.5t65.5 -120.5t23.5 -162.5q0 -88 -23.5 -157t-66.5 -117t-102 -73.5t-130 -25.5zM350 580q-48 0 -83 -21.5t-58 -58.5t-34 -87
t-11 -107t12 -105t36 -83q23 -36 57.5 -55.5t80.5 -19.5t80.5 19.5t58.5 55.5q23 35 35 83t12 105t-11 107t-34 87t-58 58.5t-83 21.5z" />
    <glyph glyph-name="uni041F" unicode="&#x41f;" horiz-adv-x="660" 
d="M67 677h524v-724h-136v611h-254v-612h-134v725z" />
    <glyph glyph-name="uni0420" unicode="&#x420;" horiz-adv-x="557" 
d="M300 683q118 0 176.5 -58.5t58.5 -170.5q0 -109 -58.5 -169.5t-176.5 -60.5h-107v-279h-136v738h243zM296 337q49 0 77 27.5t28 87.5t-28 89t-77 29h-103v-233h103z" />
    <glyph glyph-name="uni0421" unicode="&#x421;" horiz-adv-x="600" 
d="M24 311q0 75 19.5 143.5t61.5 121.5q41 52 106 83.5t155 31.5q117 0 213 -73l-71 -96q-33 26 -67 41t-76 15q-54 0 -92.5 -22t-63.5 -59t-37 -85.5t-12 -100.5q0 -50 12 -97.5t37 -84.5t63.5 -59.5t92.5 -22.5q43 0 81 14.5t76 48.5l73 -86q-48 -48 -105.5 -69
t-123.5 -21q-90 0 -155 32t-106 85q-42 52 -61.5 120t-19.5 140z" />
    <glyph glyph-name="uni0422" unicode="&#x422;" horiz-adv-x="530" 
d="M0 683h529v-113h-200v-625h-136v625h-193v113z" />
    <glyph glyph-name="uni0423" unicode="&#x423;" horiz-adv-x="500" 
d="M291 56q-20 -64 -61 -90t-98 -26q-23 0 -42 2t-49 13l21 103q25 -7 35 -8t21 -1q19 0 31 10t21 38l31 97l-189 482h136l112 -300l97 301h134z" />
    <glyph glyph-name="uni0424" unicode="&#x424;" horiz-adv-x="640" 
d="M384 569q46 -9 85 -31.5t68 -55.5q28 -34 43.5 -78.5t15.5 -97.5q0 -54 -15.5 -98t-43.5 -77q-29 -34 -68 -56t-85 -31v-94h-129v94q-47 9 -85.5 31t-66.5 56q-29 33 -44.5 77.5t-15.5 97.5t15.5 97t43.5 78t67 56t86 31v111h129v-110zM468 306q0 54 -22 92.5t-62 56.5
v-298q40 18 62 56.5t22 92.5zM171 307q0 -54 22.5 -93t61.5 -57v298q-39 -18 -61.5 -56t-22.5 -92z" />
    <glyph glyph-name="uni0425" unicode="&#x425;" horiz-adv-x="590" 
d="M-17 683h150l162 -256l162 256h150l-238 -369l238 -369h-149l-163 257l-161 -257h-150l238 369z" />
    <glyph glyph-name="uni0426" unicode="&#x426;" horiz-adv-x="660" 
d="M636 64v-215h-136v103h-433v724h136v-612l252 1v611h136v-612h45z" />
    <glyph glyph-name="uni0427" unicode="&#x427;" horiz-adv-x="564" 
d="M191 329q0 -42 13 -64.5t52 -22.5q45 0 75 25t48 61v348h134v-724h-134v234q-61 -49 -133 -49q-49 0 -84.5 14.5t-58.5 40.5q-24 26 -35 61t-11 77v346h134v-347z" />
    <glyph glyph-name="uni0428" unicode="&#x428;" horiz-adv-x="880" 
d="M62 -48v724h136v-611h172v611h136v-611h172v611h136v-724h-752z" />
    <glyph glyph-name="uni0429" unicode="&#x429;" horiz-adv-x="880" 
d="M856 64v-215h-136v103h-658v724h136v-612l172 1v611h136v-612l172 1v611h136v-612h42z" />
    <glyph glyph-name="uni042A" unicode="&#x42a;" horiz-adv-x="620" 
d="M256 677v-304h56q90 0 144 -20t83 -50t39 -67t10 -71q0 -113 -61 -163t-169 -50h-238v612h-110v113h246zM340 65q26 0 47 4.5t36 16.5q14 11 21.5 31t7.5 50q0 53 -33 73t-89 20h-74v-195h84z" />
    <glyph glyph-name="uni042B" unicode="&#x42b;" horiz-adv-x="780" 
d="M727 677v-724h-136v724h136zM203 677v-304h56q90 0 144 -20t83 -50t39 -67t10 -71q0 -113 -61 -163t-169 -50h-238v725h136zM287 65q26 0 47 4.5t36 16.5q14 11 21.5 31t7.5 50q0 53 -33 73t-89 20h-74v-195h84z" />
    <glyph glyph-name="uni042C" unicode="&#x42c;" horiz-adv-x="570" 
d="M203 677v-304h56q90 0 144 -20t83 -50t39 -67t10 -71q0 -113 -61 -163t-169 -50h-238v725h136zM287 65q26 0 47 4.5t36 16.5q14 11 21.5 31t7.5 50q0 53 -33 73t-89 20h-74v-195h84z" />
    <glyph glyph-name="uni042D" unicode="&#x42d;" horiz-adv-x="600" 
d="M581 311q0 -72 -18 -139t-58 -119t-102.5 -83t-152.5 -31q-66 0 -118.5 19t-100.5 67l75 89q38 -35 70.5 -48.5t74.5 -13.5q46 0 79.5 16t56.5 45q23 28 36 66t18 80h-326v113h325q-5 41 -18 77t-36 63t-56.5 42.5t-78.5 15.5q-42 0 -70 -13.5t-61 -39.5l-71 98
q47 36 94 52t107 16q90 0 152.5 -30t102.5 -81t58 -118.5t18 -142.5z" />
    <glyph glyph-name="uni042E" unicode="&#x42e;" 
d="M263 382q9 70 34.5 126t65.5 95q39 38 91.5 58.5t115.5 20.5q71 0 128.5 -25.5t98.5 -73.5q40 -49 62 -119t22 -158q0 -85 -22.5 -153t-62.5 -115q-41 -47 -98.5 -72.5t-127.5 -25.5q-66 0 -121 22.5t-95 65.5q-41 42 -65 103t-29 138h-62v-316h-136v723h136v-294h65z
M570 575q-47 0 -80.5 -21t-54.5 -58q-22 -37 -32 -86t-10 -104q0 -56 11 -103t33 -81q22 -35 55 -54.5t78 -19.5t78 19.5t55 54.5q22 34 33 81t11 103q0 55 -10 104t-31 86q-22 37 -55.5 58t-80.5 21z" />
    <glyph glyph-name="uni042F" unicode="&#x42f;" horiz-adv-x="570" 
d="M505 -58h-136v299h-42l-187 -291h-146l192 301q-139 34 -139 208q0 218 226 218h232v-735zM369 564h-92q-49 0 -72.5 -23.5t-23.5 -83.5t23.5 -81.5t72.5 -21.5h92v210z" />
    <glyph glyph-name="uni0430" unicode="&#x430;" horiz-adv-x="484" 
d="M309 296q0 13 -3 29t-12 31q-9 14 -26.5 23.5t-46.5 9.5q-26 0 -62 -16t-71 -44l-45 97q38 30 86 49t106 19q63 0 103.5 -19t63.5 -50q23 -32 32 -72t9 -81v-327h-131v31q-24 -20 -61 -31.5t-72 -11.5q-44 0 -75 13.5t-50 35.5q-20 23 -29 52t-9 60q0 91 69 144t199 53
h25v5zM306 107q3 12 3 26v58q-9 1 -17 1.5t-15 0.5q-23 0 -45.5 -5t-40.5 -16t-28.5 -27.5t-10.5 -39.5q0 -35 13 -51t36 -16q20 0 37.5 6t31.5 16q13 9 22.5 21.5t13.5 25.5z" />
    <glyph glyph-name="uni0431" unicode="&#x431;" horiz-adv-x="550" 
d="M275 -60q-54 0 -99.5 18t-78.5 53q-33 34 -51.5 84.5t-18.5 116.5q0 84 22.5 162t72.5 138q49 60 128 97.5t193 40.5l11 -113q-55 2 -107.5 -8t-98.5 -42q30 8 55 5q49 -5 89.5 -25.5t69.5 -55.5q29 -36 45 -86.5t16 -114.5q0 -66 -18.5 -116t-51.5 -84
q-33 -35 -78.5 -52.5t-99.5 -17.5zM275 391q-32 0 -54 -14.5t-35 -38.5q-14 -25 -20 -57.5t-6 -68.5q0 -82 30.5 -126t84.5 -44t84.5 43t30.5 125q0 36 -6 69t-19 58q-14 25 -36 39.5t-54 14.5z" />
    <glyph glyph-name="uni0432" unicode="&#x432;" horiz-adv-x="480" 
d="M258 477q88 0 136 -32.5t48 -109.5q0 -31 -9.5 -56.5t-32.5 -46.5q65 -40 65 -121q0 -86 -47 -122.5t-136 -36.5h-225v525h201zM273 58q29 0 46 12t17 43q0 29 -19.5 42.5t-51.5 13.5h-79v-111h87zM250 274q33 0 48.5 12t15.5 43q0 24 -17 33t-42 9h-69v-97h64z" />
    <glyph glyph-name="uni0433" unicode="&#x433;" horiz-adv-x="470" 
d="M443 364h-250v-411h-136v524h386v-113z" />
    <glyph glyph-name="uni0434" unicode="&#x434;" horiz-adv-x="620" 
d="M589 30v-205h-136v117h-288v-117h-136v164q89 84 126.5 190t37.5 239v57h353v-445h43zM316 362v-9q0 -34 -6.5 -73.5t-17.5 -79.5q-11 -41 -25.5 -79t-31.5 -69h183v310h-102z" />
    <glyph glyph-name="uni0435" unicode="&#x435;" horiz-adv-x="510" 
d="M261 389q-28 0 -47.5 -10t-32.5 -26t-20 -34.5t-10 -36.5h214q-4 17 -11.5 36t-19.5 35q-12 15 -30 25.5t-43 10.5zM486 9q-27 -22 -55.5 -36t-56.5 -23q-28 -8 -54 -11.5t-46 -3.5q-53 0 -99 17.5t-80 53.5q-35 35 -55 87.5t-20 121.5q0 61 16.5 112.5t47.5 88.5
q30 37 75 57.5t102 20.5q67 0 113 -25.5t74 -68.5q27 -44 37.5 -102t6.5 -123h-343q3 -36 14.5 -61.5t29.5 -41.5q17 -16 40 -23t49 -7q35 0 74 12.5t88 41.5z" />
    <glyph glyph-name="uni0436" unicode="&#x436;" horiz-adv-x="740" 
d="M703 -60q-109 0 -172.5 57t-76.5 160h-23v-207h-123v207h-23q-14 -103 -77.5 -160t-171.5 -57v104q133 0 133 166q0 37 -6.5 69t-22.5 55t-41.5 36.5t-62.5 13.5v104q109 0 172.5 -57t76.5 -166h23v215h123v-215h23q13 109 75.5 166t173.5 57v-104q-38 0 -63 -13.5
t-41 -36.5t-22.5 -55t-6.5 -69q0 -166 133 -166v-104z" />
    <glyph glyph-name="uni0437" unicode="&#x437;" horiz-adv-x="460" 
d="M433 107q0 -45 -18 -77.5t-47 -52.5t-66 -29.5t-75 -9.5q-44 0 -82 10t-65 32q-28 23 -44 59t-16 89h128q0 -48 22 -69t58 -21q31 0 52.5 16t21.5 55q0 38 -28 53.5t-67 15.5h-29v95h30q12 0 26 3t26 11q11 7 18.5 18.5t7.5 28.5q0 28 -15 40t-40 12q-34 0 -50 -20.5
t-18 -68.5h-123q0 50 15.5 86t42.5 59q26 23 61 34t73 11q36 0 69.5 -8.5t59.5 -26.5q25 -19 40 -48t15 -70q0 -30 -13.5 -56t-36.5 -45q35 -19 51 -51.5t16 -74.5z" />
    <glyph glyph-name="uni0438" unicode="&#x438;" horiz-adv-x="520" 
d="M176 483v-324l151 324h154v-538h-129l2 329l-154 -329h-153v538h129z" />
    <glyph glyph-name="uni0439" unicode="&#x439;" horiz-adv-x="520" 
d="M176 483v-324l151 324h154v-538h-129l2 329l-154 -329h-153v538h129zM415 663q-6 -66 -40 -107t-106 -41q-63 0 -101 38t-44 110h113q4 -59 32 -59q29 0 30 59h116z" />
    <glyph glyph-name="uni043A" unicode="&#x43a;" horiz-adv-x="480" 
d="M320 476h167l-231 -223l227 -299h-154l-155 206v-215h-133v538h133v-148z" />
    <glyph glyph-name="uni043B" unicode="&#x43b;" horiz-adv-x="580" 
d="M523 -47h-134v411h-118v-210q0 -46 -13 -83t-43 -64q-30 -28 -78.5 -44.5t-118.5 -21.5l-11 105q63 8 96.5 30.5t33.5 77.5v323h386v-524z" />
    <glyph glyph-name="uni043C" unicode="&#x43c;" horiz-adv-x="580" 
d="M414 184l-71 -231h-102l-70 232v-232h-114v524h127l107 -352l109 352h127v-524h-113v231z" />
    <glyph glyph-name="uni043D" unicode="&#x43d;" horiz-adv-x="550" 
d="M365 280v197h134v-524h-134v214h-174v-214h-134v524h134v-197h174z" />
    <glyph glyph-name="uni043E" unicode="&#x43e;" horiz-adv-x="550" 
d="M275 -67q-53 0 -100 18t-82 54q-35 35 -55.5 86.5t-20.5 118.5q0 70 20 123t55 89q34 36 81 54t102 18t102 -18t82 -54q34 -36 54 -89t20 -123q0 -67 -20.5 -118.5t-55.5 -86.5q-35 -36 -82 -54t-100 -18zM275 390q-33 0 -56.5 -14t-38.5 -38q-15 -25 -22 -58t-7 -70
q0 -85 34.5 -129t89.5 -44t89.5 44t34.5 129q0 37 -7 70t-22 58q-15 24 -38.5 38t-56.5 14z" />
    <glyph glyph-name="uni043F" unicode="&#x43f;" horiz-adv-x="550" 
d="M365 -47v411h-175v-411h-134v524h443v-524h-134z" />
    <glyph glyph-name="uni0440" unicode="&#x440;" horiz-adv-x="570" 
d="M171 449q28 26 65 35.5t75 9.5q46 0 89.5 -17.5t78.5 -53.5q34 -36 55.5 -90t21.5 -126q0 -62 -17.5 -112.5t-47.5 -86.5q-31 -36 -73 -55.5t-93 -19.5q-45 0 -81.5 11t-63.5 34v-232h-134v737h125v-34zM177 173q0 -26 9 -50t25 -43q15 -19 36.5 -30.5t47.5 -11.5
q33 0 56.5 14t38.5 38q15 23 22.5 54t7.5 66q1 81 -31.5 130t-95.5 49q-26 0 -47.5 -10.5t-36.5 -27.5q-15 -18 -23.5 -40.5t-8.5 -47.5v-90z" />
    <glyph glyph-name="uni0441" unicode="&#x441;" horiz-adv-x="460" 
d="M452 -30q-20 -10 -63.5 -23.5t-100.5 -13.5q-63 0 -113 20.5t-84 57.5q-35 37 -53.5 88.5t-18.5 113.5q0 64 20 115.5t57 88.5q36 37 89 57t119 20q45 0 82 -11t63 -27l-29 -105q-26 14 -54.5 23.5t-61.5 9.5q-74 0 -111.5 -46.5t-37.5 -119.5q0 -41 11.5 -73t31.5 -54
q20 -23 47.5 -35t59.5 -12t62.5 8.5t62.5 22.5z" />
    <glyph glyph-name="uni0442" unicode="&#x442;" horiz-adv-x="489" 
d="M10 476h471v-113h-172v-411h-136v411h-163v113z" />
    <glyph glyph-name="uni0443" unicode="&#x443;" horiz-adv-x="473" 
d="M34 -135q17 -4 28 -6t18 -3t12 -1h10q20 0 36.5 10.5t25.5 37.5l22 66l-203 515h131l130 -346l111 345h132l-208 -621q-20 -61 -63 -88.5t-100 -27.5q-23 0 -46.5 4.5t-52.5 14.5z" />
    <glyph glyph-name="uni0444" unicode="&#x444;" horiz-adv-x="550" 
d="M337 481q85 -18 135 -86t50 -185q0 -55 -13.5 -99.5t-38.5 -77.5q-25 -34 -59 -55.5t-74 -30.5v-178h-124v178q-41 9 -75 30.5t-59 55.5q-25 33 -38.5 77.5t-13.5 99.5q0 116 51 184.5t135 86.5v199h124v-199zM395 210q0 51 -14 94t-44 66v-312q27 20 42.5 59t15.5 93z
M155 210q0 -54 15.5 -93t42.5 -59v312q-30 -23 -44 -66t-14 -94z" />
    <glyph glyph-name="uni0445" unicode="&#x445;" horiz-adv-x="468" 
d="M115 -55h-146l193 271l-189 267h146l116 -164l116 164h146l-189 -267l192 -271h-146l-119 168z" />
    <glyph glyph-name="uni0446" unicode="&#x446;" horiz-adv-x="570" 
d="M542 37v-215h-136v131h-350v524h134v-411h175v411h134v-440h43z" />
    <glyph glyph-name="uni0447" unicode="&#x447;" horiz-adv-x="564" 
d="M191 129q0 -42 13 -64.5t52 -22.5q45 0 75 25t48 61v348h134v-724h-134v234q-61 -49 -133 -49q-49 0 -84.5 14.5t-58.5 40.5q-24 26 -35 61t-11 77v346h134v-347z" />
    <glyph glyph-name="uni0448" unicode="&#x448;" horiz-adv-x="655" 
d="M58 -48v525h134v-412h70v412h134v-412h70v412h134v-525h-542z" />
    <glyph glyph-name="uni0449" unicode="&#x449;" horiz-adv-x="670" 
d="M642 39v-215h-136v128h-448v525h134v-412h70v412h134v-412h70v412h134v-438h42z" />
    <glyph glyph-name="uni044A" unicode="&#x44a;" horiz-adv-x="520" 
d="M293 265q105 0 151 -35.5t46 -118.5q0 -86 -44.5 -122.5t-133.5 -36.5h-220v412h-81v113h215v-212h67zM301 60q29 0 43.5 9t14.5 44q0 28 -17 36.5t-49 8.5h-67v-98h75z" />
    <glyph glyph-name="uni044B" unicode="&#x44b;" horiz-adv-x="640" 
d="M596 480v-530h-134v530h134zM242 265q104 0 148 -37.5t44 -116.5q0 -86 -42 -122.5t-131 -36.5h-205v525h134v-212h52zM250 60q29 0 41 11t12 42q0 24 -14.5 34.5t-46.5 10.5h-52v-98h60z" />
    <glyph glyph-name="uni044C" unicode="&#x44c;" horiz-adv-x="480" 
d="M257 265q105 0 151 -35.5t46 -118.5q0 -86 -44.5 -122.5t-133.5 -36.5h-220v525h134v-212h67zM265 60q29 0 43.5 9t14.5 44q0 28 -17 36.5t-49 8.5h-67v-98h75z" />
    <glyph glyph-name="uni044D" unicode="&#x44d;" horiz-adv-x="460" 
d="M51 79q30 -12 55.5 -20.5t57.5 -8.5q51 0 85 27t46 81h-187v113h188q-9 50 -40 79t-91 29q-34 0 -57 -7t-49 -21l-31 103q26 16 59 25.5t78 9.5q67 0 118.5 -19t86.5 -55q34 -36 51.5 -87t17.5 -115q0 -129 -66.5 -201.5t-191.5 -72.5q-57 0 -93 11t-60 23z" />
    <glyph glyph-name="uni044E" unicode="&#x44e;" horiz-adv-x="745" 
d="M465 -60q-48 0 -90.5 15t-75.5 44t-54.5 71t-27.5 97h-35v-215h-131v525h131v-198h39q18 103 84 156t160 53q54 0 99.5 -18t79.5 -53q33 -35 51.5 -87t18.5 -120q0 -65 -19 -115t-52 -84q-34 -35 -79.5 -53t-98.5 -18zM465 387q-32 0 -54 -14t-36 -38q-15 -25 -21.5 -57
t-6.5 -68q0 -81 32 -125t86 -44t85.5 44t31.5 125q0 36 -6.5 68t-20.5 57q-14 24 -36.5 38t-53.5 14z" />
    <glyph glyph-name="uni044F" unicode="&#x44f;" horiz-adv-x="430" 
d="M377 -48h-124v198l-124 -196h-135l133 209q-91 31 -91 151q0 85 43 124t128 39h170v-525zM253 371h-43q-19 0 -35 -12.5t-16 -45.5t16 -44t35 -11h43v113z" />
    <glyph glyph-name="uni0451" unicode="&#x451;" horiz-adv-x="510" 
d="M86 532v131h139v-131h-139zM294 532v131h139v-131h-139zM261 389q-28 0 -47.5 -10t-32.5 -26t-20 -34.5t-10 -36.5h214q-4 17 -11.5 36t-19.5 35q-12 15 -30 25.5t-43 10.5zM486 9q-27 -22 -55.5 -36t-56.5 -23q-28 -8 -54 -11.5t-46 -3.5q-53 0 -99 17.5t-80 53.5
q-35 35 -55 87.5t-20 121.5q0 61 16.5 112.5t47.5 88.5q30 37 75 57.5t102 20.5q67 0 113 -25.5t74 -68.5q27 -44 37.5 -102t6.5 -123h-343q3 -36 14.5 -61.5t29.5 -41.5q17 -16 40 -23t49 -7q35 0 74 12.5t88 41.5z" />
    <glyph glyph-name="quoteleft" unicode="&#x2018;" horiz-adv-x="320" 
d="M248 525h-110l-66 263h140z" />
    <glyph glyph-name="quoteright" unicode="&#x2019;" horiz-adv-x="320" 
d="M72 788h110l66 -263h-140z" />
    <glyph glyph-name="quotedblleft" unicode="&#x201c;" horiz-adv-x="440" 
d="M235 788h140l17 -263h-110zM224 525h-110l-66 263h140z" />
    <glyph glyph-name="quotedblright" unicode="&#x201d;" horiz-adv-x="440" 
d="M205 525h-141l-16 263h110zM215 788h110l67 -263h-141z" />
    <glyph glyph-name="dagger" unicode="&#x2020;" horiz-adv-x="640" 
d="M381 -80h-123v421h-184v107h184v224h123v-224h184v-107h-184v-421z" />
    <glyph glyph-name="daggerdbl" unicode="&#x2021;" horiz-adv-x="640" 
d="M258 435h-183v107h183v131h123v-131h184v-107h-184v-89h184v-107h-184v-320h-123v320h-183v107h183v89z" />
    <glyph glyph-name="twodotenleader" unicode="&#x2025;" horiz-adv-x="800" 
d="M158 231v141h141v-141h-141zM501 231v141h141v-141h-141z" />
    <glyph glyph-name="ellipsis" unicode="&#x2026;" horiz-adv-x="800" 
d="M61 231v141h141v-141h-141zM328 231v141h141v-141h-141zM596 231v141h141v-141h-141z" />
    <glyph glyph-name="perthousand" unicode="&#x2030;" horiz-adv-x="940" 
d="M158 279q-69 0 -98.5 46t-29.5 139q0 91 29.5 141.5t98.5 50.5t98.5 -50.5t29.5 -141.5q0 -93 -29.5 -139t-98.5 -46zM158 567q-13 0 -18.5 -27t-5.5 -76q0 -51 5.5 -73.5t19.5 -22.5q12 0 17.5 22.5t5.5 73.5q0 49 -5.5 76t-18.5 27zM510 677l-265 -724h-97l265 724h97z
M501 -23q-69 0 -98.5 46t-29.5 139q0 91 29.5 141.5t98.5 50.5t98.5 -50.5t29.5 -141.5q0 -93 -29.5 -139t-98.5 -46zM501 265q-13 0 -18.5 -27t-5.5 -76q0 -51 5.5 -73.5t19.5 -22.5q12 0 17.5 22.5t5.5 73.5q0 49 -5.5 76t-18.5 27zM781 -23q-69 0 -98.5 46t-29.5 139
q0 91 29.5 141.5t98.5 50.5t98.5 -50.5t29.5 -141.5q0 -93 -29.5 -139t-98.5 -46zM781 265q-13 0 -18.5 -27t-5.5 -76q0 -51 5.5 -73.5t19.5 -22.5q12 0 17.5 22.5t5.5 73.5q0 49 -5.5 76t-18.5 27z" />
    <glyph glyph-name="minute" unicode="&#x2032;" horiz-adv-x="340" 
d="M58 457l99 260h147l-151 -260h-95z" />
    <glyph glyph-name="second" unicode="&#x2033;" horiz-adv-x="540" 
d="M55 458l99 259h148l-153 -259h-94zM235 458l104 259h146l-156 -259h-94z" />
    <glyph glyph-name="uni203B" unicode="&#x203b;" horiz-adv-x="788" 
d="M327 292l-193 206l77 63l183 -196l182 196l77 -63l-192 -205l208 -223l-75 -62l-200 213l-200 -213l-74 62zM62 353h119v-119h-119v119zM607 353h119v-119h-119v119zM336 648h118v-119h-118v119zM336 40h118v-119h-118v119z" />
    <glyph glyph-name="uni2074" unicode="&#x2074;" horiz-adv-x="340" 
d="M29 537l157 260h82v-242h42v-83h-42v-66h-89v66h-150v65zM179 556v73l-42 -72z" />
    <glyph glyph-name="uni207F" unicode="&#x207f;" horiz-adv-x="400" 
d="M242 656q0 31 -10.5 42t-28.5 11q-19 0 -29.5 -12.5t-15.5 -28.5v-260h-111v379h106v-15q31 23 67 23q63 0 97.5 -35t34.5 -104v-248h-110v248z" />
    <glyph glyph-name="uni2081" unicode="&#x2081;" horiz-adv-x="340" 
d="M163 198h74v-388h-104v269l-28 -15l-41 80z" />
    <glyph glyph-name="uni2082" unicode="&#x2082;" horiz-adv-x="340" 
d="M42 -121q44 42 71.5 71.5t43.5 50.5t22 37.5t8 33.5q3 29 -26 29q-13 0 -29 -9t-44 -38l-54 78q37 35 67 49.5t69 14.5q31 0 54 -10t38 -26q15 -17 22.5 -39t7.5 -45q0 -22 -4.5 -42.5t-15.5 -42.5t-29 -45.5t-45 -50.5h105v-89h-261v73z" />
    <glyph glyph-name="uni2083" unicode="&#x2083;" horiz-adv-x="340" 
d="M78 -83q22 -14 40 -19.5t37 -5.5q26 0 35 9.5t9 22.5q0 20 -15.5 30.5t-38.5 10.5h-39v87h39q22 0 31 7.5t11 22.5q1 10 -6 17t-20 7q-15 0 -30.5 -4t-39.5 -22l-39 72q31 24 59 34.5t59 10.5t54 -9t38 -23q14 -15 21 -33.5t7 -36.5q0 -20 -10 -42.5t-30 -39.5
q24 -11 38.5 -36t14.5 -54q0 -23 -9 -44.5t-27 -39.5q-19 -17 -46.5 -27.5t-64.5 -10.5q-35 0 -62 8.5t-61 28.5z" />
    <glyph glyph-name="uni2084" unicode="&#x2084;" horiz-adv-x="340" 
d="M29 -63l157 260h82v-242h42v-83h-42v-66h-89v66h-150v65zM179 -44v73l-42 -72z" />
    <glyph glyph-name="uni2103" unicode="&#x2103;" horiz-adv-x="900" 
d="M154 554q-45 0 -76 27t-31 75t31 75t76 27t76 -27t31 -75t-31 -75t-76 -27zM154 691q-13 0 -23 -9t-10 -26t10 -26t23 -9t23 9t10 26t-10 26t-23 9zM209 285q0 82 28 150.5t77.5 117.5t117.5 76t148 27q66 0 116 -15.5t84 -34.5q40 -22 67 -49l-59 -93q-26 21 -58 38
q-27 14 -64 26.5t-80 12.5q-57 0 -102 -19.5t-76 -53.5t-47.5 -80.5t-16.5 -100.5q0 -56 16.5 -104t48 -83.5t76.5 -56t102 -20.5q48 0 86.5 14.5t67.5 31.5q33 20 59 47l67 -91q-31 -33 -73 -59q-36 -22 -89.5 -40t-122.5 -18q-83 0 -151.5 27.5t-118 77.5t-76.5 119
t-27 153z" />
    <glyph glyph-name="uni2109" unicode="&#x2109;" horiz-adv-x="830" 
d="M154 554q-45 0 -76 27t-31 75t31 75t76 27t76 -27t31 -75t-31 -75t-76 -27zM154 691q-13 0 -23 -9t-10 -26t10 -26t23 -9t23 9t10 26t-10 26t-23 9zM338 -80v724h443v-113h-312v-185h279v-113h-279v-313h-131z" />
    <glyph glyph-name="uni2113" unicode="&#x2113;" horiz-adv-x="430" 
d="M397 526q0 -42 -12.5 -94t-37.5 -108q-25 -57 -61.5 -114.5t-84.5 -109.5q5 -26 13 -41.5t19 -15.5q9 0 21 16t26 58l95 -48q-15 -39 -31 -64t-34 -39q-19 -14 -40 -19t-45 -5q-37 0 -62 24t-41 59q-14 -12 -29.5 -22.5t-31.5 -21.5l-60 82q24 17 47 35t45 38
q-5 35 -7 66t-2 51q0 98 12 177.5t36 135.5t58.5 86.5t79.5 30.5q68 0 97.5 -43.5t29.5 -113.5zM264 573q-14 0 -25.5 -28.5t-20.5 -73.5q-9 -46 -15 -102.5t-8 -111.5q38 58 60.5 122.5t25.5 136.5q3 57 -17 57z" />
    <glyph glyph-name="uni2116" unicode="&#x2116;" horiz-adv-x="940" 
d="M269 -48l-126 446v-446h-111v724h137l122 -441v441h111v-724h-133zM610 -59q-51 0 -85.5 23t-54.5 61q-21 37 -29.5 85.5t-8.5 100.5q0 54 8.5 104t29.5 89q20 38 54 60.5t86 22.5t86 -22.5t55 -60.5q20 -39 28 -89t8 -104q0 -52 -8.5 -100.5t-28.5 -85.5
q-20 -38 -54.5 -61t-85.5 -23zM610 389q-17 0 -27 -15.5t-15 -40.5q-6 -25 -8 -57t-2 -65q0 -37 3 -68.5t10 -54.5q6 -23 15.5 -36t23.5 -13q13 0 23 13t16 36t9 54.5t3 68.5q0 33 -1.5 65t-6.5 57q-6 25 -16 40.5t-27 15.5zM787 -53v127h127v-127h-127z" />
    <glyph glyph-name="uni2121" unicode="&#x2121;" horiz-adv-x="940" 
d="M3 676h429v-113h-152v-611h-133v611h-144v113zM536 382q-18 0 -30.5 -9.5t-20.5 -24.5t-12.5 -33t-7.5 -35h130q-2 16 -5.5 34t-9.5 33q-7 15 -17.5 25t-26.5 10zM715 8q-42 -33 -81 -50t-87 -17q-44 0 -82 17.5t-66 52.5q-28 34 -43.5 85t-15.5 119q0 59 12.5 109
t37.5 86q24 36 60.5 56.5t85.5 20.5q65 0 103.5 -29t58.5 -74q19 -46 23.5 -101t1.5 -107h-260q4 -71 29 -99.5t60 -28.5q27 0 56.5 9t73.5 41zM890 -47h-132v753h132v-753z" />
    <glyph glyph-name="trademark" unicode="&#x2122;" horiz-adv-x="800" 
d="M650 473l-42 -115h-72l-47 122v-122h-106v367h96l92 -226l87 226h98v-367h-106v115zM254 358h-119v265h-99v102h319v-102h-101v-265z" />
    <glyph glyph-name="Omega" unicode="&#x2126;" horiz-adv-x="760" 
d="M380 573q-51 0 -86.5 -17t-57.5 -47q-23 -31 -33 -73t-10 -93t11.5 -97.5t32.5 -85.5q21 -40 49.5 -71t61.5 -50v-87h-306v113h114q-45 50 -72 121t-27 156q0 79 20 142t61 107t101.5 67.5t140.5 23.5q79 0 139.5 -23.5t101.5 -67.5t61.5 -107t20.5 -142
q0 -91 -25.5 -159t-73.5 -118h114v-113h-306v87q33 19 61.5 50t49.5 71q21 39 32.5 85.5t11.5 97.5t-10 93t-32 73q-23 30 -58.5 47t-86.5 17z" />
    <glyph glyph-name="uni212B" unicode="&#x212b;" horiz-adv-x="600" 
d="M196 97l-52 -144h-139l228 603h133l228 -604h-138l-53 145h-207zM397 684q0 -23 -8.5 -40.5t-21.5 -28.5q-14 -12 -32 -18t-36 -6t-36 6t-32 18q-14 11 -22.5 28.5t-8.5 40.5t8.5 40.5t22.5 29.5q14 11 32 17t36 6t36 -6t32 -17q13 -12 21.5 -29.5t8.5 -40.5zM365 202
l-65 179l-65 -179h130zM326 684q0 11 -7.5 18t-18.5 7q-27 0 -27 -25t27 -25q11 0 18.5 6.5t7.5 18.5z" />
    <glyph glyph-name="onethird" unicode="&#x2153;" horiz-adv-x="720" 
d="M458 82q23 -13 39.5 -18.5t36.5 -5.5q28 0 36 9.5t8 22.5q0 20 -15.5 30.5t-38.5 10.5h-39v87h39q22 0 31 7.5t11 22.5q1 10 -6 17t-20 7q-15 0 -31.5 -4.5t-37.5 -21.5l-39 71q33 26 59.5 36t57.5 10t54 -9t38 -23q14 -15 21 -33.5t7 -36.5q0 -20 -10 -42.5t-30 -39.5
q24 -11 38.5 -36t14.5 -54q0 -23 -9 -44.5t-27 -38.5q-19 -18 -46.5 -28.5t-64.5 -10.5q-35 0 -61 8t-61 28zM48 -48l442 708h103l-442 -708h-103zM133 655h74v-388h-104v269l-28 -15l-41 80z" />
    <glyph glyph-name="twothirds" unicode="&#x2154;" horiz-adv-x="720" 
d="M103 -48l442 708h103l-442 -708h-103zM472 79q21 -11 34.5 -16t32.5 -5q28 0 36 9.5t8 22.5q0 20 -15.5 30.5t-38.5 10.5h-39v87h39q22 0 31 7.5t11 22.5q1 10 -6 17t-20 7q-15 0 -27 -3.5t-30 -17.5l-39 73q29 22 51.5 30.5t53.5 8.5t54 -9t38 -23q14 -15 21 -33.5
t7 -36.5q0 -20 -10 -42.5t-30 -39.5q24 -11 38.5 -36t14.5 -54q0 -23 -9 -44.5t-27 -38.5q-19 -18 -46.5 -28.5t-64.5 -10.5q-35 0 -60.5 9.5t-52.5 23.5zM37 340q44 42 71.5 71.5t43.5 51.5q16 21 22 37.5t8 33.5q3 29 -26 29q-13 0 -29 -9t-44 -38l-54 78q37 35 67 49.5
t69 14.5q31 0 54 -10t38 -26q15 -17 22.5 -39t7.5 -45q0 -44 -20 -85.5t-74 -97.5h91v-88h-247v73z" />
    <glyph glyph-name="oneeighth" unicode="&#x215b;" horiz-adv-x="720" 
d="M681 89q0 -29 -10.5 -52t-28.5 -39q-19 -15 -44 -23t-53 -8q-63 0 -98.5 32.5t-35.5 81.5q0 23 12.5 48t41.5 43q-23 18 -32 41t-9 40q0 52 35.5 81.5t89.5 29.5q30 0 52.5 -9t37.5 -23q14 -15 21.5 -33.5t7.5 -39.5q0 -17 -11.5 -40t-31.5 -38q28 -17 42 -42t14 -50z
M584 79q0 32 -44 50q-16 -8 -24 -20.5t-8 -24.5q0 -15 10 -24.5t28 -9.5q17 0 27.5 7.5t10.5 21.5zM517 254q0 -24 34 -37q11 7 17.5 17t6.5 19q0 28 -28 28q-15 0 -22.5 -7.5t-7.5 -19.5zM48 -48l442 708h103l-442 -708h-103zM133 655h74v-388h-104v269l-28 -15l-41 80z
" />
    <glyph glyph-name="threeeighths" unicode="&#x215c;" horiz-adv-x="720" 
d="M53 380q22 -14 40 -19.5t37 -5.5q26 0 35 9.5t9 22.5q0 20 -15.5 30.5t-38.5 10.5h-39v87h39q22 0 31 7.5t11 22.5q1 10 -6 17t-20 7q-15 0 -30.5 -4t-39.5 -22l-39 72q31 24 59 34.5t59 10.5t54 -9t38 -23q14 -15 21 -33.5t7 -36.5q0 -20 -10 -42.5t-30 -39.5
q24 -11 38.5 -36t14.5 -54q0 -23 -9 -44.5t-27 -38.5q-19 -18 -46.5 -28.5t-64.5 -10.5q-35 0 -62 8.5t-61 28.5zM80 -48l442 708h103l-442 -708h-103zM696 89q0 -29 -10.5 -52t-28.5 -39q-19 -15 -44 -23t-53 -8q-63 0 -98.5 32.5t-35.5 81.5q0 23 12.5 48t41.5 43
q-23 18 -32 41t-9 40q0 52 35.5 81t89.5 29q30 0 52.5 -8.5t37.5 -22.5q14 -15 21.5 -33.5t7.5 -39.5q0 -17 -11.5 -40t-31.5 -38q28 -17 42 -42t14 -50zM599 79q0 32 -44 50q-16 -8 -24 -20.5t-8 -24.5q0 -15 10 -24.5t28 -9.5q17 0 27.5 7.5t10.5 21.5zM532 253
q0 -24 34 -37q11 7 17.5 17t6.5 19q0 28 -28 28q-15 0 -22.5 -7.5t-7.5 -19.5z" />
    <glyph glyph-name="fiveeighths" unicode="&#x215d;" horiz-adv-x="720" 
d="M152 527q25 -2 47.5 -10.5t39.5 -23.5t27.5 -38t10.5 -53q0 -32 -11 -58t-30 -44q-20 -19 -47.5 -29t-59.5 -10q-35 0 -60.5 9.5t-47.5 23.5l27 89q22 -15 40 -21.5t41 -6.5q18 0 29.5 9t11.5 32q0 36 -51 42q-14 2 -32.5 1.5t-47.5 -4.5l30 222h201v-91h-111zM80 -48
l442 708h103l-442 -708h-103zM696 89q0 -29 -10.5 -52t-28.5 -39q-19 -15 -44 -23t-53 -8q-63 0 -98.5 32.5t-35.5 81.5q0 23 12.5 48t41.5 43q-23 18 -32 41t-9 40q0 52 35.5 81t89.5 29q30 0 52.5 -8.5t37.5 -22.5q14 -15 21.5 -33.5t7.5 -39.5q0 -17 -11.5 -40t-31.5 -38
q28 -17 42 -42t14 -50zM599 79q0 32 -44 50q-16 -8 -24 -20.5t-8 -24.5q0 -15 10 -24.5t28 -9.5q17 0 27.5 7.5t10.5 21.5zM532 253q0 -24 34 -37q11 7 17.5 17t6.5 19q0 28 -28 28q-15 0 -22.5 -7.5t-7.5 -19.5z" />
    <glyph glyph-name="seveneighths" unicode="&#x215e;" horiz-adv-x="720" 
d="M144 262h-115l148 303h-127v93h257v-63zM52 -48l442 708h103l-442 -708h-103zM686 89q0 -29 -10.5 -52t-28.5 -39q-19 -15 -44 -23t-53 -8q-63 0 -98.5 32.5t-35.5 81.5q0 23 12.5 48t41.5 43q-23 18 -32 41t-9 40q0 52 35.5 81.5t89.5 29.5q30 0 52.5 -9t37.5 -23
q14 -15 21.5 -33.5t7.5 -39.5q0 -17 -11.5 -40t-31.5 -38q28 -17 42 -42t14 -50zM589 79q0 32 -44 50q-16 -8 -24 -20.5t-8 -24.5q0 -15 10 -24.5t28 -9.5q17 0 27.5 7.5t10.5 21.5zM522 254q0 -24 34 -37q11 7 17.5 17t6.5 19q0 28 -28 28q-15 0 -22.5 -7.5t-7.5 -19.5z
" />
    <glyph glyph-name="uni2160" unicode="&#x2160;" horiz-adv-x="940" 
d="M401 -47v723h136v-723h-136z" />
    <glyph glyph-name="uni2161" unicode="&#x2161;" horiz-adv-x="940" 
d="M281 -47v723h136v-723h-136zM521 -47v723h136v-723h-136z" />
    <glyph glyph-name="uni2162" unicode="&#x2162;" horiz-adv-x="940" 
d="M160 -47v723h136v-723h-136zM401 -47v723h136v-723h-136zM641 -47v723h136v-723h-136z" />
    <glyph glyph-name="uni2163" unicode="&#x2163;" horiz-adv-x="940" 
d="M731 675h141l-233 -723h-127l-234 723h141l156 -527zM118 -47v723h136v-723h-136z" />
    <glyph glyph-name="uni2164" unicode="&#x2164;" horiz-adv-x="940" 
d="M626 675h141l-233 -723h-127l-234 723h141l156 -527z" />
    <glyph glyph-name="uni2165" unicode="&#x2165;" horiz-adv-x="940" 
d="M684 -50v729h136v-729h-136zM518 675h141l-233 -723h-127l-234 723h141l156 -527z" />
    <glyph glyph-name="uni2166" unicode="&#x2166;" horiz-adv-x="940" 
d="M389 675h134l-171 -723h-127l-171 723h134l100 -481zM721 -47v723h136v-723h-136zM552 -47v723h136v-723h-136z" />
    <glyph glyph-name="uni2167" unicode="&#x2167;" horiz-adv-x="940" 
d="M270 675h124l-118 -723h-127l-118 723h124l57 -451zM729 -48v723h130v-723h-130zM573 -48v723h130v-723h-130zM416 -48v723h130v-723h-130z" />
    <glyph glyph-name="uni2168" unicode="&#x2168;" horiz-adv-x="940" 
d="M290 676h151l139 -235l140 235h151l-215 -362l215 -362h-150l-140 235l-140 -235h-150l214 362zM128 -47v723h136v-723h-136z" />
    <glyph glyph-name="uni2169" unicode="&#x2169;" horiz-adv-x="940" 
d="M164 683h149l156 -253l157 253h149l-238 -369l238 -369h-148l-158 254l-158 -254h-148l239 369z" />
    <glyph glyph-name="uni2170" unicode="&#x2170;" horiz-adv-x="940" 
d="M537 476v-524h-134v524h134zM403 535v141h134v-141h-134z" />
    <glyph glyph-name="uni2171" unicode="&#x2171;" horiz-adv-x="940" 
d="M417 476v-524h-134v524h134zM283 535v141h134v-141h-134zM657 476v-524h-134v524h134zM523 535v141h134v-141h-134z" />
    <glyph glyph-name="uni2172" unicode="&#x2172;" horiz-adv-x="940" 
d="M297 476v-524h-134v524h134zM163 535v141h134v-141h-134zM537 476v-524h-134v524h134zM403 535v141h134v-141h-134zM777 476v-524h-134v524h134zM643 535v141h134v-141h-134z" />
    <glyph glyph-name="uni2173" unicode="&#x2173;" horiz-adv-x="940" 
d="M842 476l-191 -524h-132l-190 524h139l118 -356l122 356h134zM284 476v-524h-134v524h134zM150 535v141h134v-141h-134z" />
    <glyph glyph-name="uni2174" unicode="&#x2174;" horiz-adv-x="940" 
d="M726 476l-191 -524h-131l-190 524h139l118 -356l119 356h136z" />
    <glyph glyph-name="uni2175" unicode="&#x2175;" horiz-adv-x="940" 
d="M612 476l-191 -524h-132l-190 524h139l118 -356l122 356h134zM788 476v-524h-134v524h134zM654 535v141h134v-141h-134z" />
    <glyph glyph-name="uni2176" unicode="&#x2176;" horiz-adv-x="940" 
d="M527 476l-171 -524h-132l-169 524h136l100 -352l103 352h133zM686 476v-524h-132v524h132zM554 535v141h132v-141h-132zM856 476v-524h-132v524h132zM724 535v141h132v-141h-132z" />
    <glyph glyph-name="uni2177" unicode="&#x2177;" horiz-adv-x="940" 
d="M219 164l57 312h121l-108 -524h-132l-114 524h124zM707 476v-524h-127v524h127zM864 476v-524h-127v524h127zM549 476v-524h-127v524h127zM422 535v141h127v-141h-127zM737 535v141h127v-141h-127zM580 535v141h127v-141h-127z" />
    <glyph glyph-name="uni2178" unicode="&#x2178;" horiz-adv-x="940" 
d="M318 476h145l113 -160l112 160h145l-185 -263l185 -261h-145l-112 158l-112 -158h-145l184 261zM284 476v-524h-134v524h134zM150 535v141h134v-141h-134z" />
    <glyph glyph-name="uni2179" unicode="&#x2179;" horiz-adv-x="940" 
d="M213 476h145l113 -160l112 160h145l-185 -263l185 -261h-145l-112 158l-112 -158h-145l184 261z" />
    <glyph glyph-name="arrowleft" unicode="&#x2190;" horiz-adv-x="940" 
d="M296 489v-137h641v-104h-641v-136l-296 188z" />
    <glyph glyph-name="arrowup" unicode="&#x2191;" horiz-adv-x="800" 
d="M588 472h-137v-629h-104v629h-136l188 296z" />
    <glyph glyph-name="arrowright" unicode="&#x2192;" horiz-adv-x="940" 
d="M642 248h-642v104h642v137l296 -189l-296 -188v136z" />
    <glyph glyph-name="arrowdown" unicode="&#x2193;" horiz-adv-x="800" 
d="M346 129v629h104v-629h137l-189 -296l-188 296h136z" />
    <glyph glyph-name="arrowboth" unicode="&#x2194;" horiz-adv-x="940" 
d="M307 486v-134h342v134l289 -186l-289 -185v133h-342v-133l-289 185z" />
    <glyph glyph-name="arrowupdn" unicode="&#x2195;" horiz-adv-x="700" 
d="M349 -183l-183 250h123v466h-123l183 250l184 -250h-125v-466h125z" />
    <glyph glyph-name="uni2196" unicode="&#x2196;" horiz-adv-x="940" 
d="M31 769l290 -14l-104 -104l702 -772l-79 -68l-694 768l-97 -97z" />
    <glyph glyph-name="uni2197" unicode="&#x2197;" horiz-adv-x="940" 
d="M97 -190l-79 68l702 772l-104 104l290 14l-18 -287l-97 97z" />
    <glyph glyph-name="uni2198" unicode="&#x2198;" horiz-adv-x="940" 
d="M907 -176l-290 14l104 104l-702 772l79 68l694 -769l97 98z" />
    <glyph glyph-name="uni2199" unicode="&#x2199;" horiz-adv-x="940" 
d="M841 782l79 -68l-702 -772l104 -104l-290 -14l18 287l97 -98z" />
    <glyph glyph-name="arrowdblright" unicode="&#x21d2;" horiz-adv-x="940" 
d="M27 149v102h706l49 49l-50 50h-705v101h606l-73 74l69 75l293 -300l-292 -300l-69 77l71 72h-605z" />
    <glyph glyph-name="arrowdblboth" unicode="&#x21d4;" horiz-adv-x="940" 
d="M305 149l72 -72l-69 -77l-292 300l293 300l69 -75l-73 -74h328l-73 74l69 75l293 -300l-292 -300l-69 77l71 72h-327zM733 251l49 49l-50 50h-527l-49 -50l48 -49h529z" />
    <glyph glyph-name="universal" unicode="&#x2200;" horiz-adv-x="600" 
d="M194 502h210l52 175h140l-228 -725h-137l-228 725h139zM226 397l74 -248l73 248h-147z" />
    <glyph glyph-name="partialdiff" unicode="&#x2202;" horiz-adv-x="600" 
d="M105 613q49 20 84 27t72 7q69 0 122 -27.5t89 -74.5q36 -48 54.5 -112.5t18.5 -138.5q0 -83 -20.5 -151.5t-57.5 -117.5q-38 -49 -89.5 -75.5t-114.5 -26.5q-53 0 -92.5 18.5t-65.5 49.5t-38.5 72t-12.5 87q0 60 18 109.5t50 85.5q32 35 75.5 54t95.5 19q36 0 67 -9
t57 -31q-17 78 -61 118.5t-107 40.5q-11 0 -21.5 -1t-22.5 -3q-13 -3 -29.5 -8.5t-39.5 -14.5zM269 29q28 0 52 14.5t42 39.5q18 24 30 57.5t17 72.5q2 9 0.5 16t-3.5 14q-11 30 -36.5 51t-57.5 21q-58 0 -89.5 -37.5t-37.5 -101.5q-2 -23 0 -49t11 -48t26 -36t46 -14z" />
    <glyph glyph-name="existential" unicode="&#x2203;" horiz-adv-x="560" 
d="M71 382h281v182h-297v113h433v-725h-449v113h313v204h-281v113z" />
    <glyph glyph-name="gradient" unicode="&#x2207;" horiz-adv-x="940" 
d="M840 598l-367 -656l-376 656h743zM301 525l205 -364l199 364h-404z" />
    <glyph glyph-name="element" unicode="&#x2208;" horiz-adv-x="940" 
d="M377 6q-64 0 -112.5 23t-81.5 63t-50 93.5t-17 114.5t19 113t54 90q35 37 84 58t109 21h441v-107h-443q-57 0 -90.5 -35t-42.5 -92h576v-108h-576q9 -57 42 -92t87 -35h447v-107h-446z" />
    <glyph glyph-name="suchthat" unicode="&#x220b;" horiz-adv-x="940" 
d="M116 113h447q54 0 87 35t42 92h-576v108h576q-9 57 -42.5 92t-90.5 35h-443v107h441q60 0 109 -21t84 -58q35 -38 54 -90t19 -113t-17 -114.5t-50 -93.5t-81.5 -63t-112.5 -23h-446v107z" />
    <glyph glyph-name="product" unicode="&#x220f;" horiz-adv-x="688" 
d="M560 -59h-142v624h-159v-624h-139v624h-109v111h658v-111h-109v-624z" />
    <glyph glyph-name="summation" unicode="&#x2211;" horiz-adv-x="700" 
d="M64 10l282 303l-282 281v81h570v-113h-369l250 -241l-241 -254h361v-115h-571v58z" />
    <glyph glyph-name="radical" unicode="&#x221a;" horiz-adv-x="520" 
d="M330 -189l-195 446l-89 -56l-48 81l195 119l131 -318l116 690h112l-166 -962h-56z" />
    <glyph glyph-name="proportional" unicode="&#x221d;" horiz-adv-x="940" 
d="M837 138q-38 -27 -69.5 -38t-70.5 -11q-30 0 -57 9.5t-50 25.5q-23 15 -42.5 35t-35.5 41q-40 -54 -91 -82.5t-109 -28.5q-44 0 -81.5 17t-64.5 46t-42 67.5t-15 80.5q0 45 14.5 84t41.5 68q26 28 63.5 44.5t84.5 16.5q60 0 110.5 -25.5t89.5 -82.5q36 49 80 78t104 29
q41 0 73 -10t68 -36l-53 -94q-32 21 -51 28t-39 7q-19 0 -35 -8.5t-30 -22.5q-15 -15 -28 -33.5t-25 -39.5q10 -19 22.5 -38.5t28.5 -34.5q15 -16 33 -26t39 -10q9 0 16.5 0.5t16.5 4.5t21.5 11.5t30.5 21.5zM312 193q44 0 74 30t57 80q-24 45 -56 76t-74 31t-62.5 -32.5
t-20.5 -77.5q0 -20 6 -39t17 -34q10 -15 25.5 -24.5t33.5 -9.5z" />
    <glyph glyph-name="infinity" unicode="&#x221e;" horiz-adv-x="800" 
d="M740 327q0 -36 -13 -68t-36 -56q-24 -24 -56 -38t-69 -14q-23 0 -46.5 6.5t-45.5 18.5t-41 28.5t-32 36.5q-28 -42 -69.5 -64.5t-99.5 -22.5q-38 0 -70 14t-55 38t-36 56t-13 68q0 37 14 69t38 56q24 23 57 36.5t71 13.5q46 0 88 -26t72 -65q27 42 73 66.5t94 24.5
q39 0 71 -14t55 -38t36 -56.5t13 -69.5zM634 328q0 33 -19 59t-49 26q-33 0 -61 -25.5t-48 -60.5q20 -36 47 -60t61 -24q33 0 51 25t18 60zM233 245q34 0 60.5 22.5t48.5 58.5q-20 35 -47 61t-59 26q-31 0 -51 -24t-20 -58q0 -35 18 -60.5t50 -25.5z" />
    <glyph glyph-name="angle" unicode="&#x2220;" horiz-adv-x="800" 
d="M87 42l478 557l88 -65l-383 -457h447v-105h-630v70z" />
    <glyph glyph-name="logicaland" unicode="&#x2227;" horiz-adv-x="940" 
d="M687 -29l-216 451l-218 -450h-132l350 691l347 -692h-131z" />
    <glyph glyph-name="logicalor" unicode="&#x2228;" horiz-adv-x="940" 
d="M121 632h132l218 -450l216 451h131l-347 -692z" />
    <glyph glyph-name="intersection" unicode="&#x2229;" horiz-adv-x="800" 
d="M554 -49v414q0 84 -36 134.5t-118 50.5t-118.5 -49t-36.5 -134v-416h-125v425q0 63 18.5 114.5t54.5 89.5q36 37 88 57.5t119 20.5q62 0 113.5 -20.5t88.5 -57.5q36 -37 56.5 -88.5t20.5 -113.5v-427h-125z" />
    <glyph glyph-name="union" unicode="&#x222a;" horiz-adv-x="800" 
d="M679 231q0 -62 -20.5 -113.5t-56.5 -88.5q-37 -37 -88.5 -57.5t-113.5 -20.5q-67 0 -119 20.5t-88 58.5q-36 37 -54.5 88.5t-18.5 114.5v425h125v-416q0 -85 36.5 -134t118.5 -49t118 50.5t36 134.5v414h125v-427z" />
    <glyph glyph-name="integral" unicode="&#x222b;" horiz-adv-x="440" 
d="M295 23q2 -36 -5.5 -66t-25.5 -52q-18 -21 -47 -33.5t-69 -12.5h-18.5t-17.5 1q-10 2 -22 5t-30 8v109q36 -12 48.5 -14t21.5 -2q27 0 35.5 14t6.5 41l-27 555q-4 81 31 122.5t116 41.5q19 0 37.5 -2t51.5 -11v-110q-25 9 -44 12.5t-27 3.5q-47 0 -42 -55z" />
    <glyph glyph-name="uni222C" unicode="&#x222c;" horiz-adv-x="680" 
d="M288 23q2 -36 -5.5 -66t-25.5 -52q-18 -21 -47 -33.5t-69 -12.5h-18.5t-17.5 1q-10 2 -22 5t-30 8v109q36 -12 48.5 -14t21.5 -2q27 0 35.5 14t6.5 41l-27 555q-4 81 31 122.5t116 41.5q9 0 17 -0.5t17 -1.5q8 -2 19.5 -4t28.5 -6v-110q-25 9 -40.5 12t-23.5 3
q-47 0 -42 -55zM539 23q2 -36 -5.5 -66t-25.5 -52q-18 -21 -47 -33.5t-69 -12.5h-18t-17 1q-9 2 -20.5 5t-29.5 8v109q18 -6 29 -9.5t18 -5.5q6 -1 10.5 -1h9.5q27 0 35.5 14t6.5 41l-27 555q-4 81 31 122.5t116 41.5q19 0 37.5 -1.5t51.5 -10.5v-110q-25 9 -44 12t-27 3
q-47 0 -42 -55z" />
    <glyph glyph-name="uni222E" unicode="&#x222e;" horiz-adv-x="600" 
d="M377 475q58 -17 93 -60.5t35 -112.5q0 -79 -46 -125t-119 -57l-10 -99q-3 -34 -13.5 -63.5t-29.5 -51.5q-20 -21 -50 -33.5t-72 -12.5q-10 0 -18 0.5t-18 1.5q-10 2 -22 4.5t-29 7.5l16 107q22 -9 37 -11.5t26 -2.5q27 0 39.5 13t15.5 45l11 104q-57 18 -91 62t-34 111
q0 38 12 69t34 55q21 23 50.5 37.5t65.5 19.5l10 96q4 34 14.5 63.5t30.5 51.5q19 21 49 33.5t72 12.5q9 0 17 -0.5t18 -1.5q9 -2 21 -5t29 -8l-13 -107q-24 9 -38.5 12t-25.5 3q-26 0 -39 -12.5t-17 -45.5zM393 302q0 42 -27 66l-15 -144q42 22 42 78zM209 303
q0 -41 25 -66l15 141q-19 -11 -29.5 -30.5t-10.5 -44.5z" />
    <glyph glyph-name="therefore" unicode="&#x2234;" horiz-adv-x="940" 
d="M552 516q0 -36 -24.5 -60.5t-59.5 -24.5t-59.5 24.5t-24.5 60.5q0 18 6.5 33t18.5 27q11 11 26.5 17.5t32.5 6.5t32.5 -6.5t27.5 -17.5q11 -12 17.5 -27t6.5 -33zM320 116q0 -36 -24.5 -60.5t-59.5 -24.5t-59.5 24.5t-24.5 60.5q0 18 6.5 33t18.5 27q11 11 26.5 17.5
t32.5 6.5t32.5 -6.5t27.5 -17.5q11 -12 17.5 -27t6.5 -33zM787 116q0 -36 -24.5 -60.5t-59.5 -24.5t-59.5 24.5t-24.5 60.5q0 18 6.5 33t18.5 27q11 11 26.5 17.5t32.5 6.5t32.5 -6.5t27.5 -17.5q11 -12 17.5 -27t6.5 -33z" />
    <glyph glyph-name="uni2235" unicode="&#x2235;" horiz-adv-x="940" 
d="M555 116q0 -17 -7 -32.5t-18 -26.5q-12 -12 -28 -19t-34 -7t-34 7t-27 19q-12 11 -19 26.5t-7 32.5t7 32.5t19 27.5q11 12 27 19t34 7t34 -7t28 -19q11 -12 18 -27.5t7 -32.5zM323 516q0 -17 -7 -32.5t-18 -26.5q-12 -12 -28 -19t-34 -7t-34 7t-27 19q-12 11 -19 26.5
t-7 32.5t7 32.5t19 27.5q11 12 27 19t34 7t34 -7t28 -19q11 -12 18 -27.5t7 -32.5zM790 516q0 -17 -7 -32.5t-18 -26.5q-12 -12 -28 -19t-34 -7t-34 7t-27 19q-12 11 -19 26.5t-7 32.5t7 32.5t19 27.5q11 12 27 19t34 7t34 -7t28 -19q11 -12 18 -27.5t7 -32.5z" />
    <glyph glyph-name="similar" unicode="&#x223c;" horiz-adv-x="940" 
d="M817 320q-58 -48 -110 -72.5t-113 -24.5q-37 0 -75.5 12.5t-77.5 35.5q-26 15 -51 23.5t-50 8.5q-45 0 -84.5 -17t-87.5 -52l-50 58q63 52 114.5 78t107.5 26q71 0 144 -41q65 -37 110 -37q51 0 93.5 11.5t87.5 39.5z" />
    <glyph glyph-name="uni223D" unicode="&#x223d;" horiz-adv-x="940" 
d="M876 299q0 -43 -15 -81.5t-42 -66.5q-28 -29 -66.5 -46t-85.5 -17q-28 0 -57.5 7.5t-72.5 36.5l57 86q26 -15 42.5 -20.5t30.5 -5.5q43 0 64.5 29.5t21.5 77.5q0 45 -21.5 72t-64.5 27q-47 0 -79 -33t-62 -88q-23 -42 -46 -77t-51 -60q-29 -25 -66.5 -38.5t-89.5 -13.5
q-97 0 -153.5 54t-56.5 157q0 48 17 86t46 64q28 26 66 40t81 14q32 0 62 -6.5t68 -27.5l-50 -96q-19 10 -31.5 15.5t-21.5 7.5t-15.5 2.5t-12.5 0.5q-43 0 -65 -26.5t-22 -72.5q0 -48 21.5 -77t64.5 -27q27 1 47.5 9.5t37.5 24.5q16 16 30.5 39t29.5 53q22 44 45.5 77.5
t53.5 56.5q29 23 66 35t86 12t88 -16t66 -43q27 -28 41 -65.5t14 -79.5z" />
    <glyph glyph-name="uni2252" unicode="&#x2252;" horiz-adv-x="740" 
d="M74 438h591v-102h-591v102zM74 264h591v-101h-591v101zM281 552q0 -32 -22 -53t-54 -21t-53.5 21t-21.5 53t21.5 53.5t53.5 21.5t54 -21.5t22 -53.5zM609 48q0 -32 -22 -53t-54 -21t-53.5 21t-21.5 53t21.5 53.5t53.5 21.5t54 -21.5t22 -53.5z" />
    <glyph glyph-name="notequal" unicode="&#x2260;" horiz-adv-x="740" 
d="M666 448v-102h-240l-23 -92h263v-101h-289l-33 -132h-121l33 132h-182v101h207l23 92h-230v102h256l30 119h122l-30 -119h214z" />
    <glyph glyph-name="equivalence" unicode="&#x2261;" horiz-adv-x="840" 
d="M123 516h593v-106h-593v106zM123 355h593v-106h-593v106zM123 194h593v-106h-593v106z" />
    <glyph glyph-name="lessequal" unicode="&#x2264;" horiz-adv-x="700" 
d="M81 431l539 217v-116l-351 -139l351 -141v-113l-539 216v76zM79 113h541v-106h-541v106z" />
    <glyph glyph-name="greaterequal" unicode="&#x2265;" horiz-adv-x="700" 
d="M79 252l351 141l-351 139v116l539 -217v-76l-539 -216v113zM79 113h541v-106h-541v106z" />
    <glyph glyph-name="uni226A" unicode="&#x226a;" horiz-adv-x="940" 
d="M591 -54l-506 354l501 363l56 -72l-389 -291l390 -275zM812 -54l-506 354l501 363l56 -72l-389 -291l390 -275z" />
    <glyph glyph-name="uni226B" unicode="&#x226b;" horiz-adv-x="940" 
d="M297 591l56 72l501 -363l-506 -354l-52 79l390 275zM76 591l56 72l501 -363l-506 -354l-52 79l390 275z" />
    <glyph glyph-name="propersubset" unicode="&#x2282;" horiz-adv-x="940" 
d="M373 6q-64 0 -112 23t-80 63q-33 40 -49 93.5t-16 114.5t18.5 113t53.5 90q34 37 82 58t108 21h444v-107h-446q-60 0 -96 -44t-36 -131q0 -97 35.5 -142t92.5 -45h450v-107h-449z" />
    <glyph glyph-name="propersuperset" unicode="&#x2283;" horiz-adv-x="940" 
d="M116 113h450q57 0 92.5 45t35.5 142q0 87 -36 131t-96 44h-446v107h444q60 0 108 -21t83 -58q34 -38 52.5 -90t18.5 -113t-16.5 -114.5t-48.5 -93.5t-80 -63t-112 -23h-449v107z" />
    <glyph glyph-name="reflexsubset" unicode="&#x2286;" horiz-adv-x="940" 
d="M123 76h694v-107h-694v107zM336 137q-55 0 -97 16t-70 46t-42.5 72t-14.5 94t16.5 92.5t46.5 68.5t72.5 43t95.5 15h474v-108h-476q-54 0 -79.5 -29t-25.5 -86q0 -54 24.5 -85.5t75.5 -31.5h481v-107h-481z" />
    <glyph glyph-name="reflexsuperset" unicode="&#x2287;" horiz-adv-x="940" 
d="M112 76h694v-107h-694v107zM112 244h481q51 0 75.5 31.5t24.5 85.5q0 57 -25.5 86t-79.5 29h-476v108h474q52 0 95 -15t73 -43t46.5 -68.5t16.5 -92.5t-14.5 -94t-42.5 -72t-70 -46t-97 -16h-481v107z" />
    <glyph glyph-name="uni2299" unicode="&#x2299;" horiz-adv-x="940" 
d="M877 300q0 -85 -31 -159t-85 -129q-55 -55 -129.5 -87t-161.5 -32q-83 0 -156.5 30.5t-128.5 84.5q-56 54 -88.5 128.5t-32.5 163.5q0 84 31 158t86 129q54 55 128 86.5t161 31.5q82 0 156 -30t130 -83q56 -54 88.5 -128.5t32.5 -163.5zM776 300q0 66 -23.5 123.5
t-64.5 100.5t-97 67.5t-121 24.5q-62 0 -117.5 -23.5t-96.5 -65.5q-42 -42 -66.5 -100t-24.5 -127q0 -66 23 -124t64 -101q41 -44 97 -68.5t121 -24.5q62 0 117.5 23t97.5 66q42 42 66.5 100.5t24.5 128.5zM611 300q0 -29 -11.5 -54.5t-30.5 -44.5q-20 -20 -46 -31.5
t-54 -11.5q-29 0 -54.5 11.5t-44.5 31.5q-20 19 -31.5 44.5t-11.5 54.5q0 30 11.5 56t31.5 45q19 19 44.5 30t54.5 11q28 0 54 -11t46 -30q19 -19 30.5 -45t11.5 -56z" />
    <glyph glyph-name="perpendicular" unicode="&#x22a5;" horiz-adv-x="800" 
d="M64 75h271v494h129v-494h271v-106h-671v106z" />
    <glyph glyph-name="uni2312" unicode="&#x2312;" horiz-adv-x="540" 
d="M270 659q-35 0 -57 -17t-36 -52h-122q24 90 80 129t135 39t135 -39t80 -129h-122q-14 35 -36 52t-57 17z" />
    <glyph glyph-name="uni2460" unicode="&#x2460;" horiz-adv-x="940" 
d="M320 498l129 71h89v-532h-128v388l-41 -23zM920 300q0 -95 -34 -176.5t-94 -142.5t-142.5 -95.5t-179.5 -34.5q-91 0 -172.5 33t-142.5 92q-62 60 -98 142.5t-36 181.5q0 94 34 176t94 143q60 60 142 94.5t179 34.5q91 0 173 -32.5t144 -91.5q61 -59 97 -141.5t36 -182.5
zM821 299q0 75 -27 140.5t-74 114.5q-47 48 -111 76.5t-139 28.5q-71 0 -134.5 -27t-111.5 -74q-48 -48 -76 -114t-28 -145q0 -75 26.5 -140.5t73.5 -113.5q47 -49 111 -77t139 -28q71 0 135 26.5t112 73.5t76 113t28 146z" />
    <glyph glyph-name="uni2461" unicode="&#x2461;" horiz-adv-x="940" 
d="M302 116q64 63 104.5 107t64.5 76q23 32 32 56.5t10 49.5q2 29 -9.5 42.5t-40.5 13.5q-22 0 -44.5 -15.5t-57.5 -53.5l-66 94q22 23 42.5 39.5t42.5 27.5q21 10 44 14.5t51 4.5q44 0 76 -14t53 -36q20 -23 29 -51.5t8 -58.5q-1 -35 -9.5 -66.5t-25.5 -62.5
q-18 -31 -45.5 -64t-66.5 -72h160v-110h-352v79zM920 300q0 -95 -34 -176.5t-94 -142.5t-142.5 -95.5t-179.5 -34.5q-91 0 -172.5 33t-142.5 92q-62 60 -98 142.5t-36 181.5q0 94 34 176t94 143q60 60 142 94.5t179 34.5q91 0 173 -32.5t144 -91.5q61 -59 97 -141.5
t36 -182.5zM821 299q0 75 -27 140.5t-74 114.5q-47 48 -111 76.5t-139 28.5q-71 0 -134.5 -27t-111.5 -74q-48 -48 -76 -114t-28 -145q0 -75 26.5 -140.5t73.5 -113.5q47 -49 111 -77t139 -28q71 0 135 26.5t112 73.5t76 113t28 146z" />
    <glyph glyph-name="uni2462" unicode="&#x2462;" horiz-adv-x="940" 
d="M347 173q28 -18 53 -27t55 -9q45 0 59 17t14 40q0 37 -26 52t-63 15h-48v105h48q30 0 49.5 14.5t19.5 44.5q0 18 -9 27t-35 9q-23 0 -47 -11.5t-50 -29.5l-52 92q22 16 41 27.5t38 18.5q18 7 38 10t44 3q40 0 70.5 -11t50.5 -29q20 -19 30 -44t10 -52q0 -26 -14.5 -59.5
t-47.5 -56.5q37 -14 59 -48t22 -79q0 -35 -13.5 -65t-39.5 -52t-63 -35t-83 -13q-23 0 -43.5 2.5t-39.5 8.5q-20 5 -40.5 14.5t-42.5 23.5zM920 300q0 -95 -34 -176.5t-94 -142.5t-142.5 -95.5t-179.5 -34.5q-91 0 -172.5 33t-142.5 92q-62 60 -98 142.5t-36 181.5
q0 94 34 176t94 143q60 60 142 94.5t179 34.5q91 0 173 -32.5t144 -91.5q61 -59 97 -141.5t36 -182.5zM821 299q0 75 -27 140.5t-74 114.5q-47 48 -111 76.5t-139 28.5q-71 0 -134.5 -27t-111.5 -74q-48 -48 -76 -114t-28 -145q0 -75 26.5 -140.5t73.5 -113.5
q47 -49 111 -77t139 -28q71 0 135 26.5t112 73.5t76 113t28 146z" />
    <glyph glyph-name="uni2463" unicode="&#x2463;" horiz-adv-x="940" 
d="M253 127v81l212 364h110v-344h60v-101h-60v-90h-115v90h-207zM387 228h73v134zM920 300q0 -95 -34 -176.5t-94 -142.5t-142.5 -95.5t-179.5 -34.5q-91 0 -172.5 33t-142.5 92q-62 60 -98 142.5t-36 181.5q0 94 34 176t94 143q60 60 142 94.5t179 34.5q91 0 173 -32.5
t144 -91.5q61 -59 97 -141.5t36 -182.5zM821 299q0 75 -27 140.5t-74 114.5q-47 48 -111 76.5t-139 28.5q-71 0 -134.5 -27t-111.5 -74q-48 -48 -76 -114t-28 -145q0 -75 26.5 -140.5t73.5 -113.5q47 -49 111 -77t139 -28q71 0 135 26.5t112 73.5t76 113t28 146z" />
    <glyph glyph-name="uni2464" unicode="&#x2464;" horiz-adv-x="940" 
d="M467 386h7q36 -2 66 -15t53 -35q22 -22 34.5 -53t12.5 -68q0 -40 -14 -74t-40 -59q-26 -26 -62.5 -40.5t-82.5 -14.5t-79.5 11.5t-62.5 30.5l33 106q25 -14 53 -26t56 -12q30 0 51 16t21 54q0 29 -18 50t-63 21h-33t-34 -2l-39 -4l38 295h267v-110h-154zM920 300
q0 -95 -34 -176.5t-94 -142.5t-142.5 -95.5t-179.5 -34.5q-91 0 -172.5 33t-142.5 92q-62 60 -98 142.5t-36 181.5q0 94 34 176t94 143q60 60 142 94.5t179 34.5q91 0 173 -32.5t144 -91.5q61 -59 97 -141.5t36 -182.5zM821 299q0 75 -27 140.5t-74 114.5q-47 48 -111 76.5
t-139 28.5q-71 0 -134.5 -27t-111.5 -74q-48 -48 -76 -114t-28 -145q0 -75 26.5 -140.5t73.5 -113.5q47 -49 111 -77t139 -28q71 0 135 26.5t112 73.5t76 113t28 146z" />
    <glyph glyph-name="uni2465" unicode="&#x2465;" horiz-adv-x="940" 
d="M609 468q-36 1 -76 -6.5t-80 -38.5q-8 -6 -13.5 -13.5t-12.5 -21.5q28 11 56 11q73 0 118 -48t45 -130q0 -38 -11 -73t-33 -61q-23 -27 -56 -43t-77 -16q-88 0 -137 62t-49 168q0 76 21 133t60 99q42 43 98.5 63.5t134.5 22.5zM470 132q29 0 41 22t12 62q0 39 -13.5 60.5
t-44.5 21.5q-35 0 -57 -40q-1 -2 -1.5 -5t-0.5 -10q0 -48 16 -79.5t48 -31.5zM920 300q0 -95 -34 -176.5t-94 -142.5t-142.5 -95.5t-179.5 -34.5q-91 0 -172.5 33t-142.5 92q-62 60 -98 142.5t-36 181.5q0 94 34 176t94 143q60 60 142 94.5t179 34.5q91 0 173 -32.5
t144 -91.5q61 -59 97 -141.5t36 -182.5zM821 299q0 75 -27 140.5t-74 114.5q-47 48 -111 76.5t-139 28.5q-71 0 -134.5 -27t-111.5 -74q-48 -48 -76 -114t-28 -145q0 -75 26.5 -140.5t73.5 -113.5q47 -49 111 -77t139 -28q71 0 135 26.5t112 73.5t76 113t28 146z" />
    <glyph glyph-name="uni2466" unicode="&#x2466;" horiz-adv-x="940" 
d="M429 25h-137l207 419h-190v110h341v-76zM920 300q0 -95 -34 -176.5t-94 -142.5t-142.5 -95.5t-179.5 -34.5q-91 0 -172.5 33t-142.5 92q-62 60 -98 142.5t-36 181.5q0 94 34 176t94 143q60 60 142 94.5t179 34.5q91 0 173 -32.5t144 -91.5q61 -59 97 -141.5t36 -182.5z
M821 299q0 75 -27 140.5t-74 114.5q-47 48 -111 76.5t-139 28.5q-71 0 -134.5 -27t-111.5 -74q-48 -48 -76 -114t-28 -145q0 -75 26.5 -140.5t73.5 -113.5q47 -49 111 -77t139 -28q71 0 135 26.5t112 73.5t76 113t28 146z" />
    <glyph glyph-name="uni2467" unicode="&#x2467;" horiz-adv-x="940" 
d="M652 189q0 -38 -15 -68t-40 -50q-25 -21 -58 -32t-69 -11q-41 0 -74.5 11.5t-56.5 31.5q-24 20 -37 47.5t-13 59.5q0 35 17 70.5t59 62.5q-35 25 -46.5 56t-11.5 57q0 36 12.5 63.5t35.5 46.5q22 18 53 28t67 10q39 0 69.5 -11.5t50.5 -30.5t30.5 -44t10.5 -53
q0 -24 -13 -56.5t-47 -58.5q39 -23 57.5 -57t18.5 -72zM534 181q0 29 -17 48t-54 33q-31 -14 -43 -34t-12 -40q0 -26 15.5 -41.5t47.5 -15.5q29 0 46 13.5t17 36.5zM420 429q0 -47 58 -66q23 9 33 26.5t10 36.5q0 20 -13 34t-36 14q-24 0 -38 -12.5t-14 -32.5zM920 300
q0 -95 -34 -176.5t-94 -142.5t-142.5 -95.5t-179.5 -34.5q-91 0 -172.5 33t-142.5 92q-62 60 -98 142.5t-36 181.5q0 94 34 176t94 143q60 60 142 94.5t179 34.5q91 0 173 -32.5t144 -91.5q61 -59 97 -141.5t36 -182.5zM821 299q0 75 -27 140.5t-74 114.5q-47 48 -111 76.5
t-139 28.5q-71 0 -134.5 -27t-111.5 -74q-48 -48 -76 -114t-28 -145q0 -75 26.5 -140.5t73.5 -113.5q47 -49 111 -77t139 -28q71 0 135 26.5t112 73.5t76 113t28 146z" />
    <glyph glyph-name="uni2468" unicode="&#x2468;" horiz-adv-x="940" 
d="M346 135q36 0 61.5 3.5t45.5 13.5q19 10 33.5 26.5t28.5 43.5q-11 -5 -25.5 -8.5t-30.5 -3.5q-34 0 -63.5 11.5t-51.5 34.5q-22 22 -35.5 54.5t-14.5 74.5q-2 40 9.5 74.5t34.5 59.5q23 24 56.5 38t74.5 14q39 0 72.5 -15.5t58.5 -44.5q24 -30 38 -72t14 -94
q0 -74 -18 -132.5t-55 -99.5q-38 -42 -96 -64t-137 -22v108zM468 467q-27 0 -42 -18.5t-15 -58.5q0 -39 18.5 -58.5t47.5 -19.5q20 0 38 11.5t18 35.5q0 48 -16.5 78t-48.5 30zM920 300q0 -95 -34 -176.5t-94 -142.5t-142.5 -95.5t-179.5 -34.5q-91 0 -172.5 33t-142.5 92
q-62 60 -98 142.5t-36 181.5q0 94 34 176t94 143q60 60 142 94.5t179 34.5q91 0 173 -32.5t144 -91.5q61 -59 97 -141.5t36 -182.5zM821 299q0 75 -27 140.5t-74 114.5q-47 48 -111 76.5t-139 28.5q-71 0 -134.5 -27t-111.5 -74q-48 -48 -76 -114t-28 -145
q0 -75 26.5 -140.5t73.5 -113.5q47 -49 111 -77t139 -28q71 0 135 26.5t112 73.5t76 113t28 146z" />
    <glyph glyph-name="uni2469" unicode="&#x2469;" horiz-adv-x="940" 
d="M536 301q0 -89 11.5 -125t32.5 -36t32.5 36t11.5 125q0 88 -11.5 124t-32.5 36t-32.5 -36t-11.5 -124zM416 301q0 134 42.5 201.5t121.5 67.5t121.5 -67.5t42.5 -201.5t-42.5 -201.5t-121.5 -67.5t-121.5 67.5t-42.5 201.5zM920 300q0 -95 -34 -176.5t-94 -142.5
t-142.5 -95.5t-179.5 -34.5q-91 0 -172.5 33t-142.5 92q-62 60 -98 142.5t-36 181.5q0 94 34 176t94 143q60 60 142 94.5t179 34.5q91 0 173 -32.5t144 -91.5q61 -59 97 -141.5t36 -182.5zM821 299q0 75 -27 140.5t-74 114.5q-47 48 -111 76.5t-139 28.5q-71 0 -134.5 -27
t-111.5 -74q-48 -48 -76 -114t-28 -145q0 -75 26.5 -140.5t73.5 -113.5q47 -49 111 -77t139 -28q71 0 135 26.5t112 73.5t76 113t28 146zM193 499l107 60h86v-519h-120v385l-40 -22z" />
    <glyph glyph-name="uni246A" unicode="&#x246a;" horiz-adv-x="940" 
d="M920 300q0 -95 -34 -176.5t-94 -142.5t-142.5 -95.5t-179.5 -34.5q-91 0 -172.5 33t-142.5 92q-62 60 -98 142.5t-36 181.5q0 94 34 176t94 143q60 60 142 94.5t179 34.5q91 0 173 -32.5t144 -91.5q61 -59 97 -141.5t36 -182.5zM821 299q0 75 -27 140.5t-74 114.5
q-47 48 -111 76.5t-139 28.5q-71 0 -134.5 -27t-111.5 -74q-48 -48 -76 -114t-28 -145q0 -75 26.5 -140.5t73.5 -113.5q47 -49 111 -77t139 -28q71 0 135 26.5t112 73.5t76 113t28 146zM218 508l113 61h87v-532h-121v400l-30 -19zM478 508l113 61h87v-532h-121v400l-30 -19z
" />
    <glyph glyph-name="uni246B" unicode="&#x246b;" horiz-adv-x="940" 
d="M416 118q48 54 80.5 96t52.5 76t29 61.5t10 52.5q3 58 -37 58q-18 0 -38.5 -20t-46.5 -55l-56 98q33 45 69 66.5t84 21.5q37 0 65 -13.5t47 -35.5q18 -22 27 -51.5t8 -60.5q-1 -35 -8 -66t-22 -62t-37.5 -64t-55.5 -70h117v-110h-288v78zM920 300q0 -95 -34 -176.5
t-94 -142.5t-142.5 -95.5t-179.5 -34.5q-91 0 -172.5 33t-142.5 92q-62 60 -98 142.5t-36 181.5q0 94 34 176t94 143q60 60 142 94.5t179 34.5q91 0 173 -32.5t144 -91.5q61 -59 97 -141.5t36 -182.5zM821 299q0 75 -27 140.5t-74 114.5q-47 48 -111 76.5t-139 28.5
q-71 0 -134.5 -27t-111.5 -74q-48 -48 -76 -114t-28 -145q0 -75 26.5 -140.5t73.5 -113.5q47 -49 111 -77t139 -28q71 0 135 26.5t112 73.5t76 113t28 146zM193 499l107 60h86v-519h-120v385l-40 -22z" />
    <glyph glyph-name="uni246C" unicode="&#x246c;" horiz-adv-x="940" 
d="M450 162q28 -16 46.5 -22.5t45.5 -6.5q21 0 35 5.5t23 14.5q8 8 11 19t3 22q0 36 -24 52t-62 16h-47v103h47q29 0 48.5 15.5t19.5 44.5q0 18 -10 28t-35 10q-21 0 -40 -7t-42 -26l-51 93q32 24 66.5 36.5t77.5 12.5q41 0 70.5 -11.5t49.5 -30.5q19 -20 28 -44.5t9 -50.5
q0 -27 -14.5 -60.5t-45.5 -55.5q78 -41 78 -127q0 -34 -11 -64t-34 -52q-23 -23 -59.5 -36.5t-88.5 -13.5q-41 0 -73 9.5t-69 33.5zM920 300q0 -95 -34 -176.5t-94 -142.5t-142.5 -95.5t-179.5 -34.5q-91 0 -172.5 33t-142.5 92q-62 60 -98 142.5t-36 181.5q0 94 34 176
t94 143q60 60 142 94.5t179 34.5q91 0 173 -32.5t144 -91.5q61 -59 97 -141.5t36 -182.5zM821 299q0 75 -27 140.5t-74 114.5q-47 48 -111 76.5t-139 28.5q-71 0 -134.5 -27t-111.5 -74q-48 -48 -76 -114t-28 -145q0 -75 26.5 -140.5t73.5 -113.5q47 -49 111 -77t139 -28
q71 0 135 26.5t112 73.5t76 113t28 146zM193 499l107 60h86v-519h-120v385l-40 -22z" />
    <glyph glyph-name="uni246D" unicode="&#x246d;" horiz-adv-x="940" 
d="M410 129v85l176 351h109v-335h53v-101h-53v-92h-110v92h-175zM531 230h54v120zM920 300q0 -95 -34 -176.5t-94 -142.5t-142.5 -95.5t-179.5 -34.5q-91 0 -172.5 33t-142.5 92q-62 60 -98 142.5t-36 181.5q0 94 34 176t94 143q60 60 142 94.5t179 34.5q91 0 173 -32.5
t144 -91.5q61 -59 97 -141.5t36 -182.5zM821 299q0 75 -27 140.5t-74 114.5q-47 48 -111 76.5t-139 28.5q-71 0 -134.5 -27t-111.5 -74q-48 -48 -76 -114t-28 -145q0 -75 26.5 -140.5t73.5 -113.5q47 -49 111 -77t139 -28q71 0 135 26.5t112 73.5t76 113t28 146zM193 499
l107 60h86v-519h-120v385l-40 -22z" />
    <glyph glyph-name="uni246E" unicode="&#x246e;" horiz-adv-x="940" 
d="M553 386h8q37 0 68.5 -12t54.5 -34t36.5 -53.5t13.5 -71.5q0 -39 -13.5 -73.5t-39.5 -59.5q-27 -26 -64.5 -41t-85.5 -15q-44 0 -72 9t-57 28l49 101q26 -15 42.5 -21.5t37.5 -6.5q35 0 55.5 18t20.5 53q0 38 -22.5 56t-76.5 18q-11 0 -32.5 -1.5t-54.5 -6.5l33 286h247
v-110h-138zM920 300q0 -95 -34 -176.5t-94 -142.5t-142.5 -95.5t-179.5 -34.5q-91 0 -172.5 33t-142.5 92q-62 60 -98 142.5t-36 181.5q0 94 34 176t94 143q60 60 142 94.5t179 34.5q91 0 173 -32.5t144 -91.5q61 -59 97 -141.5t36 -182.5zM821 299q0 75 -27 140.5
t-74 114.5q-47 48 -111 76.5t-139 28.5q-71 0 -134.5 -27t-111.5 -74q-48 -48 -76 -114t-28 -145q0 -75 26.5 -140.5t73.5 -113.5q47 -49 111 -77t139 -28q71 0 135 26.5t112 73.5t76 113t28 146zM193 499l107 60h86v-519h-120v385l-40 -22z" />
    <glyph glyph-name="uni2474" unicode="&#x2474;" horiz-adv-x="940" 
d="M278 726q-81 -91 -116.5 -202.5t-35.5 -223.5q0 -55 8.5 -112.5t27.5 -113.5q18 -57 46.5 -110t68.5 -99h-108q-40 43 -68.5 95t-46.5 109t-26.5 115.5t-8.5 115.5q0 115 35.5 225t116.5 201h107zM769 726q81 -91 116.5 -201t35.5 -225q0 -57 -8.5 -115.5t-26.5 -115.5
t-46.5 -109t-68.5 -95h-108q40 46 68.5 99t47.5 110q18 56 26.5 113.5t8.5 112.5q0 112 -35.5 223.5t-116.5 202.5h107zM410 425l-41 -23l-49 96l129 71h89v-532h-128v388z" />
    <glyph glyph-name="uni2475" unicode="&#x2475;" horiz-adv-x="940" 
d="M278 726q-81 -91 -116.5 -202.5t-35.5 -223.5q0 -55 8.5 -112.5t27.5 -113.5q18 -57 46.5 -110t68.5 -99h-108q-40 43 -68.5 95t-46.5 109t-26.5 115.5t-8.5 115.5q0 115 35.5 225t116.5 201h107zM769 726q81 -91 116.5 -201t35.5 -225q0 -57 -8.5 -115.5t-26.5 -115.5
t-46.5 -109t-68.5 -95h-108q40 46 68.5 99t47.5 110q18 56 26.5 113.5t8.5 112.5q0 112 -35.5 223.5t-116.5 202.5h107zM302 37v79q64 63 104.5 107t64.5 76q23 32 32 56.5t10 49.5q2 29 -9.5 42.5t-40.5 13.5q-22 0 -44.5 -15.5t-57.5 -53.5l-66 94q22 23 42.5 39.5
t42.5 27.5q21 10 44 14.5t51 4.5q44 0 76 -14t53 -36q20 -23 29 -51.5t8 -58.5q-1 -35 -9.5 -66.5t-25.5 -62.5q-18 -31 -45.5 -64t-66.5 -72h160v-110h-352z" />
    <glyph glyph-name="uni2476" unicode="&#x2476;" horiz-adv-x="940" 
d="M278 726q-81 -91 -116.5 -202.5t-35.5 -223.5q0 -55 8.5 -112.5t27.5 -113.5q18 -57 46.5 -110t68.5 -99h-108q-40 43 -68.5 95t-46.5 109t-26.5 115.5t-8.5 115.5q0 115 35.5 225t116.5 201h107zM769 726q81 -91 116.5 -201t35.5 -225q0 -57 -8.5 -115.5t-26.5 -115.5
t-46.5 -109t-68.5 -95h-108q40 46 68.5 99t47.5 110q18 56 26.5 113.5t8.5 112.5q0 112 -35.5 223.5t-116.5 202.5h107zM347 173q28 -18 53 -27t55 -9q45 0 59 17t14 40q0 37 -26 52t-63 15h-48v105h48q30 0 49.5 14.5t19.5 44.5q0 18 -9 27t-35 9q-23 0 -47 -11.5
t-50 -29.5l-52 92q22 16 41 27.5t38 18.5q18 7 38 10t44 3q40 0 70.5 -11t50.5 -29q20 -19 30 -44t10 -52q0 -26 -14.5 -59.5t-47.5 -56.5q37 -14 59 -48t22 -79q0 -35 -13.5 -65t-39.5 -52t-63 -35t-83 -13q-23 0 -43.5 2.5t-39.5 8.5q-20 5 -40.5 14.5t-42.5 23.5z" />
    <glyph glyph-name="uni2477" unicode="&#x2477;" horiz-adv-x="940" 
d="M278 726q-81 -91 -116.5 -202.5t-35.5 -223.5q0 -55 8.5 -112.5t27.5 -113.5q18 -57 46.5 -110t68.5 -99h-108q-40 43 -68.5 95t-46.5 109t-26.5 115.5t-8.5 115.5q0 115 35.5 225t116.5 201h107zM769 726q81 -91 116.5 -201t35.5 -225q0 -57 -8.5 -115.5t-26.5 -115.5
t-46.5 -109t-68.5 -95h-108q40 46 68.5 99t47.5 110q18 56 26.5 113.5t8.5 112.5q0 112 -35.5 223.5t-116.5 202.5h107zM460 37v90h-207v81l212 364h110v-344h60v-101h-60v-90h-115zM460 228v134l-73 -134h73z" />
    <glyph glyph-name="uni2478" unicode="&#x2478;" horiz-adv-x="940" 
d="M278 726q-81 -91 -116.5 -202.5t-35.5 -223.5q0 -55 8.5 -112.5t27.5 -113.5q18 -57 46.5 -110t68.5 -99h-108q-40 43 -68.5 95t-46.5 109t-26.5 115.5t-8.5 115.5q0 115 35.5 225t116.5 201h107zM769 726q81 -91 116.5 -201t35.5 -225q0 -57 -8.5 -115.5t-26.5 -115.5
t-46.5 -109t-68.5 -95h-108q40 46 68.5 99t47.5 110q18 56 26.5 113.5t8.5 112.5q0 112 -35.5 223.5t-116.5 202.5h107zM631 457h-154l-10 -71h7q36 -2 66 -15t53 -35q22 -22 34.5 -53t12.5 -68q0 -40 -14 -74t-40 -59q-26 -26 -62.5 -40.5t-82.5 -14.5t-79.5 11.5
t-62.5 30.5l33 106q25 -14 53 -26t56 -12q30 0 51 16t21 54q0 29 -18 50t-63 21h-33t-34 -2l-39 -4l38 295h267v-110z" />
    <glyph glyph-name="uni2479" unicode="&#x2479;" horiz-adv-x="940" 
d="M278 726q-81 -91 -116.5 -202.5t-35.5 -223.5q0 -55 8.5 -112.5t27.5 -113.5q18 -57 46.5 -110t68.5 -99h-108q-40 43 -68.5 95t-46.5 109t-26.5 115.5t-8.5 115.5q0 115 35.5 225t116.5 201h107zM769 726q81 -91 116.5 -201t35.5 -225q0 -57 -8.5 -115.5t-26.5 -115.5
t-46.5 -109t-68.5 -95h-108q40 46 68.5 99t47.5 110q18 56 26.5 113.5t8.5 112.5q0 112 -35.5 223.5t-116.5 202.5h107zM609 468q-36 1 -76 -6.5t-80 -38.5q-8 -6 -13.5 -13.5t-12.5 -21.5q28 11 56 11q73 0 118 -48t45 -130q0 -38 -11 -73t-33 -61q-23 -27 -56 -43t-77 -16
q-88 0 -137 62t-49 168q0 76 21 133t60 99q42 43 98.5 63.5t134.5 22.5zM470 132q29 0 41 22t12 62q0 39 -13.5 60.5t-44.5 21.5q-35 0 -57 -40q-1 -2 -1.5 -5t-0.5 -10q0 -48 16 -79.5t48 -31.5z" />
    <glyph glyph-name="uni247A" unicode="&#x247a;" horiz-adv-x="940" 
d="M278 726q-81 -91 -116.5 -202.5t-35.5 -223.5q0 -55 8.5 -112.5t27.5 -113.5q18 -57 46.5 -110t68.5 -99h-108q-40 43 -68.5 95t-46.5 109t-26.5 115.5t-8.5 115.5q0 115 35.5 225t116.5 201h107zM769 726q81 -91 116.5 -201t35.5 -225q0 -57 -8.5 -115.5t-26.5 -115.5
t-46.5 -109t-68.5 -95h-108q40 46 68.5 99t47.5 110q18 56 26.5 113.5t8.5 112.5q0 112 -35.5 223.5t-116.5 202.5h107zM650 554v-76l-221 -453h-137l207 419h-190v110h341z" />
    <glyph glyph-name="uni247B" unicode="&#x247b;" horiz-adv-x="940" 
d="M278 726q-81 -91 -116.5 -202.5t-35.5 -223.5q0 -55 8.5 -112.5t27.5 -113.5q18 -57 46.5 -110t68.5 -99h-108q-40 43 -68.5 95t-46.5 109t-26.5 115.5t-8.5 115.5q0 115 35.5 225t116.5 201h107zM769 726q81 -91 116.5 -201t35.5 -225q0 -57 -8.5 -115.5t-26.5 -115.5
t-46.5 -109t-68.5 -95h-108q40 46 68.5 99t47.5 110q18 56 26.5 113.5t8.5 112.5q0 112 -35.5 223.5t-116.5 202.5h107zM652 189q0 -38 -15 -68t-40 -50q-25 -21 -58 -32t-69 -11q-41 0 -74.5 11.5t-56.5 31.5q-24 20 -37 47.5t-13 59.5q0 35 17 70.5t59 62.5
q-35 25 -46.5 56t-11.5 57q0 36 12.5 63.5t35.5 46.5q22 18 53 28t67 10q39 0 69.5 -11.5t50.5 -30.5t30.5 -44t10.5 -53q0 -24 -13 -56.5t-47 -58.5q39 -23 57.5 -57t18.5 -72zM534 181q0 29 -17 48t-54 33q-31 -14 -43 -34t-12 -40q0 -26 15.5 -41.5t47.5 -15.5
q29 0 46 13.5t17 36.5zM420 429q0 -47 58 -66q23 9 33 26.5t10 36.5q0 20 -13 34t-36 14q-24 0 -38 -12.5t-14 -32.5z" />
    <glyph glyph-name="uni247C" unicode="&#x247c;" horiz-adv-x="940" 
d="M278 726q-81 -91 -116.5 -202.5t-35.5 -223.5q0 -55 8.5 -112.5t27.5 -113.5q18 -57 46.5 -110t68.5 -99h-108q-40 43 -68.5 95t-46.5 109t-26.5 115.5t-8.5 115.5q0 115 35.5 225t116.5 201h107zM769 726q81 -91 116.5 -201t35.5 -225q0 -57 -8.5 -115.5t-26.5 -115.5
t-46.5 -109t-68.5 -95h-108q40 46 68.5 99t47.5 110q18 56 26.5 113.5t8.5 112.5q0 112 -35.5 223.5t-116.5 202.5h107zM346 135q36 0 61.5 3.5t45.5 13.5q19 10 33.5 26.5t28.5 43.5q-11 -5 -25.5 -8.5t-30.5 -3.5q-34 0 -63.5 11.5t-51.5 34.5q-22 22 -35.5 54.5
t-14.5 74.5q-2 40 9.5 74.5t34.5 59.5q23 24 56.5 38t74.5 14q39 0 72.5 -15.5t58.5 -44.5q24 -30 38 -72t14 -94q0 -74 -18 -132.5t-55 -99.5q-38 -42 -96 -64t-137 -22v108zM468 467q-27 0 -42 -18.5t-15 -58.5q0 -39 18.5 -58.5t47.5 -19.5q20 0 38 11.5t18 35.5
q0 48 -16.5 78t-48.5 30z" />
    <glyph glyph-name="uni247D" unicode="&#x247d;" horiz-adv-x="940" 
d="M278 726q-81 -91 -116.5 -202.5t-35.5 -223.5q0 -55 8.5 -112.5t27.5 -113.5q18 -57 46.5 -110t68.5 -99h-108q-40 43 -68.5 95t-46.5 109t-26.5 115.5t-8.5 115.5q0 115 35.5 225t116.5 201h107zM769 726q81 -91 116.5 -201t35.5 -225q0 -57 -8.5 -115.5t-26.5 -115.5
t-46.5 -109t-68.5 -95h-108q40 46 68.5 99t47.5 110q18 56 26.5 113.5t8.5 112.5q0 112 -35.5 223.5t-116.5 202.5h107zM536 301q0 -89 11.5 -125t32.5 -36t32.5 36t11.5 125q0 88 -11.5 124t-32.5 36t-32.5 -36t-11.5 -124zM416 301q0 134 42.5 201.5t121.5 67.5
t121.5 -67.5t42.5 -201.5t-42.5 -201.5t-121.5 -67.5t-121.5 67.5t-42.5 201.5zM266 435l-32 -20l-49 91l115 63h86v-529h-120v395z" />
    <glyph glyph-name="uni247E" unicode="&#x247e;" horiz-adv-x="940" 
d="M278 726q-81 -91 -116.5 -202.5t-35.5 -223.5q0 -55 8.5 -112.5t27.5 -113.5q18 -57 46.5 -110t68.5 -99h-108q-40 43 -68.5 95t-46.5 109t-26.5 115.5t-8.5 115.5q0 115 35.5 225t116.5 201h107zM769 726q81 -91 116.5 -201t35.5 -225q0 -57 -8.5 -115.5t-26.5 -115.5
t-46.5 -109t-68.5 -95h-108q40 46 68.5 99t47.5 110q18 56 26.5 113.5t8.5 112.5q0 112 -35.5 223.5t-116.5 202.5h107zM297 437l-30 -19l-49 90l113 61h87v-532h-121v400zM557 437l-30 -19l-49 90l113 61h87v-532h-121v400z" />
    <glyph glyph-name="uni247F" unicode="&#x247f;" horiz-adv-x="940" 
d="M278 726q-81 -91 -116.5 -202.5t-35.5 -223.5q0 -55 8.5 -112.5t27.5 -113.5q18 -57 46.5 -110t68.5 -99h-108q-40 43 -68.5 95t-46.5 109t-26.5 115.5t-8.5 115.5q0 115 35.5 225t116.5 201h107zM769 726q81 -91 116.5 -201t35.5 -225q0 -57 -8.5 -115.5t-26.5 -115.5
t-46.5 -109t-68.5 -95h-108q40 46 68.5 99t47.5 110q18 56 26.5 113.5t8.5 112.5q0 112 -35.5 223.5t-116.5 202.5h107zM266 435l-32 -20l-49 91l115 63h86v-532h-120v398zM416 37v78q48 54 81 96.5t54 77.5q20 34 29.5 62t10.5 53q2 29 -9 43.5t-31 14.5q-18 0 -38.5 -20
t-46.5 -55l-56 98q33 45 69 66.5t84 21.5q38 0 66.5 -13.5t47.5 -35.5t28 -51.5t8 -60.5q-1 -35 -8.5 -66.5t-22.5 -62.5q-16 -32 -39 -65.5t-56 -70.5h128v-110h-299z" />
    <glyph glyph-name="uni2480" unicode="&#x2480;" horiz-adv-x="940" 
d="M278 726q-81 -91 -116.5 -202.5t-35.5 -223.5q0 -55 8.5 -112.5t27.5 -113.5q18 -57 46.5 -110t68.5 -99h-108q-40 43 -68.5 95t-46.5 109t-26.5 115.5t-8.5 115.5q0 115 35.5 225t116.5 201h107zM769 726q81 -91 116.5 -201t35.5 -225q0 -57 -8.5 -115.5t-26.5 -115.5
t-46.5 -109t-68.5 -95h-108q40 46 68.5 99t47.5 110q18 56 26.5 113.5t8.5 112.5q0 112 -35.5 223.5t-116.5 202.5h107zM266 435l-32 -20l-49 91l115 63h86v-532h-120v398zM450 162q28 -16 46.5 -22.5t45.5 -6.5q21 0 35 5.5t23 14.5q8 8 11 19t3 22q0 36 -24 52t-62 16h-47
v103h47q29 0 48.5 15.5t19.5 44.5q0 18 -10 28t-35 10q-21 0 -40 -7t-42 -26l-51 93q32 24 66.5 36.5t77.5 12.5q41 0 70.5 -11.5t49.5 -30.5q19 -20 28 -44.5t9 -50.5q0 -27 -14.5 -60.5t-45.5 -55.5q78 -41 78 -127q0 -34 -11 -64t-34 -52q-23 -23 -59.5 -36.5
t-88.5 -13.5q-41 0 -73 9.5t-69 33.5z" />
    <glyph glyph-name="uni2481" unicode="&#x2481;" horiz-adv-x="940" 
d="M278 726q-81 -91 -116.5 -202.5t-35.5 -223.5q0 -55 8.5 -112.5t27.5 -113.5q18 -57 46.5 -110t68.5 -99h-108q-40 43 -68.5 95t-46.5 109t-26.5 115.5t-8.5 115.5q0 115 35.5 225t116.5 201h107zM769 726q81 -91 116.5 -201t35.5 -225q0 -57 -8.5 -115.5t-26.5 -115.5
t-46.5 -109t-68.5 -95h-108q40 46 68.5 99t47.5 110q18 56 26.5 113.5t8.5 112.5q0 112 -35.5 223.5t-116.5 202.5h107zM266 435l-32 -20l-49 91l115 63h86v-532h-120v398zM585 37v92h-175v85l179 359h106v-343h53v-101h-53v-92h-110zM585 230v121l-54 -121h54z" />
    <glyph glyph-name="uni2482" unicode="&#x2482;" horiz-adv-x="940" 
d="M278 726q-81 -91 -116.5 -202.5t-35.5 -223.5q0 -55 8.5 -112.5t27.5 -113.5q18 -57 46.5 -110t68.5 -99h-108q-40 43 -68.5 95t-46.5 109t-26.5 115.5t-8.5 115.5q0 115 35.5 225t116.5 201h107zM769 726q81 -91 116.5 -201t35.5 -225q0 -57 -8.5 -115.5t-26.5 -115.5
t-46.5 -109t-68.5 -95h-108q40 46 68.5 99t47.5 110q18 56 26.5 113.5t8.5 112.5q0 112 -35.5 223.5t-116.5 202.5h107zM266 435l-32 -20l-49 91l115 63h86v-532h-120v398zM719 457h-156l-10 -71h8q37 0 68.5 -12t55.5 -34q23 -22 36 -53.5t13 -71.5q0 -39 -13.5 -73.5
t-39.5 -59.5q-27 -26 -64.5 -41t-85.5 -15q-44 0 -72 9t-57 28l49 101q26 -15 42.5 -21.5t37.5 -6.5q35 0 55.5 18t20.5 53q0 38 -22.5 56t-76.5 18q-11 0 -32.5 -1.5t-54.5 -6.5l36 294h262v-110z" />
    <glyph glyph-name="uni249C" unicode="&#x249c;" horiz-adv-x="940" 
d="M301 220q0 32 14.5 59t40.5 47q25 19 60.5 29.5t78.5 9.5v9q0 14 -11 23.5t-34 9.5q-15 0 -38 -7.5t-54 -33.5l-40 87q32 26 66 39.5t76 13.5q46 0 75 -14t46 -37t23.5 -52.5t6.5 -60.5v-235h-116v12q-11 -6 -32 -13t-42 -7q-34 0 -57 10t-37 27t-20 38.5t-6 45.5z
M769 726q81 -91 116.5 -201t35.5 -225q0 -57 -8.5 -115.5t-26.5 -115.5t-46.5 -109t-68.5 -95h-108q40 46 68.5 99t47.5 110q18 56 26.5 113.5t8.5 112.5q0 112 -35.5 223.5t-116.5 202.5h107zM278 726q-81 -91 -116.5 -202.5t-35.5 -223.5q0 -55 8.5 -112.5t27.5 -113.5
q18 -57 46.5 -110t68.5 -99h-108q-40 43 -68.5 95t-46.5 109t-26.5 115.5t-8.5 115.5q0 115 35.5 225t116.5 201h107zM491 274q-31 0 -52 -13.5t-21 -32.5q0 -14 5.5 -21.5t23.5 -6.5q16 1 28.5 8.5t16.5 21.5q2 6 2.5 11t0.5 7v26h-4z" />
    <glyph glyph-name="uni249D" unicode="&#x249d;" horiz-adv-x="940" 
d="M278 726q-81 -91 -116.5 -202.5t-35.5 -223.5q0 -55 8.5 -112.5t27.5 -113.5q18 -57 46.5 -110t68.5 -99h-108q-40 43 -68.5 95t-46.5 109t-26.5 115.5t-8.5 115.5q0 115 35.5 225t116.5 201h107zM769 726q81 -91 116.5 -201t35.5 -225q0 -57 -8.5 -115.5t-26.5 -115.5
t-46.5 -109t-68.5 -95h-108q40 46 68.5 99t47.5 110q18 56 26.5 113.5t8.5 112.5q0 112 -35.5 223.5t-116.5 202.5h107zM319 596h127v-176q14 10 33 16t42 6q39 0 70 -15t53 -41q21 -27 32 -63.5t11 -79.5q0 -51 -14.5 -90t-38.5 -65q-25 -26 -57 -39.5t-66 -13.5
q-41 0 -71 24v-16h-121v553zM446 211q0 -29 12 -49t41 -20q34 0 47 25.5t13 73.5q0 43 -13 68.5t-46 25.5q-28 0 -41 -22.5t-13 -52.5v-49z" />
    <glyph glyph-name="uni249E" unicode="&#x249e;" horiz-adv-x="940" 
d="M278 726q-81 -91 -116.5 -202.5t-35.5 -223.5q0 -55 8.5 -112.5t27.5 -113.5q18 -57 46.5 -110t68.5 -99h-108q-40 43 -68.5 95t-46.5 109t-26.5 115.5t-8.5 115.5q0 115 35.5 225t116.5 201h107zM769 726q81 -91 116.5 -201t35.5 -225q0 -57 -8.5 -115.5t-26.5 -115.5
t-46.5 -109t-68.5 -95h-108q40 46 68.5 99t47.5 110q18 56 26.5 113.5t8.5 112.5q0 112 -35.5 223.5t-116.5 202.5h107zM598 125q-22 -12 -50.5 -21t-70.5 -9q-43 0 -78.5 14t-60.5 40q-26 26 -40.5 64t-14.5 86t14.5 86t41.5 65q27 26 64.5 40t84.5 14q34 0 59.5 -6
t49.5 -21l-29 -105q-25 14 -42 19t-37 5q-39 0 -58 -24t-19 -69q0 -51 21.5 -75.5t56.5 -24.5q18 0 37 5t48 17z" />
    <glyph glyph-name="uni249F" unicode="&#x249f;" horiz-adv-x="940" 
d="M278 726q-81 -91 -116.5 -202.5t-35.5 -223.5q0 -55 8.5 -112.5t27.5 -113.5q18 -57 46.5 -110t68.5 -99h-108q-40 43 -68.5 95t-46.5 109t-26.5 115.5t-8.5 115.5q0 115 35.5 225t116.5 201h107zM769 726q81 -91 116.5 -201t35.5 -225q0 -57 -8.5 -115.5t-26.5 -115.5
t-46.5 -109t-68.5 -95h-108q40 46 68.5 99t47.5 110q18 56 26.5 113.5t8.5 112.5q0 112 -35.5 223.5t-116.5 202.5h107zM627 43h-121v15q-29 -23 -71 -23q-35 0 -66.5 13.5t-55.5 39.5q-25 26 -39.5 65t-14.5 90q0 43 11 79.5t33 63.5q21 26 52 41t70 15q23 0 42 -6t33 -16
v176h127v-553zM500 260q0 30 -13 52.5t-41 22.5q-33 0 -46 -25.5t-13 -68.5q0 -48 13 -73.5t47 -25.5q29 0 41 20t12 49v49z" />
    <glyph glyph-name="uni24A0" unicode="&#x24a0;" horiz-adv-x="940" 
d="M278 726q-81 -91 -116.5 -202.5t-35.5 -223.5q0 -55 8.5 -112.5t27.5 -113.5q18 -57 46.5 -110t68.5 -99h-108q-40 43 -68.5 95t-46.5 109t-26.5 115.5t-8.5 115.5q0 115 35.5 225t116.5 201h107zM769 726q81 -91 116.5 -201t35.5 -225q0 -57 -8.5 -115.5t-26.5 -115.5
t-46.5 -109t-68.5 -95h-108q40 46 68.5 99t47.5 110q18 56 26.5 113.5t8.5 112.5q0 112 -35.5 223.5t-116.5 202.5h107zM470 404q-25 0 -39.5 -14t-20.5 -32h117q-7 20 -22 33t-35 13zM632 150q-42 -28 -76.5 -40.5t-76.5 -12.5q-36 0 -69.5 12t-58.5 38q-26 25 -41 63.5
t-15 91.5q0 46 12.5 83.5t36.5 64.5q23 26 55 40t71 14q46 0 79.5 -17.5t54.5 -48.5q20 -32 28.5 -77.5t5.5 -100.5h-230q6 -34 27 -47t49 -13q22 0 48 7t63 30z" />
    <glyph glyph-name="uni24A1" unicode="&#x24a1;" horiz-adv-x="940" 
d="M278 726q-81 -91 -116.5 -202.5t-35.5 -223.5q0 -55 8.5 -112.5t27.5 -113.5q18 -57 46.5 -110t68.5 -99h-108q-40 43 -68.5 95t-46.5 109t-26.5 115.5t-8.5 115.5q0 115 35.5 225t116.5 201h107zM769 726q81 -91 116.5 -201t35.5 -225q0 -57 -8.5 -115.5t-26.5 -115.5
t-46.5 -109t-68.5 -95h-108q40 46 68.5 99t47.5 110q18 56 26.5 113.5t8.5 112.5q0 112 -35.5 223.5t-116.5 202.5h107zM575 470h-48q-11 0 -15.5 -5.5t-4.5 -21.5v-37h71v-105h-71v-290h-128v290h-44v105h44v37q0 63 32 97.5t98 34.5h66v-105z" />
    <glyph glyph-name="uni24A2" unicode="&#x24a2;" horiz-adv-x="940" 
d="M278 726q-81 -91 -116.5 -202.5t-35.5 -223.5q0 -55 8.5 -112.5t27.5 -113.5q18 -57 46.5 -110t68.5 -99h-108q-40 43 -68.5 95t-46.5 109t-26.5 115.5t-8.5 115.5q0 115 35.5 225t116.5 201h107zM769 726q81 -91 116.5 -201t35.5 -225q0 -57 -8.5 -115.5t-26.5 -115.5
t-46.5 -109t-68.5 -95h-108q40 46 68.5 99t47.5 110q18 56 26.5 113.5t8.5 112.5q0 112 -35.5 223.5t-116.5 202.5h107zM643 540v-307q0 -53 -10 -94.5t-32 -70.5q-23 -29 -59.5 -44t-90.5 -15q-35 0 -66.5 8t-71.5 34l36 86q33 -18 55 -24t49 -5q54 2 67 56
q-14 -8 -31.5 -14t-46.5 -6q-75 0 -121 51t-46 147q0 55 15.5 94t40.5 64t57 36.5t64 11.5q24 0 45.5 -6t35.5 -18v16h110zM522 372q0 29 -14.5 50.5t-43.5 21.5q-68 0 -68 -100q0 -45 16 -70.5t51 -25.5q28 0 43.5 24t15.5 54v46z" />
    <glyph glyph-name="uni24A3" unicode="&#x24a3;" horiz-adv-x="940" 
d="M278 726q-81 -91 -116.5 -202.5t-35.5 -223.5q0 -55 8.5 -112.5t27.5 -113.5q18 -57 46.5 -110t68.5 -99h-108q-40 43 -68.5 95t-46.5 109t-26.5 115.5t-8.5 115.5q0 115 35.5 225t116.5 201h107zM769 726q81 -91 116.5 -201t35.5 -225q0 -57 -8.5 -115.5t-26.5 -115.5
t-46.5 -109t-68.5 -95h-108q40 46 68.5 99t47.5 110q18 56 26.5 113.5t8.5 112.5q0 112 -35.5 223.5t-116.5 202.5h107zM526 42v252q0 44 -34 43q-23 -1 -34 -15.5t-21 -36.5v-243h-128v550h128v-170q20 11 35.5 14.5t29.5 4.5q38 2 66.5 -8.5t47.5 -30.5t28.5 -48t9.5 -60
v-252h-128z" />
    <glyph glyph-name="uni24A4" unicode="&#x24a4;" horiz-adv-x="940" 
d="M278 726q-81 -91 -116.5 -202.5t-35.5 -223.5q0 -55 8.5 -112.5t27.5 -113.5q18 -57 46.5 -110t68.5 -99h-108q-40 43 -68.5 95t-46.5 109t-26.5 115.5t-8.5 115.5q0 115 35.5 225t116.5 201h107zM769 726q81 -91 116.5 -201t35.5 -225q0 -57 -8.5 -115.5t-26.5 -115.5
t-46.5 -109t-68.5 -95h-108q40 46 68.5 99t47.5 110q18 56 26.5 113.5t8.5 112.5q0 112 -35.5 223.5t-116.5 202.5h107zM405 42v382h128v-382h-128zM533 574v-118h-128v118h128z" />
    <glyph glyph-name="uni24A5" unicode="&#x24a5;" horiz-adv-x="940" 
d="M278 726q-81 -91 -116.5 -202.5t-35.5 -223.5q0 -55 8.5 -112.5t27.5 -113.5q18 -57 46.5 -110t68.5 -99h-108q-40 43 -68.5 95t-46.5 109t-26.5 115.5t-8.5 115.5q0 115 35.5 225t116.5 201h107zM769 726q81 -91 116.5 -201t35.5 -225q0 -57 -8.5 -115.5t-26.5 -115.5
t-46.5 -109t-68.5 -95h-108q40 46 68.5 99t47.5 110q18 56 26.5 113.5t8.5 112.5q0 112 -35.5 223.5t-116.5 202.5h107zM346 80q42 4 60.5 16t18.5 43v311h128v-311q0 -33 -8.5 -61t-30.5 -49q-23 -21 -61 -34.5t-96 -17.5zM553 600v-118h-128v118h128z" />
    <glyph glyph-name="uni24A6" unicode="&#x24a6;" horiz-adv-x="940" 
d="M278 726q-81 -91 -116.5 -202.5t-35.5 -223.5q0 -55 8.5 -112.5t27.5 -113.5q18 -57 46.5 -110t68.5 -99h-108q-40 43 -68.5 95t-46.5 109t-26.5 115.5t-8.5 115.5q0 115 35.5 225t116.5 201h107zM769 726q81 -91 116.5 -201t35.5 -225q0 -57 -8.5 -115.5t-26.5 -115.5
t-46.5 -109t-68.5 -95h-108q40 46 68.5 99t47.5 110q18 56 26.5 113.5t8.5 112.5q0 112 -35.5 223.5t-116.5 202.5h107zM459 605v-244l75 83h144l-153 -169l150 -223h-134l-82 124v-124h-125v553h125z" />
    <glyph glyph-name="uni24A7" unicode="&#x24a7;" horiz-adv-x="940" 
d="M278 726q-81 -91 -116.5 -202.5t-35.5 -223.5q0 -55 8.5 -112.5t27.5 -113.5q18 -57 46.5 -110t68.5 -99h-108q-40 43 -68.5 95t-46.5 109t-26.5 115.5t-8.5 115.5q0 115 35.5 225t116.5 201h107zM769 726q81 -91 116.5 -201t35.5 -225q0 -57 -8.5 -115.5t-26.5 -115.5
t-46.5 -109t-68.5 -95h-108q40 46 68.5 99t47.5 110q18 56 26.5 113.5t8.5 112.5q0 112 -35.5 223.5t-116.5 202.5h107zM405 42v533h128v-533h-128z" />
    <glyph glyph-name="uni24A8" unicode="&#x24a8;" horiz-adv-x="940" 
d="M278 726q-81 -91 -116.5 -202.5t-35.5 -223.5q0 -55 8.5 -112.5t27.5 -113.5q18 -57 46.5 -110t68.5 -99h-108q-40 43 -68.5 95t-46.5 109t-26.5 115.5t-8.5 115.5q0 115 35.5 225t116.5 201h107zM769 726q81 -91 116.5 -201t35.5 -225q0 -57 -8.5 -115.5t-26.5 -115.5
t-46.5 -109t-68.5 -95h-108q40 46 68.5 99t47.5 110q18 56 26.5 113.5t8.5 112.5q0 112 -35.5 223.5t-116.5 202.5h107zM610 107v260q0 20 -5.5 28t-20.5 8q-18 0 -42 -33v-263h-125v260q0 20 -7.5 28t-24.5 8q-11 0 -19.5 -7.5t-16.5 -21.5v-264h-125v390h115v-13
q16 11 31 15t40 4q55 0 91 -48q21 25 49.5 37t52.5 12q69 0 100.5 -37.5t31.5 -101.5v-261h-125z" />
    <glyph glyph-name="uni24A9" unicode="&#x24a9;" horiz-adv-x="940" 
d="M278 726q-81 -91 -116.5 -202.5t-35.5 -223.5q0 -55 8.5 -112.5t27.5 -113.5q18 -57 46.5 -110t68.5 -99h-108q-40 43 -68.5 95t-46.5 109t-26.5 115.5t-8.5 115.5q0 115 35.5 225t116.5 201h107zM769 726q81 -91 116.5 -201t35.5 -225q0 -57 -8.5 -115.5t-26.5 -115.5
t-46.5 -109t-68.5 -95h-108q40 46 68.5 99t47.5 110q18 56 26.5 113.5t8.5 112.5q0 112 -35.5 223.5t-116.5 202.5h107zM513 107v255q0 22 -8.5 31t-27.5 9q-13 0 -23 -9.5t-16 -20.5v-265h-128v392h118v-16q26 23 72 23q63 0 101.5 -36.5t38.5 -106.5v-256h-127z" />
    <glyph glyph-name="uni24AA" unicode="&#x24aa;" horiz-adv-x="940" 
d="M278 726q-81 -91 -116.5 -202.5t-35.5 -223.5q0 -55 8.5 -112.5t27.5 -113.5q18 -57 46.5 -110t68.5 -99h-108q-40 43 -68.5 95t-46.5 109t-26.5 115.5t-8.5 115.5q0 115 35.5 225t116.5 201h107zM769 726q81 -91 116.5 -201t35.5 -225q0 -57 -8.5 -115.5t-26.5 -115.5
t-46.5 -109t-68.5 -95h-108q40 46 68.5 99t47.5 110q18 56 26.5 113.5t8.5 112.5q0 112 -35.5 223.5t-116.5 202.5h107zM470 99q-40 0 -74 13t-59 39q-25 25 -39 62.5t-14 86.5q0 51 14 89.5t39 64.5q24 26 58 39t75 13q40 0 74 -13t59 -39q24 -26 38 -64.5t14 -89.5
q0 -49 -14 -86.5t-39 -62.5q-25 -26 -59 -39t-73 -13zM470 406q-33 0 -47 -30.5t-14 -75.5q0 -51 17 -76t44 -25q26 0 43.5 25t17.5 76q0 45 -14.5 75.5t-46.5 30.5z" />
    <glyph glyph-name="uni24AB" unicode="&#x24ab;" horiz-adv-x="940" 
d="M278 726q-81 -91 -116.5 -202.5t-35.5 -223.5q0 -55 8.5 -112.5t27.5 -113.5q18 -57 46.5 -110t68.5 -99h-108q-40 43 -68.5 95t-46.5 109t-26.5 115.5t-8.5 115.5q0 115 35.5 225t116.5 201h107zM769 726q81 -91 116.5 -201t35.5 -225q0 -57 -8.5 -115.5t-26.5 -115.5
t-46.5 -109t-68.5 -95h-108q40 46 68.5 99t47.5 110q18 56 26.5 113.5t8.5 112.5q0 112 -35.5 223.5t-116.5 202.5h107zM317 547h121v-17q30 24 71 24q36 0 68 -13.5t56 -39.5t38 -65t14 -90q0 -43 -11 -79.5t-32 -62.5q-21 -27 -52 -42t-71 -15q-23 0 -41 6.5t-32 15.5
v-153h-129v531zM444 329q0 -30 13 -52.5t41 -22.5q35 0 47 25.5t12 68.5q0 48 -13 73.5t-47 25.5q-29 0 -41 -20t-12 -49v-49z" />
    <glyph glyph-name="uni24AC" unicode="&#x24ac;" horiz-adv-x="940" 
d="M278 726q-81 -91 -116.5 -202.5t-35.5 -223.5q0 -55 8.5 -112.5t27.5 -113.5q18 -57 46.5 -110t68.5 -99h-108q-40 43 -68.5 95t-46.5 109t-26.5 115.5t-8.5 115.5q0 115 35.5 225t116.5 201h107zM769 726q81 -91 116.5 -201t35.5 -225q0 -57 -8.5 -115.5t-26.5 -115.5
t-46.5 -109t-68.5 -95h-108q40 46 68.5 99t47.5 110q18 56 26.5 113.5t8.5 112.5q0 112 -35.5 223.5t-116.5 202.5h107zM636 16h-129v153q-14 -9 -32 -15.5t-41 -6.5q-40 0 -71 15t-52 42q-21 26 -32 62.5t-11 79.5q0 51 14 90t38 65t56 39.5t68 13.5q41 0 71 -24v17h121
v-531zM509 378q0 29 -12 49t-41 20q-34 0 -47 -25.5t-13 -73.5q0 -43 12 -68.5t47 -25.5q28 0 41 22.5t13 52.5v49z" />
    <glyph glyph-name="uni24AD" unicode="&#x24ad;" horiz-adv-x="940" 
d="M278 726q-81 -91 -116.5 -202.5t-35.5 -223.5q0 -55 8.5 -112.5t27.5 -113.5q18 -57 46.5 -110t68.5 -99h-108q-40 43 -68.5 95t-46.5 109t-26.5 115.5t-8.5 115.5q0 115 35.5 225t116.5 201h107zM769 726q81 -91 116.5 -201t35.5 -225q0 -57 -8.5 -115.5t-26.5 -115.5
t-46.5 -109t-68.5 -95h-108q40 46 68.5 99t47.5 110q18 56 26.5 113.5t8.5 112.5q0 112 -35.5 223.5t-116.5 202.5h107zM486 489v-12q23 19 54 19q15 0 32.5 -3.5t34.5 -11.5v-113q-26 13 -38.5 16t-22.5 3q-24 0 -35.5 -20t-11.5 -48v-222h-126v392h113z" />
    <glyph glyph-name="uni24AE" unicode="&#x24ae;" horiz-adv-x="940" 
d="M278 726q-81 -91 -116.5 -202.5t-35.5 -223.5q0 -55 8.5 -112.5t27.5 -113.5q18 -57 46.5 -110t68.5 -99h-108q-40 43 -68.5 95t-46.5 109t-26.5 115.5t-8.5 115.5q0 115 35.5 225t116.5 201h107zM769 726q81 -91 116.5 -201t35.5 -225q0 -57 -8.5 -115.5t-26.5 -115.5
t-46.5 -109t-68.5 -95h-108q40 46 68.5 99t47.5 110q18 56 26.5 113.5t8.5 112.5q0 112 -35.5 223.5t-116.5 202.5h107zM362 228q32 -17 51.5 -22t39.5 -5q17 0 24 4t9 15q2 14 -9.5 23.5t-34.5 18.5q-54 21 -78 54t-24 75q0 30 11.5 51.5t31.5 36.5q19 14 45 21t55 7
q15 0 27.5 -1.5t24.5 -4.5q12 -4 25 -10.5t30 -16.5l-33 -95q-14 13 -33 19.5t-36 8.5q-14 2 -23 -2t-9 -12q0 -13 11.5 -21.5t35.5 -18.5q57 -23 79.5 -56t22.5 -78q0 -60 -39.5 -90.5t-114.5 -30.5q-35 0 -61.5 10.5t-58.5 28.5z" />
    <glyph glyph-name="uni24AF" unicode="&#x24af;" horiz-adv-x="940" 
d="M278 726q-81 -91 -116.5 -202.5t-35.5 -223.5q0 -55 8.5 -112.5t27.5 -113.5q18 -57 46.5 -110t68.5 -99h-108q-40 43 -68.5 95t-46.5 109t-26.5 115.5t-8.5 115.5q0 115 35.5 225t116.5 201h107zM769 726q81 -91 116.5 -201t35.5 -225q0 -57 -8.5 -115.5t-26.5 -115.5
t-46.5 -109t-68.5 -95h-108q40 46 68.5 99t47.5 110q18 56 26.5 113.5t8.5 112.5q0 112 -35.5 223.5t-116.5 202.5h107zM378 536h128v-90h67v-105h-67v-166q0 -14 2.5 -21t10.5 -7q11 0 23 0.5t31 4.5l7 -95q-24 -8 -47 -11.5t-37 -2.5q-35 1 -57.5 12t-35.5 29
q-14 18 -19.5 41t-5.5 48v168h-44v105h44v90z" />
    <glyph glyph-name="uni24B0" unicode="&#x24b0;" horiz-adv-x="940" 
d="M278 726q-81 -91 -116.5 -202.5t-35.5 -223.5q0 -55 8.5 -112.5t27.5 -113.5q18 -57 46.5 -110t68.5 -99h-108q-40 43 -68.5 95t-46.5 109t-26.5 115.5t-8.5 115.5q0 115 35.5 225t116.5 201h107zM769 726q81 -91 116.5 -201t35.5 -225q0 -57 -8.5 -115.5t-26.5 -115.5
t-46.5 -109t-68.5 -95h-108q40 46 68.5 99t47.5 110q18 56 26.5 113.5t8.5 112.5q0 112 -35.5 223.5t-116.5 202.5h107zM427 494v-255q0 -22 8.5 -31t27.5 -9q13 0 23 9.5t16 20.5v265h128v-392h-118v16q-25 -23 -72 -23q-63 0 -101.5 36.5t-38.5 106.5v256h127z" />
    <glyph glyph-name="uni24B1" unicode="&#x24b1;" horiz-adv-x="940" 
d="M278 726q-81 -91 -116.5 -202.5t-35.5 -223.5q0 -55 8.5 -112.5t27.5 -113.5q18 -57 46.5 -110t68.5 -99h-108q-40 43 -68.5 95t-46.5 109t-26.5 115.5t-8.5 115.5q0 115 35.5 225t116.5 201h107zM769 726q81 -91 116.5 -201t35.5 -225q0 -57 -8.5 -115.5t-26.5 -115.5
t-46.5 -109t-68.5 -95h-108q40 46 68.5 99t47.5 110q18 56 26.5 113.5t8.5 112.5q0 112 -35.5 223.5t-116.5 202.5h107zM470 261l64 216h130l-133 -391h-123l-132 391h133z" />
    <glyph glyph-name="uni24B2" unicode="&#x24b2;" horiz-adv-x="940" 
d="M611 499h119l-92 -392h-120l-49 190l-48 -190h-120l-92 392h119l38 -201l54 201h99l54 -201zM769 726q81 -91 116.5 -201t35.5 -225q0 -57 -8.5 -115.5t-26.5 -115.5t-46.5 -109t-68.5 -95h-108q40 46 68.5 99t47.5 110q18 56 26.5 113.5t8.5 112.5q0 112 -35.5 223.5
t-116.5 202.5h107zM278 726q-81 -91 -116.5 -202.5t-35.5 -223.5q0 -55 8.5 -112.5t27.5 -113.5q18 -57 46.5 -110t68.5 -99h-108q-40 43 -68.5 95t-46.5 109t-26.5 115.5t-8.5 115.5q0 115 35.5 225t116.5 201h107z" />
    <glyph glyph-name="uni24B3" unicode="&#x24b3;" horiz-adv-x="940" 
d="M667 104h-137l-63 93l-62 -93h-137l131 195l-132 197h138l62 -94l63 94h138l-132 -197zM769 726q81 -91 116.5 -201t35.5 -225q0 -57 -8.5 -115.5t-26.5 -115.5t-46.5 -109t-68.5 -95h-108q40 46 68.5 99t47.5 110q18 56 26.5 113.5t8.5 112.5q0 112 -35.5 223.5
t-116.5 202.5h107zM278 726q-81 -91 -116.5 -202.5t-35.5 -223.5q0 -55 8.5 -112.5t27.5 -113.5q18 -57 46.5 -110t68.5 -99h-108q-40 43 -68.5 95t-46.5 109t-26.5 115.5t-8.5 115.5q0 115 35.5 225t116.5 201h107z" />
    <glyph glyph-name="uni24B4" unicode="&#x24b4;" horiz-adv-x="940" 
d="M507 83q-15 -46 -45.5 -65t-78.5 -19q-19 0 -33 3t-35 12l15 96q14 -7 23 -9t20 -1q10 1 22 38l22 66l-133 326h129l60 -157l53 157h130zM769 726q81 -91 116.5 -201t35.5 -225q0 -57 -8.5 -115.5t-26.5 -115.5t-46.5 -109t-68.5 -95h-108q40 46 68.5 99t47.5 110
q18 56 26.5 113.5t8.5 112.5q0 112 -35.5 223.5t-116.5 202.5h107zM278 726q-81 -91 -116.5 -202.5t-35.5 -223.5q0 -55 8.5 -112.5t27.5 -113.5q18 -57 46.5 -110t68.5 -99h-108q-40 43 -68.5 95t-46.5 109t-26.5 115.5t-8.5 115.5q0 115 35.5 225t116.5 201h107z" />
    <glyph glyph-name="uni24B5" unicode="&#x24b5;" horiz-adv-x="940" 
d="M278 726q-81 -91 -116.5 -202.5t-35.5 -223.5q0 -55 8.5 -112.5t27.5 -113.5q18 -57 46.5 -110t68.5 -99h-108q-40 43 -68.5 95t-46.5 109t-26.5 115.5t-8.5 115.5q0 115 35.5 225t116.5 201h107zM769 726q81 -91 116.5 -201t35.5 -225q0 -57 -8.5 -115.5t-26.5 -115.5
t-46.5 -109t-68.5 -95h-108q40 46 68.5 99t47.5 110q18 56 26.5 113.5t8.5 112.5q0 112 -35.5 223.5t-116.5 202.5h107zM317 395v104h299v-83l-148 -205h154v-104h-311v83l147 205h-141z" />
    <glyph glyph-name="uni24D0" unicode="&#x24d0;" horiz-adv-x="940" 
d="M920 300q0 -95 -34 -176.5t-94 -142.5t-142.5 -95.5t-179.5 -34.5q-91 0 -172.5 33t-142.5 92q-62 60 -98 142.5t-36 181.5q0 94 34 176t94 143q60 60 142 94.5t179 34.5q91 0 173 -32.5t144 -91.5q61 -59 97 -141.5t36 -182.5zM821 299q0 75 -27 140.5t-74 114.5
q-47 48 -111 76.5t-139 28.5q-71 0 -134.5 -27t-111.5 -74q-48 -48 -76 -114t-28 -145q0 -75 26.5 -140.5t73.5 -113.5q47 -49 111 -77t139 -28q71 0 135 26.5t112 73.5t76 113t28 146zM301 220q0 32 14.5 59t40.5 47q25 19 60.5 29.5t78.5 9.5v9q0 14 -11 23.5t-34 9.5
q-15 0 -38 -7.5t-54 -33.5l-40 87q32 26 66 39.5t76 13.5q46 0 75 -14t46 -37t23.5 -52.5t6.5 -60.5v-235h-116v12q-11 -6 -32 -13t-42 -7q-34 0 -57 10t-37 27t-20 38.5t-6 45.5zM491 274q-31 0 -52 -13.5t-21 -32.5q0 -14 5.5 -21.5t23.5 -6.5q16 1 28.5 8.5t16.5 21.5
q2 6 2.5 11t0.5 7v26h-4z" />
    <glyph glyph-name="uni24D1" unicode="&#x24d1;" horiz-adv-x="940" 
d="M446 420q14 10 33 16t42 6q39 0 70 -15t53 -41q21 -27 32 -63.5t11 -79.5q0 -51 -14.5 -90t-38.5 -65q-25 -26 -57 -39.5t-66 -13.5q-41 0 -71 24v-16h-121v553h127v-176zM446 211q0 -29 12 -49t41 -20q34 0 47 25.5t13 73.5q0 43 -13 68.5t-46 25.5q-28 0 -41 -22.5
t-13 -52.5v-49zM920 300q0 -95 -34 -176.5t-94 -142.5t-142.5 -95.5t-179.5 -34.5q-91 0 -172.5 33t-142.5 92q-62 60 -98 142.5t-36 181.5q0 94 34 176t94 143q60 60 142 94.5t179 34.5q91 0 173 -32.5t144 -91.5q61 -59 97 -141.5t36 -182.5zM821 299q0 75 -27 140.5
t-74 114.5q-47 48 -111 76.5t-139 28.5q-71 0 -134.5 -27t-111.5 -74q-48 -48 -76 -114t-28 -145q0 -75 26.5 -140.5t73.5 -113.5q47 -49 111 -77t139 -28q71 0 135 26.5t112 73.5t76 113t28 146z" />
    <glyph glyph-name="uni24D2" unicode="&#x24d2;" horiz-adv-x="940" 
d="M598 125q-22 -12 -50.5 -21t-70.5 -9q-43 0 -78.5 14t-60.5 40q-26 26 -40.5 64t-14.5 86t14.5 86t41.5 65q27 26 64.5 40t84.5 14q34 0 59.5 -6t49.5 -21l-29 -105q-25 14 -42 19t-37 5q-39 0 -58 -24t-19 -69q0 -51 21.5 -75.5t56.5 -24.5q18 0 37 5t48 17zM920 300
q0 -95 -34 -176.5t-94 -142.5t-142.5 -95.5t-179.5 -34.5q-91 0 -172.5 33t-142.5 92q-62 60 -98 142.5t-36 181.5q0 94 34 176t94 143q60 60 142 94.5t179 34.5q91 0 173 -32.5t144 -91.5q61 -59 97 -141.5t36 -182.5zM821 299q0 75 -27 140.5t-74 114.5q-47 48 -111 76.5
t-139 28.5q-71 0 -134.5 -27t-111.5 -74q-48 -48 -76 -114t-28 -145q0 -75 26.5 -140.5t73.5 -113.5q47 -49 111 -77t139 -28q71 0 135 26.5t112 73.5t76 113t28 146z" />
    <glyph glyph-name="uni24D3" unicode="&#x24d3;" horiz-adv-x="940" 
d="M920 300q0 -95 -34 -176.5t-94 -142.5t-142.5 -95.5t-179.5 -34.5q-91 0 -172.5 33t-142.5 92q-62 60 -98 142.5t-36 181.5q0 94 34 176t94 143q60 60 142 94.5t179 34.5q91 0 173 -32.5t144 -91.5q61 -59 97 -141.5t36 -182.5zM821 299q0 75 -27 140.5t-74 114.5
q-47 48 -111 76.5t-139 28.5q-71 0 -134.5 -27t-111.5 -74q-48 -48 -76 -114t-28 -145q0 -75 26.5 -140.5t73.5 -113.5q47 -49 111 -77t139 -28q71 0 135 26.5t112 73.5t76 113t28 146zM627 43h-121v15q-29 -23 -71 -23q-35 0 -66.5 13.5t-55.5 39.5q-25 26 -39.5 65
t-14.5 90q0 43 11 79.5t33 63.5q21 26 52 41t70 15q23 0 42 -6t33 -16v176h127v-553zM500 260q0 30 -13 52.5t-41 22.5q-33 0 -46 -25.5t-13 -68.5q0 -48 13 -73.5t47 -25.5q29 0 41 20t12 49v49z" />
    <glyph glyph-name="uni24D4" unicode="&#x24d4;" horiz-adv-x="940" 
d="M470 404q-25 0 -39.5 -14t-20.5 -32h117q-7 20 -22 33t-35 13zM632 150q-42 -28 -76.5 -40.5t-76.5 -12.5q-36 0 -69.5 12t-58.5 38q-26 25 -41 63.5t-15 91.5q0 46 12.5 83.5t36.5 64.5q23 26 55 40t71 14q46 0 79.5 -17.5t54.5 -48.5q20 -32 28.5 -77.5t5.5 -100.5
h-230q6 -34 27 -47t49 -13q22 0 48 7t63 30zM920 300q0 -95 -34 -176.5t-94 -142.5t-142.5 -95.5t-179.5 -34.5q-91 0 -172.5 33t-142.5 92q-62 60 -98 142.5t-36 181.5q0 94 34 176t94 143q60 60 142 94.5t179 34.5q91 0 173 -32.5t144 -91.5q61 -59 97 -141.5t36 -182.5z
M821 299q0 75 -27 140.5t-74 114.5q-47 48 -111 76.5t-139 28.5q-71 0 -134.5 -27t-111.5 -74q-48 -48 -76 -114t-28 -145q0 -75 26.5 -140.5t73.5 -113.5q47 -49 111 -77t139 -28q71 0 135 26.5t112 73.5t76 113t28 146z" />
    <glyph glyph-name="uni24D5" unicode="&#x24d5;" horiz-adv-x="940" 
d="M527 470q-11 0 -15.5 -5.5t-4.5 -21.5v-37h71v-105h-71v-290h-128v290h-44v105h44v37q0 63 32 97.5t98 34.5h66v-105h-48zM920 300q0 -95 -34 -176.5t-94 -142.5t-142.5 -95.5t-179.5 -34.5q-91 0 -172.5 33t-142.5 92q-62 60 -98 142.5t-36 181.5q0 94 34 176t94 143
q60 60 142 94.5t179 34.5q91 0 173 -32.5t144 -91.5q61 -59 97 -141.5t36 -182.5zM821 299q0 75 -27 140.5t-74 114.5q-47 48 -111 76.5t-139 28.5q-71 0 -134.5 -27t-111.5 -74q-48 -48 -76 -114t-28 -145q0 -75 26.5 -140.5t73.5 -113.5q47 -49 111 -77t139 -28
q71 0 135 26.5t112 73.5t76 113t28 146z" />
    <glyph glyph-name="uni24D6" unicode="&#x24d6;" horiz-adv-x="940" 
d="M920 300q0 -95 -34 -176.5t-94 -142.5t-142.5 -95.5t-179.5 -34.5q-91 0 -172.5 33t-142.5 92q-62 60 -98 142.5t-36 181.5q0 94 34 176t94 143q60 60 142 94.5t179 34.5q91 0 173 -32.5t144 -91.5q61 -59 97 -141.5t36 -182.5zM821 299q0 75 -27 140.5t-74 114.5
q-47 48 -111 76.5t-139 28.5q-71 0 -134.5 -27t-111.5 -74q-48 -48 -76 -114t-28 -145q0 -75 26.5 -140.5t73.5 -113.5q47 -49 111 -77t139 -28q71 0 135 26.5t112 73.5t76 113t28 146zM643 233q0 -53 -10 -94.5t-32 -70.5q-23 -29 -59.5 -44t-90.5 -15q-35 0 -66.5 8
t-71.5 34l36 86q33 -18 55 -24t49 -5q26 1 44.5 14.5t29.5 49.5q-17 -16 -40 -22t-45 -6q-75 0 -121 51t-46 147q0 55 15.5 94t40.5 64t57 36.5t64 11.5q23 0 47 -8.5t39 -30.5v31h105v-307zM522 372q0 29 -14.5 50.5t-43.5 21.5q-68 0 -68 -100q0 -45 16 -70.5t51 -25.5
q28 0 43.5 24t15.5 54v46z" />
    <glyph glyph-name="uni24D7" unicode="&#x24d7;" horiz-adv-x="940" 
d="M526 294q0 44 -34 43q-23 -1 -34 -15.5t-21 -36.5v-243h-128v550h128v-170q20 11 35.5 14.5t29.5 4.5q38 2 66.5 -8.5t47.5 -30.5t28.5 -48t9.5 -60v-252h-128v252zM920 300q0 -95 -34 -176.5t-94 -142.5t-142.5 -95.5t-179.5 -34.5q-91 0 -172.5 33t-142.5 92
q-62 60 -98 142.5t-36 181.5q0 94 34 176t94 143q60 60 142 94.5t179 34.5q91 0 173 -32.5t144 -91.5q61 -59 97 -141.5t36 -182.5zM821 299q0 75 -27 140.5t-74 114.5q-47 48 -111 76.5t-139 28.5q-71 0 -134.5 -27t-111.5 -74q-48 -48 -76 -114t-28 -145
q0 -75 26.5 -140.5t73.5 -113.5q47 -49 111 -77t139 -28q71 0 135 26.5t112 73.5t76 113t28 146z" />
    <glyph glyph-name="uni24D8" unicode="&#x24d8;" horiz-adv-x="940" 
d="M533 424v-382h-128v382h128zM405 456v118h128v-118h-128zM920 300q0 -95 -34 -176.5t-94 -142.5t-142.5 -95.5t-179.5 -34.5q-91 0 -172.5 33t-142.5 92q-62 60 -98 142.5t-36 181.5q0 94 34 176t94 143q60 60 142 94.5t179 34.5q91 0 173 -32.5t144 -91.5
q61 -59 97 -141.5t36 -182.5zM821 299q0 75 -27 140.5t-74 114.5q-47 48 -111 76.5t-139 28.5q-71 0 -134.5 -27t-111.5 -74q-48 -48 -76 -114t-28 -145q0 -75 26.5 -140.5t73.5 -113.5q47 -49 111 -77t139 -28q71 0 135 26.5t112 73.5t76 113t28 146z" />
    <glyph glyph-name="uni24D9" unicode="&#x24d9;" horiz-adv-x="940" 
d="M346 80q42 4 60.5 16t18.5 43v311h128v-311q0 -33 -8.5 -61t-30.5 -49q-23 -21 -61 -34.5t-96 -17.5zM425 482v118h128v-118h-128zM920 300q0 -95 -34 -176.5t-94 -142.5t-142.5 -95.5t-179.5 -34.5q-91 0 -172.5 33t-142.5 92q-62 60 -98 142.5t-36 181.5q0 94 34 176
t94 143q60 60 142 94.5t179 34.5q91 0 173 -32.5t144 -91.5q61 -59 97 -141.5t36 -182.5zM821 299q0 75 -27 140.5t-74 114.5q-47 48 -111 76.5t-139 28.5q-71 0 -134.5 -27t-111.5 -74q-48 -48 -76 -114t-28 -145q0 -75 26.5 -140.5t73.5 -113.5q47 -49 111 -77t139 -28
q71 0 135 26.5t112 73.5t76 113t28 146z" />
    <glyph glyph-name="uni24DA" unicode="&#x24da;" horiz-adv-x="940" 
d="M534 444h144l-153 -169l150 -223h-134l-82 124v-124h-125v553h125v-244zM920 300q0 -95 -34 -176.5t-94 -142.5t-142.5 -95.5t-179.5 -34.5q-91 0 -172.5 33t-142.5 92q-62 60 -98 142.5t-36 181.5q0 94 34 176t94 143q60 60 142 94.5t179 34.5q91 0 173 -32.5t144 -91.5
q61 -59 97 -141.5t36 -182.5zM821 299q0 75 -27 140.5t-74 114.5q-47 48 -111 76.5t-139 28.5q-71 0 -134.5 -27t-111.5 -74q-48 -48 -76 -114t-28 -145q0 -75 26.5 -140.5t73.5 -113.5q47 -49 111 -77t139 -28q71 0 135 26.5t112 73.5t76 113t28 146z" />
    <glyph glyph-name="uni24DB" unicode="&#x24db;" horiz-adv-x="940" 
d="M533 575v-533h-128v533h128zM920 300q0 -95 -34 -176.5t-94 -142.5t-142.5 -95.5t-179.5 -34.5q-91 0 -172.5 33t-142.5 92q-62 60 -98 142.5t-36 181.5q0 94 34 176t94 143q60 60 142 94.5t179 34.5q91 0 173 -32.5t144 -91.5q61 -59 97 -141.5t36 -182.5zM821 299
q0 75 -27 140.5t-74 114.5q-47 48 -111 76.5t-139 28.5q-71 0 -134.5 -27t-111.5 -74q-48 -48 -76 -114t-28 -145q0 -75 26.5 -140.5t73.5 -113.5q47 -49 111 -77t139 -28q71 0 135 26.5t112 73.5t76 113t28 146z" />
    <glyph glyph-name="uni24DC" unicode="&#x24dc;" horiz-adv-x="940" 
d="M610 367q0 20 -5.5 28t-20.5 8q-18 0 -42 -33v-263h-125v260q0 20 -7.5 28t-24.5 8q-11 0 -19.5 -7.5t-16.5 -21.5v-264h-125v390h115v-13q16 11 31 15t40 4q55 0 91 -48q21 25 49.5 37t52.5 12q69 0 100.5 -37.5t31.5 -101.5v-261h-125v260zM920 300q0 -95 -34 -176.5
t-94 -142.5t-142.5 -95.5t-179.5 -34.5q-91 0 -172.5 33t-142.5 92q-62 60 -98 142.5t-36 181.5q0 94 34 176t94 143q60 60 142 94.5t179 34.5q91 0 173 -32.5t144 -91.5q61 -59 97 -141.5t36 -182.5zM821 299q0 75 -27 140.5t-74 114.5q-47 48 -111 76.5t-139 28.5
q-71 0 -134.5 -27t-111.5 -74q-48 -48 -76 -114t-28 -145q0 -75 26.5 -140.5t73.5 -113.5q47 -49 111 -77t139 -28q71 0 135 26.5t112 73.5t76 113t28 146z" />
    <glyph glyph-name="uni24DD" unicode="&#x24dd;" horiz-adv-x="940" 
d="M513 362q0 22 -8.5 31t-27.5 9q-13 0 -23 -9.5t-16 -20.5v-265h-128v392h118v-16q26 23 72 23q63 0 101.5 -36.5t38.5 -106.5v-256h-127v255zM920 300q0 -95 -34 -176.5t-94 -142.5t-142.5 -95.5t-179.5 -34.5q-91 0 -172.5 33t-142.5 92q-62 60 -98 142.5t-36 181.5
q0 94 34 176t94 143q60 60 142 94.5t179 34.5q91 0 173 -32.5t144 -91.5q61 -59 97 -141.5t36 -182.5zM821 299q0 75 -27 140.5t-74 114.5q-47 48 -111 76.5t-139 28.5q-71 0 -134.5 -27t-111.5 -74q-48 -48 -76 -114t-28 -145q0 -75 26.5 -140.5t73.5 -113.5
q47 -49 111 -77t139 -28q71 0 135 26.5t112 73.5t76 113t28 146z" />
    <glyph glyph-name="uni24DE" unicode="&#x24de;" horiz-adv-x="940" 
d="M470 99q-40 0 -74 13t-59 39q-25 25 -39 62.5t-14 86.5q0 51 14 89.5t39 64.5q24 26 58 39t75 13q40 0 74 -13t59 -39q24 -26 38 -64.5t14 -89.5q0 -49 -14 -86.5t-39 -62.5q-25 -26 -59 -39t-73 -13zM470 406q-33 0 -47 -30.5t-14 -75.5q0 -51 17 -76t44 -25
q26 0 43.5 25t17.5 76q0 45 -14.5 75.5t-46.5 30.5zM920 300q0 -95 -34 -176.5t-94 -142.5t-142.5 -95.5t-179.5 -34.5q-91 0 -172.5 33t-142.5 92q-62 60 -98 142.5t-36 181.5q0 94 34 176t94 143q60 60 142 94.5t179 34.5q91 0 173 -32.5t144 -91.5q61 -59 97 -141.5
t36 -182.5zM821 299q0 75 -27 140.5t-74 114.5q-47 48 -111 76.5t-139 28.5q-71 0 -134.5 -27t-111.5 -74q-48 -48 -76 -114t-28 -145q0 -75 26.5 -140.5t73.5 -113.5q47 -49 111 -77t139 -28q71 0 135 26.5t112 73.5t76 113t28 146z" />
    <glyph glyph-name="uni24DF" unicode="&#x24df;" horiz-adv-x="940" 
d="M920 300q0 -95 -34 -176.5t-94 -142.5t-142.5 -95.5t-179.5 -34.5q-91 0 -172.5 33t-142.5 92q-62 60 -98 142.5t-36 181.5q0 94 34 176t94 143q60 60 142 94.5t179 34.5q91 0 173 -32.5t144 -91.5q61 -59 97 -141.5t36 -182.5zM821 299q0 75 -27 140.5t-74 114.5
q-47 48 -111 76.5t-139 28.5q-71 0 -134.5 -27t-111.5 -74q-48 -48 -76 -114t-28 -145q0 -75 26.5 -140.5t73.5 -113.5q47 -49 111 -77t139 -28q71 0 135 26.5t112 73.5t76 113t28 146zM317 547h121v-17q30 24 71 24q36 0 68 -13.5t56 -39.5t38 -65t14 -90q0 -43 -11 -79.5
t-32 -62.5q-21 -27 -52 -42t-71 -15q-23 0 -41 6.5t-32 15.5v-153h-129v531zM444 329q0 -30 13 -52.5t41 -22.5q35 0 47 25.5t12 68.5q0 48 -13 73.5t-47 25.5q-29 0 -41 -20t-12 -49v-49z" />
    <glyph glyph-name="uni24E0" unicode="&#x24e0;" horiz-adv-x="940" 
d="M507 169q-14 -9 -32 -15.5t-41 -6.5q-40 0 -71 15t-52 42q-21 26 -32 62.5t-11 79.5q0 51 14 90t38 65t56 39.5t68 13.5q41 0 71 -24v17h121v-531h-129v153zM509 378q0 29 -12 49t-41 20q-34 0 -47 -25.5t-13 -73.5q0 -43 12 -68.5t47 -25.5q28 0 41 22.5t13 52.5v49z
M920 300q0 -95 -34 -176.5t-94 -142.5t-142.5 -95.5t-179.5 -34.5q-91 0 -172.5 33t-142.5 92q-62 60 -98 142.5t-36 181.5q0 94 34 176t94 143q60 60 142 94.5t179 34.5q91 0 173 -32.5t144 -91.5q61 -59 97 -141.5t36 -182.5zM821 299q0 75 -27 140.5t-74 114.5
q-47 48 -111 76.5t-139 28.5q-71 0 -134.5 -27t-111.5 -74q-48 -48 -76 -114t-28 -145q0 -75 26.5 -140.5t73.5 -113.5q47 -49 111 -77t139 -28q71 0 135 26.5t112 73.5t76 113t28 146z" />
    <glyph glyph-name="uni24E1" unicode="&#x24e1;" horiz-adv-x="940" 
d="M486 477q23 19 54 19q15 0 32.5 -3.5t34.5 -11.5v-113q-26 13 -38.5 16t-22.5 3q-24 0 -35.5 -20t-11.5 -48v-222h-126v392h113v-12zM920 300q0 -95 -34 -176.5t-94 -142.5t-142.5 -95.5t-179.5 -34.5q-91 0 -172.5 33t-142.5 92q-62 60 -98 142.5t-36 181.5q0 94 34 176
t94 143q60 60 142 94.5t179 34.5q91 0 173 -32.5t144 -91.5q61 -59 97 -141.5t36 -182.5zM821 299q0 75 -27 140.5t-74 114.5q-47 48 -111 76.5t-139 28.5q-71 0 -134.5 -27t-111.5 -74q-48 -48 -76 -114t-28 -145q0 -75 26.5 -140.5t73.5 -113.5q47 -49 111 -77t139 -28
q71 0 135 26.5t112 73.5t76 113t28 146z" />
    <glyph glyph-name="uni24E2" unicode="&#x24e2;" horiz-adv-x="940" 
d="M362 228q32 -17 51.5 -22t39.5 -5q17 0 24 4t9 15q2 14 -9.5 23.5t-34.5 18.5q-54 21 -78 54t-24 75q0 30 11.5 51.5t31.5 36.5q19 14 45 21t55 7q15 0 27.5 -1.5t24.5 -4.5q12 -4 25 -10.5t30 -16.5l-33 -95q-14 13 -33 19.5t-36 8.5q-14 2 -23 -2t-9 -12
q0 -13 11.5 -21.5t35.5 -18.5q57 -23 79.5 -56t22.5 -78q0 -60 -39.5 -90.5t-114.5 -30.5q-35 0 -61.5 10.5t-58.5 28.5zM920 300q0 -95 -34 -176.5t-94 -142.5t-142.5 -95.5t-179.5 -34.5q-91 0 -172.5 33t-142.5 92q-62 60 -98 142.5t-36 181.5q0 94 34 176t94 143
q60 60 142 94.5t179 34.5q91 0 173 -32.5t144 -91.5q61 -59 97 -141.5t36 -182.5zM821 299q0 75 -27 140.5t-74 114.5q-47 48 -111 76.5t-139 28.5q-71 0 -134.5 -27t-111.5 -74q-48 -48 -76 -114t-28 -145q0 -75 26.5 -140.5t73.5 -113.5q47 -49 111 -77t139 -28
q71 0 135 26.5t112 73.5t76 113t28 146z" />
    <glyph glyph-name="uni24E3" unicode="&#x24e3;" horiz-adv-x="940" 
d="M506 446h67v-105h-67v-166q0 -14 2.5 -21t10.5 -7q11 0 23 0.5t31 4.5l7 -95q-24 -8 -47 -11.5t-37 -2.5q-35 1 -57.5 12t-35.5 29q-14 18 -19.5 41t-5.5 48v168h-44v105h44v90h128v-90zM920 300q0 -95 -34 -176.5t-94 -142.5t-142.5 -95.5t-179.5 -34.5q-91 0 -172.5 33
t-142.5 92q-62 60 -98 142.5t-36 181.5q0 94 34 176t94 143q60 60 142 94.5t179 34.5q91 0 173 -32.5t144 -91.5q61 -59 97 -141.5t36 -182.5zM821 299q0 75 -27 140.5t-74 114.5q-47 48 -111 76.5t-139 28.5q-71 0 -134.5 -27t-111.5 -74q-48 -48 -76 -114t-28 -145
q0 -75 26.5 -140.5t73.5 -113.5q47 -49 111 -77t139 -28q71 0 135 26.5t112 73.5t76 113t28 146z" />
    <glyph glyph-name="uni24E4" unicode="&#x24e4;" horiz-adv-x="940" 
d="M427 239q0 -22 8.5 -31t27.5 -9q13 0 23 9.5t16 20.5v265h128v-392h-118v16q-25 -23 -72 -23q-63 0 -101.5 36.5t-38.5 106.5v256h127v-255zM920 300q0 -95 -34 -176.5t-94 -142.5t-142.5 -95.5t-179.5 -34.5q-91 0 -172.5 33t-142.5 92q-62 60 -98 142.5t-36 181.5
q0 94 34 176t94 143q60 60 142 94.5t179 34.5q91 0 173 -32.5t144 -91.5q61 -59 97 -141.5t36 -182.5zM821 299q0 75 -27 140.5t-74 114.5q-47 48 -111 76.5t-139 28.5q-71 0 -134.5 -27t-111.5 -74q-48 -48 -76 -114t-28 -145q0 -75 26.5 -140.5t73.5 -113.5
q47 -49 111 -77t139 -28q71 0 135 26.5t112 73.5t76 113t28 146z" />
    <glyph glyph-name="uni24E5" unicode="&#x24e5;" horiz-adv-x="940" 
d="M664 477l-133 -391h-123l-132 391h133l61 -216l64 216h130zM920 300q0 -95 -34 -176.5t-94 -142.5t-142.5 -95.5t-179.5 -34.5q-91 0 -172.5 33t-142.5 92q-62 60 -98 142.5t-36 181.5q0 94 34 176t94 143q60 60 142 94.5t179 34.5q91 0 173 -32.5t144 -91.5
q61 -59 97 -141.5t36 -182.5zM821 299q0 75 -27 140.5t-74 114.5q-47 48 -111 76.5t-139 28.5q-71 0 -134.5 -27t-111.5 -74q-48 -48 -76 -114t-28 -145q0 -75 26.5 -140.5t73.5 -113.5q47 -49 111 -77t139 -28q71 0 135 26.5t112 73.5t76 113t28 146z" />
    <glyph glyph-name="uni24E6" unicode="&#x24e6;" horiz-adv-x="940" 
d="M920 300q0 -95 -34 -176.5t-94 -142.5t-142.5 -95.5t-179.5 -34.5q-91 0 -172.5 33t-142.5 92q-62 60 -98 142.5t-36 181.5q0 94 34 176t94 143q60 60 142 94.5t179 34.5q91 0 173 -32.5t144 -91.5q61 -59 97 -141.5t36 -182.5zM821 299q0 75 -27 140.5t-74 114.5
q-47 48 -111 76.5t-139 28.5q-71 0 -134.5 -27t-111.5 -74q-48 -48 -76 -114t-28 -145q0 -75 26.5 -140.5t73.5 -113.5q47 -49 111 -77t139 -28q71 0 135 26.5t112 73.5t76 113t28 146zM611 499h119l-92 -392h-120l-49 190l-48 -190h-120l-92 392h119l38 -201l54 201h99
l54 -201z" />
    <glyph glyph-name="uni24E7" unicode="&#x24e7;" horiz-adv-x="940" 
d="M920 300q0 -95 -34 -176.5t-94 -142.5t-142.5 -95.5t-179.5 -34.5q-91 0 -172.5 33t-142.5 92q-62 60 -98 142.5t-36 181.5q0 94 34 176t94 143q60 60 142 94.5t179 34.5q91 0 173 -32.5t144 -91.5q61 -59 97 -141.5t36 -182.5zM821 299q0 75 -27 140.5t-74 114.5
q-47 48 -111 76.5t-139 28.5q-71 0 -134.5 -27t-111.5 -74q-48 -48 -76 -114t-28 -145q0 -75 26.5 -140.5t73.5 -113.5q47 -49 111 -77t139 -28q71 0 135 26.5t112 73.5t76 113t28 146zM667 104h-137l-63 93l-62 -93h-137l131 195l-132 197h138l62 -94l63 94h138l-132 -197z
" />
    <glyph glyph-name="uni24E8" unicode="&#x24e8;" horiz-adv-x="940" 
d="M920 300q0 -95 -34 -176.5t-94 -142.5t-142.5 -95.5t-179.5 -34.5q-91 0 -172.5 33t-142.5 92q-62 60 -98 142.5t-36 181.5q0 94 34 176t94 143q60 60 142 94.5t179 34.5q91 0 173 -32.5t144 -91.5q61 -59 97 -141.5t36 -182.5zM821 299q0 75 -27 140.5t-74 114.5
q-47 48 -111 76.5t-139 28.5q-71 0 -134.5 -27t-111.5 -74q-48 -48 -76 -114t-28 -145q0 -75 26.5 -140.5t73.5 -113.5q47 -49 111 -77t139 -28q71 0 135 26.5t112 73.5t76 113t28 146zM507 83q-15 -46 -45.5 -65t-78.5 -19q-19 0 -33 3t-35 12l15 96q14 -7 23 -9t20 -1
q10 1 22 38l22 66l-133 326h129l60 -157l53 157h130z" />
    <glyph glyph-name="uni24E9" unicode="&#x24e9;" horiz-adv-x="940" 
d="M616 499v-83l-148 -205h154v-104h-311v83l147 205h-141v104h299zM920 300q0 -95 -34 -176.5t-94 -142.5t-142.5 -95.5t-179.5 -34.5q-91 0 -172.5 33t-142.5 92q-62 60 -98 142.5t-36 181.5q0 94 34 176t94 143q60 60 142 94.5t179 34.5q91 0 173 -32.5t144 -91.5
q61 -59 97 -141.5t36 -182.5zM821 299q0 75 -27 140.5t-74 114.5q-47 48 -111 76.5t-139 28.5q-71 0 -134.5 -27t-111.5 -74q-48 -48 -76 -114t-28 -145q0 -75 26.5 -140.5t73.5 -113.5q47 -49 111 -77t139 -28q71 0 135 26.5t112 73.5t76 113t28 146z" />
    <glyph glyph-name="SF100000" unicode="&#x2500;" horiz-adv-x="940" 
d="M0 315h940v-29h-940v29z" />
    <glyph glyph-name="uni2501" unicode="&#x2501;" horiz-adv-x="940" 
d="M0 325h920v-54h-920v54z" />
    <glyph glyph-name="SF110000" unicode="&#x2502;" horiz-adv-x="940" 
d="M455 800h29v-1000h-29v1000z" />
    <glyph glyph-name="uni2503" unicode="&#x2503;" horiz-adv-x="940" 
d="M442 800h54v-1000h-54v1000z" />
    <glyph glyph-name="SF010000" unicode="&#x250c;" horiz-adv-x="940" 
d="M484 -200h-29v515h485v-29h-456v-486z" />
    <glyph glyph-name="uni250D" unicode="&#x250d;" horiz-adv-x="940" 
d="M488 -200h-38v536h490v-72h-452v-464z" />
    <glyph glyph-name="uni250E" unicode="&#x250e;" horiz-adv-x="940" 
d="M507 -200h-76v518h509v-36h-433v-482z" />
    <glyph glyph-name="uni250F" unicode="&#x250f;" horiz-adv-x="940" 
d="M496 -200h-54v525h498v-54h-444v-471z" />
    <glyph glyph-name="SF030000" unicode="&#x2510;" horiz-adv-x="940" 
d="M455 286h-455v29h484v-515h-29v486z" />
    <glyph glyph-name="uni2511" unicode="&#x2511;" horiz-adv-x="940" 
d="M450 264h-450v72h488v-536h-38v464z" />
    <glyph glyph-name="uni2512" unicode="&#x2512;" horiz-adv-x="940" 
d="M431 282h-431v36h507v-518h-76v482z" />
    <glyph glyph-name="uni2513" unicode="&#x2513;" horiz-adv-x="940" 
d="M442 271h-442v54h496v-525h-54v471z" />
    <glyph glyph-name="SF020000" unicode="&#x2514;" horiz-adv-x="940" 
d="M455 800h29v-485h426v-29h-455v514z" />
    <glyph glyph-name="uni2515" unicode="&#x2515;" horiz-adv-x="940" 
d="M450 800h38v-464h452v-72h-490v536z" />
    <glyph glyph-name="uni2516" unicode="&#x2516;" horiz-adv-x="940" 
d="M431 800h76v-482h433v-36h-509v518z" />
    <glyph glyph-name="uni2517" unicode="&#x2517;" horiz-adv-x="940" 
d="M442 800h54v-475h444v-54h-498v529z" />
    <glyph glyph-name="SF040000" unicode="&#x2518;" horiz-adv-x="940" 
d="M0 315h455v485h29v-514h-484v29z" />
    <glyph glyph-name="uni2519" unicode="&#x2519;" horiz-adv-x="940" 
d="M0 336h450v464h38v-536h-488v72z" />
    <glyph glyph-name="uni251A" unicode="&#x251a;" horiz-adv-x="940" 
d="M0 318h431v482h76v-518h-507v36z" />
    <glyph glyph-name="uni251B" unicode="&#x251b;" horiz-adv-x="940" 
d="M0 325h442v475h54v-529h-496v54z" />
    <glyph glyph-name="SF080000" unicode="&#x251c;" horiz-adv-x="940" 
d="M484 -200h-29v1000h29v-485h436v-29h-436v-486z" />
    <glyph glyph-name="uni251D" unicode="&#x251d;" horiz-adv-x="940" 
d="M488 -200h-38v1000h38v-464h452v-72h-452v-464z" />
    <glyph glyph-name="uni251E" unicode="&#x251e;" horiz-adv-x="940" 
d="M487 -200h-37v500h-19v500h76v-482h433v-36h-453v-482z" />
    <glyph glyph-name="uni251F" unicode="&#x251f;" horiz-adv-x="940" 
d="M507 -200h-76v500h19v500h38v-482h452v-36h-433v-482z" />
    <glyph glyph-name="uni2520" unicode="&#x2520;" horiz-adv-x="940" 
d="M507 -200h-76v1000h76v-482h433v-36h-433v-482z" />
    <glyph glyph-name="uni2521" unicode="&#x2521;" horiz-adv-x="940" 
d="M488 -200h-38v500h-19v500h76v-464h433v-72h-452v-464z" />
    <glyph glyph-name="uni2522" unicode="&#x2522;" horiz-adv-x="940" 
d="M507 -200h-76v500h19v500h38v-464h452v-72h-433v-464z" />
    <glyph glyph-name="uni2523" unicode="&#x2523;" horiz-adv-x="940" 
d="M496 -200h-54v1000h54v-475h444v-54h-444v-471z" />
    <glyph glyph-name="SF090000" unicode="&#x2524;" horiz-adv-x="940" 
d="M455 286h-455v29h455v485h29v-1000h-29v486z" />
    <glyph glyph-name="uni2525" unicode="&#x2525;" horiz-adv-x="940" 
d="M450 264h-450v72h450v464h38v-1000h-38v464z" />
    <glyph glyph-name="uni2526" unicode="&#x2526;" horiz-adv-x="940" 
d="M488 -200h-38v482h-450v36h431v482h76v-500h-19v-500z" />
    <glyph glyph-name="uni2527" unicode="&#x2527;" horiz-adv-x="940" 
d="M431 282h-431v36h450v482h38v-500h19v-500h-76v482z" />
    <glyph glyph-name="uni2528" unicode="&#x2528;" horiz-adv-x="940" 
d="M431 282h-431v36h431v482h76v-1000h-76v482z" />
    <glyph glyph-name="uni2529" unicode="&#x2529;" horiz-adv-x="940" 
d="M488 -200h-38v464h-450v72h431v464h76v-500h-19v-500z" />
    <glyph glyph-name="uni252A" unicode="&#x252a;" horiz-adv-x="940" 
d="M431 264h-431v72h450v464h38v-500h19v-500h-76v464z" />
    <glyph glyph-name="uni252B" unicode="&#x252b;" horiz-adv-x="940" 
d="M442 271h-442v54h442v475h54v-1000h-54v471z" />
    <glyph glyph-name="SF060000" unicode="&#x252c;" horiz-adv-x="940" 
d="M484 -200h-29v486h-455v29h940v-29h-456v-486z" />
    <glyph glyph-name="uni252D" unicode="&#x252d;" horiz-adv-x="940" 
d="M488 -200h-38v464h-450v72h469v-18h471v-36h-452v-482z" />
    <glyph glyph-name="uni252E" unicode="&#x252e;" horiz-adv-x="940" 
d="M488 -200h-38v482h-450v36h469v18h471v-72h-452v-464z" />
    <glyph glyph-name="uni252F" unicode="&#x252f;" horiz-adv-x="940" 
d="M488 -200h-38v464h-450v72h940v-72h-452v-464z" />
    <glyph glyph-name="uni2530" unicode="&#x2530;" horiz-adv-x="940" 
d="M507 -200h-76v482h-431v36h940v-36h-433v-482z" />
    <glyph glyph-name="uni2531" unicode="&#x2531;" horiz-adv-x="940" 
d="M507 -200h-76v464h-431v72h469v-18h471v-36h-433v-482z" />
    <glyph glyph-name="uni2532" unicode="&#x2532;" horiz-adv-x="940" 
d="M507 -200h-76v482h-431v36h469v18h471v-72h-433v-464z" />
    <glyph glyph-name="uni2533" unicode="&#x2533;" horiz-adv-x="940" 
d="M496 -200h-54v471h-442v54h920v-54h-424v-471z" />
    <glyph glyph-name="SF070000" unicode="&#x2534;" horiz-adv-x="940" 
d="M0 315h455v485h29v-485h436v-29h-920v29z" />
    <glyph glyph-name="uni2535" unicode="&#x2535;" horiz-adv-x="940" 
d="M469 264h-469v72h450v464h38v-482h452v-36h-471v-18z" />
    <glyph glyph-name="uni2536" unicode="&#x2536;" horiz-adv-x="940" 
d="M469 282h-469v36h450v482h38v-464h452v-72h-471v18z" />
    <glyph glyph-name="uni2537" unicode="&#x2537;" horiz-adv-x="940" 
d="M0 336h450v464h38v-464h452v-72h-940v72z" />
    <glyph glyph-name="uni2538" unicode="&#x2538;" horiz-adv-x="940" 
d="M0 318h431v482h76v-482h433v-36h-940v36z" />
    <glyph glyph-name="uni2539" unicode="&#x2539;" horiz-adv-x="940" 
d="M469 264h-469v72h431v464h76v-482h433v-36h-471v-18z" />
    <glyph glyph-name="uni253A" unicode="&#x253a;" horiz-adv-x="940" 
d="M469 282h-469v36h431v482h76v-464h433v-72h-471v18z" />
    <glyph glyph-name="uni253B" unicode="&#x253b;" horiz-adv-x="940" 
d="M0 325h442v475h54v-475h444v-54h-940v54z" />
    <glyph glyph-name="SF050000" unicode="&#x253c;" horiz-adv-x="940" 
d="M484 -200h-29v485h-455v29h455v486h29v-486h436v-29h-436v-485z" />
    <glyph glyph-name="uni253D" unicode="&#x253d;" horiz-adv-x="940" 
d="M488 -200h-38v464h-450v76h450v460h38v-482h452v-36h-452v-482z" />
    <glyph glyph-name="uni253E" unicode="&#x253e;" horiz-adv-x="940" 
d="M488 -200h-38v482h-450v36h450v482h38v-464h452v-72h-452v-464z" />
    <glyph glyph-name="uni253F" unicode="&#x253f;" horiz-adv-x="940" 
d="M488 -200h-38v464h-450v72h450v464h38v-464h452v-72h-452v-464z" />
    <glyph glyph-name="uni2540" unicode="&#x2540;" horiz-adv-x="940" 
d="M488 -200h-38v482h-450v36h431v482h76v-482h433v-36h-452v-482z" />
    <glyph glyph-name="uni2541" unicode="&#x2541;" horiz-adv-x="940" 
d="M507 -200h-76v482h-431v36h450v482h38v-482h452v-36h-433v-482z" />
    <glyph glyph-name="uni2542" unicode="&#x2542;" horiz-adv-x="940" 
d="M507 -200h-76v482h-431v36h431v482h76v-482h433v-36h-433v-482z" />
    <glyph glyph-name="uni2543" unicode="&#x2543;" horiz-adv-x="940" 
d="M488 -200h-38v464h-450v72h431v464h76v-482h433v-36h-452v-482z" />
    <glyph glyph-name="uni2544" unicode="&#x2544;" horiz-adv-x="940" 
d="M488 -200h-38v482h-450v36h431v482h76v-464h433v-72h-452v-464z" />
    <glyph glyph-name="uni2545" unicode="&#x2545;" horiz-adv-x="940" 
d="M507 -200h-76v464h-431v72h450v464h38v-482h452v-36h-433v-482z" />
    <glyph glyph-name="uni2546" unicode="&#x2546;" horiz-adv-x="940" 
d="M507 -200h-76v482h-431v36h450v482h38v-464h452v-72h-433v-464z" />
    <glyph glyph-name="uni2547" unicode="&#x2547;" horiz-adv-x="940" 
d="M488 -200h-38v464h-450v72h431v464h76v-464h433v-72h-452v-464z" />
    <glyph glyph-name="uni2548" unicode="&#x2548;" horiz-adv-x="940" 
d="M507 -200h-76v464h-431v72h450v464h38v-464h452v-72h-433v-464z" />
    <glyph glyph-name="uni2549" unicode="&#x2549;" horiz-adv-x="940" 
d="M507 -200h-76v464h-431v72h431v464h76v-482h433v-36h-433v-482z" />
    <glyph glyph-name="uni254A" unicode="&#x254a;" horiz-adv-x="940" 
d="M507 -200h-76v482h-431v36h431v482h76v-464h433v-72h-433v-464z" />
    <glyph glyph-name="uni254B" unicode="&#x254b;" horiz-adv-x="940" 
d="M496 -200h-54v471h-442v54h442v475h54v-475h444v-54h-444v-471z" />
    <glyph glyph-name="shade" unicode="&#x2592;" horiz-adv-x="940" 
d="M886 680q0 -15 -10 -24t-23 -9q-15 0 -25.5 9t-10.5 24t10.5 24.5t25.5 9.5q13 0 23 -9.5t10 -24.5zM759 680q0 -15 -10 -24t-25 -9t-25 9t-10 24t10 25t25 10t25 -10t10 -25zM886 553q0 -15 -10 -25t-23 -10q-15 0 -25.5 9.5t-10.5 25.5q0 15 10.5 24.5t25.5 9.5
q13 0 23 -9.5t10 -24.5zM632 680q0 -15 -9.5 -24t-24.5 -9t-25 9t-10 24t10 25t25 10t24.5 -10t9.5 -25zM759 554q0 -16 -10 -26t-25 -10t-25 10t-10 26q0 15 10 24.5t25 9.5t25 -9.5t10 -24.5zM886 425q0 -15 -10 -24.5t-23 -9.5q-15 0 -25.5 9.5t-10.5 24.5t10.5 25
t25.5 10q13 0 23 -10t10 -25zM632 554q0 -16 -9.5 -26t-24.5 -10t-25 10t-10 26q0 15 10 24.5t25 9.5t24.5 -9.5t9.5 -24.5zM504 680q0 -15 -9.5 -24t-25.5 -9q-14 0 -23.5 9t-9.5 24t9.5 24.5t23.5 9.5q16 0 25.5 -9.5t9.5 -24.5zM759 426q0 -16 -10 -25.5t-25 -9.5t-25 10
t-10 25t10 24.5t25 9.5t25 -9.5t10 -24.5zM886 297q0 -13 -10 -23t-23 -10q-15 0 -25.5 10t-10.5 23q0 15 10.5 25t25.5 10q13 0 23 -10t10 -25zM632 426q0 -15 -9.5 -25t-24.5 -10t-25 10t-10 25t10 24.5t25 9.5t24.5 -9.5t9.5 -24.5zM504 553q0 -16 -9.5 -25.5t-25.5 -9.5
q-14 0 -23.5 10t-9.5 25t9.5 24.5t23.5 9.5q16 0 25.5 -9.5t9.5 -24.5zM886 171q0 -14 -10 -24.5t-23 -10.5q-15 0 -25.5 10.5t-10.5 24.5t10.5 24t25.5 10q13 0 23 -10t10 -24zM376 680q0 -15 -9.5 -24t-25.5 -9q-15 0 -24.5 9t-9.5 24t9.5 24.5t24.5 9.5q16 0 25.5 -9.5
t9.5 -24.5zM758 297q0 -13 -9.5 -23t-24.5 -10t-25 10t-10 23q0 15 10 25t25 10t24.5 -10t9.5 -25zM504 425q0 -15 -9.5 -24.5t-25.5 -9.5q-14 0 -23.5 9.5t-9.5 24.5t9.5 25t23.5 10q16 0 25.5 -10t9.5 -25zM631 297q0 -13 -9 -23t-24 -10t-25 10t-10 23q0 15 10 25t25 10
t24 -10t9 -25zM887 43q0 -14 -10 -24.5t-23 -10.5q-17 0 -27 10.5t-10 24.5q0 16 10 26t27 10q13 0 23 -10.5t10 -25.5zM250 680q0 -15 -10.5 -24t-25.5 -9t-25 9t-10 24t10 25t25 10t25.5 -10t10.5 -25zM376 553q0 -16 -9.5 -25.5t-25.5 -9.5q-15 0 -24.5 10t-9.5 25
t9.5 24.5t24.5 9.5q16 0 25.5 -9.5t9.5 -24.5zM758 171q0 -14 -9.5 -24.5t-24.5 -10.5t-25 10.5t-10 24.5t10 24t25 10t24.5 -10t9.5 -24zM504 297q0 -13 -9.5 -23t-25.5 -10q-14 0 -23.5 10t-9.5 23q0 15 9.5 25t23.5 10q16 0 25.5 -10t9.5 -25zM631 171q0 -14 -9 -24.5
t-24 -10.5t-25 10.5t-10 24.5t10 24t25 10t24 -10t9 -24zM887 -84q0 -15 -10 -25t-23 -10q-17 0 -27 10t-10 25q0 14 10 24t27 10q13 0 23 -10t10 -24zM250 554q0 -16 -10.5 -26t-25.5 -10t-25 10t-10 26q0 15 10 24.5t25 9.5t25.5 -9.5t10.5 -24.5zM376 425
q0 -15 -9.5 -24.5t-25.5 -9.5q-15 0 -24.5 9.5t-9.5 24.5t9.5 25t24.5 10q16 0 25.5 -10t9.5 -25zM759 43q0 -14 -10 -24.5t-25 -10.5q-14 0 -24.5 10.5t-10.5 24.5q0 15 10 25.5t25 10.5t25 -10.5t10 -25.5zM121 680q0 -15 -10.5 -24t-25.5 -9q-13 0 -23 9t-10 24t10 24.5
t23 9.5q15 0 25.5 -9.5t10.5 -24.5zM504 171q0 -14 -9.5 -24.5t-25.5 -10.5q-14 0 -23.5 10.5t-9.5 24.5t9.5 24t23.5 10q16 0 25.5 -10t9.5 -24zM632 43q0 -14 -9.5 -24.5t-24.5 -10.5t-25 10.5t-10 24.5q0 15 10 25.5t25 10.5t24.5 -10.5t9.5 -25.5zM250 426
q0 -15 -10.5 -25t-25.5 -10t-25 9.5t-10 25.5q0 15 10 24.5t25 9.5t25.5 -9.5t10.5 -24.5zM376 297q0 -13 -9.5 -23t-25.5 -10q-15 0 -24.5 10t-9.5 23q0 15 9.5 25t24.5 10q16 0 25.5 -10t9.5 -25zM759 -84q0 -15 -10 -25t-25 -10q-14 0 -24.5 10.5t-10.5 24.5t10 24t25 10
t25 -10t10 -24zM121 553q0 -15 -10.5 -25t-25.5 -10q-13 0 -23 10t-10 25t10 24.5t23 9.5q15 0 25.5 -9.5t10.5 -24.5zM505 43q0 -14 -9.5 -24.5t-26.5 -10.5q-14 0 -23.5 10.5t-9.5 24.5q0 15 9.5 25.5t23.5 10.5q17 0 26.5 -10t9.5 -26zM632 -84q0 -14 -9.5 -24.5
t-24.5 -10.5t-25 10.5t-10 24.5t10 24t25 10t24.5 -10t9.5 -24zM376 171q0 -14 -9.5 -24.5t-25.5 -10.5q-15 0 -24.5 10.5t-9.5 24.5t9.5 24t24.5 10q16 0 25.5 -10t9.5 -24zM121 424q0 -14 -10.5 -23.5t-25.5 -9.5q-13 0 -23 9.5t-10 23.5q0 17 10 26.5t23 9.5
q15 0 25.5 -9.5t10.5 -26.5zM249 297q0 -13 -10.5 -23t-24.5 -10q-15 0 -25 10t-10 23q0 15 10 25t25 10t25 -10t10 -25zM505 -84q0 -15 -9.5 -25t-26.5 -10q-14 0 -23.5 10t-9.5 25q0 14 9.5 24t23.5 10q17 0 26.5 -10t9.5 -24zM377 43q0 -14 -9.5 -24.5t-25.5 -10.5
q-15 0 -25 10.5t-10 24.5q0 15 10 25.5t25 10.5q16 0 25.5 -10.5t9.5 -25.5zM249 171q0 -14 -10.5 -24.5t-24.5 -10.5q-15 0 -25 10.5t-10 24.5t10 24t25 10t25 -10t10 -24zM121 296q0 -14 -10.5 -23.5t-25.5 -9.5q-13 0 -23 9.5t-10 23.5q0 15 10 24.5t23 9.5
q15 0 25.5 -9.5t10.5 -24.5zM377 -84q0 -15 -9.5 -25t-25.5 -10q-15 0 -25 10t-10 25q0 14 10 24t25 10q16 0 25.5 -10t9.5 -24zM250 43q0 -14 -10.5 -24.5t-25.5 -10.5t-25 10.5t-10 24.5q0 15 10 25.5t25 10.5t25.5 -10.5t10.5 -25.5zM121 171q0 -14 -10.5 -24.5
t-25.5 -10.5q-13 0 -23 10.5t-10 24.5t10 23.5t23 9.5q36 0 36 -33zM250 -84q0 -14 -10.5 -24.5t-25.5 -10.5t-25 10t-10 25q0 14 10 24t25 10t25.5 -10t10.5 -24zM121 43q0 -14 -10.5 -24.5t-25.5 -10.5q-13 0 -23 10.5t-10 24.5t10 24t23 10q15 0 25.5 -10t10.5 -24z
M121 -84q0 -15 -10.5 -25t-25.5 -10q-13 0 -23 10t-10 25q0 14 10 24t23 10q15 0 25.5 -10t10.5 -24z" />
    <glyph glyph-name="filledbox" unicode="&#x25a0;" horiz-adv-x="940" 
d="M85 685h770v-766h-770v766z" />
    <glyph glyph-name="H22073" unicode="&#x25a1;" horiz-adv-x="940" 
d="M85 685h770v-766h-770v766zM179 602v-600h581v600h-581z" />
    <glyph glyph-name="uni25A3" unicode="&#x25a3;" horiz-adv-x="940" 
d="M86 685h769v-766h-769v766zM180 602v-600h580v600h-580zM269 102v400h402v-400h-402z" />
    <glyph glyph-name="uni25A4" unicode="&#x25a4;" horiz-adv-x="940" 
d="M52 711h835v-829h-835v829zM87 676v-78h764v78h-764zM87 562v-83h764v83h-764zM87 445v-74h764v74h-764zM87 334v-79h764v79h-764zM87 219v-81h764v81h-764zM87 103v-75h764v75h-764zM87 -8v-74h764v74h-764z" />
    <glyph glyph-name="uni25A5" unicode="&#x25a5;" horiz-adv-x="940" 
d="M52 710h835v-828h-835v828zM775 674v-756h77v756h-77zM666 674v-756h74v756h-74zM549 674v-756h80v756h-80zM433 674v-756h80v756h-80zM320 674v-756h76v756h-76zM202 674v-756h83v756h-83zM87 674v-756h79v756h-79z" />
    <glyph glyph-name="uni25A6" unicode="&#x25a6;" horiz-adv-x="940" 
d="M52 711h835v-829h-835v829zM770 676v-79h81v79h-81zM659 676v-79h78v79h-78zM770 564v-86h81v86h-81zM543 676v-79h83v79h-83zM659 564v-86h78v86h-78zM770 446v-78h81v78h-81zM543 564v-86h83v86h-83zM425 676v-79h86v79h-86zM659 446v-78h78v78h-78zM770 335v-81h81v81
h-81zM659 335v-81h78v81h-78zM317 676v-79h76v79h-76zM543 446v-78h83v78h-83zM425 564v-86h86v86h-86zM770 221v-84h81v84h-81zM200 676v-79h85v79h-85zM543 335v-81h83v81h-83zM659 221v-84h78v84h-78zM770 105v-78h81v78h-81zM317 564v-86h76v86h-76zM425 446v-78h86v78
h-86zM770 -5v-77h81v77h-81zM659 105v-78h78v78h-78zM87 676v-79h80v79h-80zM543 221v-84h83v84h-83zM200 564v-86h85v86h-85zM425 335v-81h86v81h-86zM317 446v-78h76v78h-76zM659 -5v-77h78v77h-78zM543 105v-78h83v78h-83zM317 335v-81h76v81h-76zM200 446v-78h85v78h-85
zM87 564v-86h80v86h-80zM425 221v-84h86v84h-86zM543 -5v-77h83v77h-83zM200 335v-81h85v81h-85zM425 105v-78h86v78h-86zM317 221v-84h76v84h-76zM87 446v-78h80v78h-80zM425 -5v-77h86v77h-86zM87 335v-81h80v81h-80zM200 221v-84h85v84h-85zM317 105v-78h76v78h-76z
M317 -5v-77h76v77h-76zM200 105v-78h85v78h-85zM87 221v-84h80v84h-80zM200 -5v-77h85v77h-85zM87 105v-78h80v78h-80zM87 -5v-77h80v77h-80z" />
    <glyph glyph-name="uni25A7" unicode="&#x25a7;" horiz-adv-x="940" 
d="M52 711h835v-830h-835v830zM664 675q48 -48 92.5 -92t91.5 -91v183h-184zM478 675q94 -94 185 -185.5t185 -185.5v142q-57 57 -114 114.5t-114 114.5h-142zM289 675q142 -141 279 -278.5t280 -279.5v142q-106 105 -209 207.5t-211 208.5h-139zM112 675
q186 -186 368 -366.5t368 -365.5v125q-154 153 -304.5 303.5t-305.5 303.5h-126zM822 -82q-186 185 -368 366.5t-368 367.5v-125q156 -155 306 -305t306 -304h124zM650 -82q-142 143 -281.5 282t-282.5 281v-143q108 -108 211.5 -211t209.5 -209h143zM456 -82
q-94 94 -185 185.5t-185 185.5v-146q60 -57 116 -112.5t113 -112.5h141zM264 -82q-45 46 -89 90t-89 92v-182h178z" />
    <glyph glyph-name="uni25A8" unicode="&#x25a8;" horiz-adv-x="940" 
d="M887 710v-828h-835v828h835zM620 -82l228 227v141l-370 -368h142zM428 -82l420 415v142l-559 -557h139zM848 -82v181l-184 -181h184zM238 -82l610 604v127l-736 -731h126zM86 -59l736 733h-124l-612 -610v-123zM86 110l564 564h-143l-421 -420v-144zM86 302l370 372h-141
l-229 -226v-146zM264 674h-178v-183z" />
    <glyph glyph-name="uni25A9" unicode="&#x25a9;" horiz-adv-x="940" 
d="M53 710h834v-829h-834v829zM360 208q-18 19 -36.5 37.5l-36.5 36.5q-18 -18 -36 -36.5t-37 -36.5q19 -18 37.5 -36.5l36.5 -36.5zM554 408q18 18 36 35t36 35l-72 72l-72 -72q18 -18 36 -35t36 -35zM650 503q18 18 35 36t35 36l-70 71q-18 -18 -36 -35.5t-36 -35.5z
M189 42q18 18 35.5 36t35.5 37l-69 69l-71 -72zM382 42l35.5 35.5t36.5 35.5l-70 70l-71 -71q18 -18 34.5 -35t34.5 -35zM747 548q-18 -18 -36 -35.5t-36 -35.5l71 -69l70 70zM286 -52q18 18 36 35l36 34l-70 70l-72 -72q18 -18 35 -33.5t35 -33.5zM456 505q18 18 35.5 36
t35.5 36q-17 18 -32.5 34t-32.5 33l-36 -36t-37 -36zM652 314q18 18 34 34.5t34 33.5q-18 18 -34 35t-34 35q-18 -18 -34 -34.5t-34 -33.5zM473 -50q19 18 37 35.5t36 35.5l-66 65l-70 -71q15 -16 31 -32t32 -33zM258 308q-17 16 -32.5 32t-32.5 33q-18 -18 -35.5 -35
t-35.5 -35q16 -16 32 -32.5t33 -33.5zM744 219q17 18 35 35t36 35l-33 33t-34 32l-69 -69l33 -33t32 -33zM269 646q-17 -16 -32.5 -31.5l-31.5 -31.5q18 -18 36 -35.5t36 -35.5l62 63zM189 425q16 16 32 31.5t32 31.5q-18 17 -36.5 34.5t-36.5 35.5l-62 -62zM564 224
q30 32 62 62q-18 18 -35 36t-35 36q-15 -17 -31 -32.5t-32 -32.5zM468 322q16 16 30.5 31.5t30.5 31.5l-69 69q-16 -16 -31.5 -31t-30.5 -31zM380 234q15 16 30.5 31t30.5 31q-18 18 -35 35.5t-35 35.5l-60 -63q18 -17 34.5 -34.5t34.5 -35.5zM537 199q-17 18 -33.5 35
t-33.5 35q-17 -16 -32.5 -31t-30.5 -31q17 -18 34.5 -34.5t35.5 -34.5zM750 38q17 16 32 32t31 32q-17 17 -32.5 33t-33.5 33q-16 -16 -31.5 -31t-31.5 -32l33 -33t33 -34zM433 481l-33 33t-33 32q-33 -32 -63 -63q16 -16 32 -31.5t34 -32.5zM281 330q16 17 31 32.5t31 31.5
q-16 17 -32 33l-32 32q-16 -15 -31.5 -31t-31.5 -32q17 -17 32.5 -33t32.5 -33zM657 132q16 17 31 32l31 31l-65 66q-16 -16 -31.5 -32t-30.5 -32zM659 79l-62 -62q18 -17 34 -32.5t32 -33.5l62 62zM570 47q16 14 30.5 29.5t29.5 30.5q-16 17 -31.5 33t-31.5 33
q-16 -15 -31.5 -30.5t-30.5 -32.5q17 -16 32.5 -32t32.5 -31zM849 647q-22 -20 -40.5 -39t-38.5 -39l79 -78v156zM87 -60l39 39t40 39q-21 20 -40 40t-39 40v-158zM87 322l39 39t40 39l-79 78v-156zM652 -82q-21 19 -39.5 38t-39.5 38q-20 -19 -39 -38t-39 -38h157zM849 269
q-20 -19 -39 -38l-38 -38l77 -77v153zM87 136q19 20 38 39l39 39q-41 37 -77 74v-152zM740 599q20 19 39 38t38 37h-154q20 -18 39 -37zM774 380q18 -20 37 -38.5t38 -37.5v150q-19 -19 -38 -37t-37 -37zM364 600l37.5 37.5t37.5 36.5h-150zM192 -10q-19 -18 -37 -36
t-37 -36h149zM458 -82q-19 18 -37.5 35.5t-36.5 35.5l-72 -71h146zM551 602q18 18 35.5 36t35.5 36h-143zM779 11l70 -69v138zM753 -15q-18 -18 -34.5 -33.5t-34.5 -33.5h136zM87 651v-132l66 66zM176 609q18 17 33.5 32.5l32.5 32.5h-131z" />
    <glyph glyph-name="triagup" unicode="&#x25b2;" horiz-adv-x="940" 
d="M883 -8h-827l417 650z" />
    <glyph glyph-name="uni25B3" unicode="&#x25b3;" horiz-adv-x="940" 
d="M883 -8h-827l417 650zM210 70h516l-254 408z" />
    <glyph glyph-name="uni25B6" unicode="&#x25b6;" horiz-adv-x="940" 
d="M153 702l638 -399l-638 -395v794z" />
    <glyph glyph-name="uni25B7" unicode="&#x25b7;" horiz-adv-x="940" 
d="M153 702l638 -399l-638 -395v794zM241 59l399 243l-399 247v-490z" />
    <glyph glyph-name="triagdn" unicode="&#x25bc;" horiz-adv-x="940" 
d="M883 598l-410 -650l-417 650h827z" />
    <glyph glyph-name="uni25BD" unicode="&#x25bd;" horiz-adv-x="940" 
d="M883 598l-410 -650l-417 650h827zM210 520l262 -408l254 408h-516z" />
    <glyph glyph-name="uni25C0" unicode="&#x25c0;" horiz-adv-x="940" 
d="M786 701v-794l-638 395z" />
    <glyph glyph-name="uni25C1" unicode="&#x25c1;" horiz-adv-x="940" 
d="M786 701v-794l-638 395zM698 58v490l-399 -247z" />
    <glyph glyph-name="uni25C6" unicode="&#x25c6;" horiz-adv-x="940" 
d="M14 304l455 453l457 -453l-457 -453z" />
    <glyph glyph-name="uni25C7" unicode="&#x25c7;" horiz-adv-x="940" 
d="M14 304l455 453l457 -453l-457 -453zM469 637l-332 -333l332 -332l333 332z" />
    <glyph glyph-name="uni25C8" unicode="&#x25c8;" horiz-adv-x="940" 
d="M14 304l455 453l457 -453l-457 -453zM469 637l-332 -333l332 -332l333 332zM212 304l257 257l257 -257l-257 -257z" />
    <glyph glyph-name="circle" unicode="&#x25cb;" horiz-adv-x="940" 
d="M877 300q0 -85 -31 -159t-85 -129q-55 -55 -129.5 -87t-161.5 -32q-83 0 -156.5 30.5t-128.5 84.5q-56 54 -88.5 128.5t-32.5 163.5q0 84 31 158t86 129q54 55 128 86.5t161 31.5q82 0 156 -30t130 -83q56 -54 88.5 -128.5t32.5 -163.5zM776 300q0 66 -23.5 123.5
t-64.5 100.5t-97 67.5t-121 24.5q-62 0 -117.5 -23.5t-96.5 -65.5q-42 -42 -66.5 -100t-24.5 -127q0 -66 23 -124t64 -101q41 -44 97 -68.5t121 -24.5q62 0 117.5 23t97.5 66q42 42 66.5 100.5t24.5 128.5z" />
    <glyph glyph-name="uni25CE" unicode="&#x25ce;" horiz-adv-x="940" 
d="M730 301q0 -54 -19.5 -101.5t-54.5 -82.5t-82.5 -55.5t-103.5 -20.5q-53 0 -99.5 19.5t-81.5 54.5q-36 34 -56.5 82t-20.5 104q0 53 19.5 100t54.5 82q34 35 81 55t103 20q52 0 99.5 -19t83.5 -53q35 -34 56 -81t21 -104zM635 301q0 36 -12.5 68t-34.5 56t-52 38t-66 14
q-34 0 -63.5 -13t-51.5 -36q-22 -24 -35 -56t-13 -71q0 -37 12 -69.5t34 -56.5t51.5 -37.5t65.5 -13.5q34 0 64 13t53 37q22 23 35 55.5t13 71.5zM877 300q0 -85 -31 -159t-85 -129q-55 -55 -129.5 -87t-161.5 -32q-83 0 -156.5 30.5t-128.5 84.5q-56 54 -88.5 128.5
t-32.5 163.5q0 84 31 158t86 129q54 55 128 86.5t161 31.5q82 0 156 -30t130 -83q56 -54 88.5 -128.5t32.5 -163.5zM776 300q0 66 -23.5 123.5t-64.5 100.5t-97 67.5t-121 24.5q-62 0 -117.5 -23.5t-96.5 -65.5q-42 -42 -66.5 -100t-24.5 -127q0 -66 23 -124t64 -101
q41 -44 97 -68.5t121 -24.5q62 0 117.5 23t97.5 66q42 42 66.5 100.5t24.5 128.5z" />
    <glyph glyph-name="H18533" unicode="&#x25cf;" horiz-adv-x="940" 
d="M877 300q0 -85 -31 -159t-85 -129q-55 -55 -129.5 -87t-161.5 -32q-83 0 -156.5 30.5t-128.5 84.5q-56 54 -88.5 128.5t-32.5 163.5q0 84 31 158t86 129q54 55 128 86.5t161 31.5q82 0 156 -30t130 -83q56 -54 88.5 -128.5t32.5 -163.5z" />
    <glyph glyph-name="uni25D0" unicode="&#x25d0;" horiz-adv-x="940" 
d="M875 302q0 -87 -31 -161t-86 -129t-130 -86t-163 -31q-85 0 -158.5 31t-127.5 86q-54 54 -85 128.5t-31 161.5t31 161t85 128t127.5 84.5t158.5 30.5q88 0 163 -31t130 -85t86 -128t31 -160zM795 301q0 64 -23 122t-63 103q-41 45 -96 73t-118 33v-663q63 5 117.5 33
t95.5 73q40 44 63.5 102.5t23.5 123.5z" />
    <glyph glyph-name="uni25D1" unicode="&#x25d1;" horiz-adv-x="940" 
d="M63 302q0 86 31 160t86 128t130 85t163 31q85 0 158.5 -30.5t127.5 -84.5t85 -128t31 -161t-31 -161.5t-85 -128.5q-54 -55 -127.5 -86t-158.5 -31q-88 0 -163 31t-130 86t-86 129t-31 161zM143 301q0 -65 23.5 -123.5t64.5 -102.5q40 -45 94.5 -73t117.5 -33v663
q-63 -5 -118 -33t-95 -73q-41 -45 -64 -103t-23 -122z" />
    <glyph glyph-name="uni2605" unicode="&#x2605;" horiz-adv-x="940" 
d="M745 -70l-278 205l-274 -199l105 320l-255 192h320l105 300l107 -300h321l-260 -196z" />
    <glyph glyph-name="uni2606" unicode="&#x2606;" horiz-adv-x="940" 
d="M468 522l-46 -137h-178l142 -110l-54 -152l133 99l137 -101l-55 153l146 111h-178zM745 -70l-278 205l-274 -199l105 320l-255 192h320l105 300l107 -300h321l-260 -196z" />
    <glyph glyph-name="uni260E" unicode="&#x260e;" horiz-adv-x="940" 
d="M913 391q0 -64 -50 -64q-46 0 -103 19q-74 23 -74 55q0 13 9 36q10 20 10 33q0 11 -16.5 20t-33.5 9q-13 0 -13 -14v-29q0 -68 30 -119q7 -12 23 -31.5t41 -46.5q22 -23 36.5 -45.5t22.5 -43.5q7 -16 12 -46q3 -17 5.5 -29t4.5 -17q1 -7 12 -25q8 -14 8 -25
q0 -23 -20.5 -38t-51.5 -15h-632q-39 0 -39 45q0 17 9 32q5 8 8.5 15t4.5 12q2 14 5 27t6 27q5 19 10.5 34t12.5 26q11 18 60 70q22 22 37 41t23 35q28 49 28 115v42q0 9 -8 9q-16 0 -33 -13t-17 -29q0 -8 7.5 -26.5t7.5 -33.5q0 -37 -75 -62q-60 -21 -106 -21q-47 0 -47 61
q0 134 167 191q112 39 276 39q151 0 271 -38q172 -57 172 -182zM587 523q-34 -4 -62.5 -6t-53.5 -2q-26 0 -55.5 2.5t-63.5 7.5v-87q0 -39 58 -39h110q67 0 67 41v83zM633 203q0 35 -12.5 65.5t-34.5 52.5q-23 22 -53 34.5t-66 12.5q-35 0 -65.5 -12.5t-52.5 -34.5
q-23 -22 -35.5 -52.5t-12.5 -65.5t13 -65t36 -51q22 -22 52 -34.5t65 -12.5q34 0 64.5 12t53.5 34q22 22 35 52t13 65z" />
    <glyph glyph-name="uni260F" unicode="&#x260f;" horiz-adv-x="940" 
d="M883 386q0 55 -39 97t-120 69q-105 37 -253 37q-141 0 -258 -38q-81 -27 -120 -69t-39 -99q0 -22 7.5 -31t21.5 -9q15 0 35 4t48 13q64 19 64 43q0 5 -9 25q-9 21 -9 36q0 25 30 46q29 20 58 20q26 0 26 -49q0 -57 -12.5 -104t-41.5 -83q-23 -29 -48 -54.5t-48 -53.5
q-8 -10 -13.5 -24t-10.5 -32q-3 -14 -6 -29t-6 -29q-1 -8 -12 -28q-7 -13 -7 -26q0 -19 21 -19h616q50 0 50 30q0 12 -8 30q-6 13 -9.5 20.5t-4.5 9.5q-2 14 -5.5 35t-13.5 48q-8 22 -24.5 43t-38.5 44q-50 54 -62 79q-28 52 -28 134q0 52 30 52q27 0 54 -12q36 -17 36 -41
q0 -17 -10 -36q-11 -24 -11 -33q0 -19 60 -37q52 -15 81 -15t29 36zM587 440q0 -41 -67 -41h-110q-58 0 -58 39v87q34 -5 63.5 -7.5t55.5 -2.5q25 0 53.5 2t62.5 6v-83zM633 203q0 -35 -13 -65t-35 -52q-23 -22 -53.5 -34t-64.5 -12q-35 0 -65 12.5t-52 34.5q-23 21 -36 51
t-13 65t12.5 65.5t35.5 52.5q22 22 52.5 34.5t65.5 12.5q36 0 66 -12.5t53 -34.5q22 -22 34.5 -52.5t12.5 -65.5zM557 497q-29 -7 -87 -7q-27 0 -48 2t-41 7v-52q0 -22 37 -22h101q38 0 38 23v49zM599 204q0 27 -9.5 51.5t-26.5 43.5t-41 30t-54 11t-55 -10.5t-42 -28.5
q-18 -19 -27.5 -44t-9.5 -53q0 -29 9 -53.5t26 -42.5t41 -28.5t55 -10.5q30 0 54.5 10.5t42.5 29.5q17 18 27 42.5t10 52.5zM922 390q0 -73 -61 -73q-20 0 -48.5 6t-56.5 14q-38 11 -59 27.5t-21 35.5q0 13 11 40q4 8 6 13.5t2 10.5q0 8 -10 12.5t-22 7.5q-4 1 -7 0t-3 -7
v-22q0 -65 29 -115q7 -12 23 -31.5t39 -45.5q22 -23 37 -46t23 -44q5 -10 8 -22t5 -24q4 -19 6 -32t4 -17l11 -20q9 -15 9 -28q0 -25 -21.5 -44t-63.5 -19h-626q-29 0 -40 15t-11 40q0 18 9 35q11 17 12 25q2 14 5 27l6 26q11 38 24 62q11 18 60 70q21 21 36 40t23 35
q29 47 29 111v31q0 6 -3.5 8.5t-7.5 0.5q-10 -3 -19 -9.5t-9 -22.5q0 -5 2 -8.5t4 -10.5q3 -9 6 -19.5t3 -20.5q0 -17 -21.5 -36.5t-58.5 -31.5q-26 -8 -55.5 -15.5t-51.5 -7.5q-27 0 -43.5 18t-16.5 51q0 67 47 119t129 81q55 20 125 29.5t151 9.5q151 0 271 -38
q88 -29 134.5 -78t46.5 -113z" />
    <glyph glyph-name="uni261C" unicode="&#x261c;" horiz-adv-x="940" 
d="M780 208h-26q-13 -6 -25.5 -12t-25.5 -11q-26 -11 -54.5 -19t-60.5 -13q-31 -4 -112 -3q-74 2 -77 3q-20 0 -36 9q-19 10 -19 29q0 20 16 26q-22 0 -32 16q-6 9 -6 18q0 14 11 29q-12 0 -23.5 10t-12.5 22q0 36 81 39l-3 7q-23 1 -65 3t-103 5q-74 3 -75 4q-49 6 -46 39
q2 27 50 32q17 2 33 2t32 1q46 2 115.5 3.5t166.5 1.5q89 0 116 -3q73 -10 124 -55q2 -3 59 -4v31h73v-231h-75v21zM782 370q-1 0 -6.5 0.5l-16.5 1.5q-6 1 -11 1h-10q4 -6 4 -14q0 -3 -2 -3t-20 19q-11 11 -22 19.5t-22 15.5q-43 28 -159 28q-19 0 -21 -1q-43 -9 -65 -24
q-11 -6 -21 -25q-11 -21 -20 -27q-1 -1 2.5 -4t10.5 -3t18 2q8 4 25 18q16 15 19 15q2 0 3 -1q3 -6 -4 -15q0 -2 17 -4q16 -2 24 0q5 2 11.5 4t13.5 6q13 7 14 7q2 0 2 -1q1 -10 -14 -23q5 -5 10.5 -10t11.5 -10q23 -20 55 -31q26 -8 65 -12q26 -5 26 -8q0 -6 -31 -5
q-29 1 -55 9q-41 12 -72 39l-26 26q-17 -3 -22 -3q-25 0 -42 7l-14 -13q8 -2 15.5 -3.5t14.5 -3.5q31 -9 33 -17q3 -8 3 -13q0 -14 -14 -28q9 0 20.5 -12t11.5 -21q0 -14 -16 -26q13 -4 16 -7q15 -9 16 -22q1 -18 -13 -32h4t8 -1h12t10 1q36 2 72 11.5t73 25.5q55 22 58 27
v-11q1 -1 20 0v151zM445 434q-61 0 -121.5 -1t-121.5 -3q-28 -1 -46.5 -2t-26.5 -3q-25 -4 -27 -19q0 -15 23 -21q16 -3 77 -5q39 -2 84.5 -3.5t99.5 -3.5q3 3 8 10.5t12 18.5q11 19 39 32zM796 401v-198h43v198h-43zM480 294q9 7 9 17q0 19 -28 23q-36 7 -87 3
q-34 1 -53 -12q-6 -5 -6 -12q0 -20 23 -20q2 -2 56 -2q78 0 86 3zM506 253q0 23 -44 23h-96q-10 0 -18.5 -7.5t-8.5 -15.5q0 -12 14 -20q2 -1 15.5 -2t36.5 -2q43 -2 48 0q18 0 30 4q22 6 23 16v4zM522 197q-3 17 -31 17h-48h-26.5t-35.5 -1q-19 -1 -19 -20q0 -16 13 -20
q16 -5 63 -6q45 0 47 2q11 0 23 6q17 9 14 22z" />
    <glyph glyph-name="uni261E" unicode="&#x261e;" horiz-adv-x="940" 
d="M158 387q55 0 59 4q51 45 124 55q27 3 116 3q97 0 166.5 -1.5t115.5 -3.5q16 -1 32 -1t33 -2q48 -5 50 -32q3 -33 -46 -39q-1 -1 -75 -4q-61 -3 -103 -5t-65 -3l-3 -7q81 -3 81 -39q-1 -12 -12.5 -22t-23.5 -10q11 -15 11 -29q0 -9 -6 -18q-10 -16 -32 -16q16 -6 16 -26
q0 -19 -19 -29q-17 -9 -36 -9q-3 -1 -77 -3q-81 -1 -112 3q-58 9 -115 32q-13 5 -25.5 11t-25.5 12h-26v-21h-75v231h73v-31zM158 219q19 -1 20 0v11q1 -4 58 -27q37 -16 73 -25.5t72 -11.5q5 -1 10 -1h12q5 1 8 1h4q-14 14 -13 32q1 13 16 22q3 3 16 7q-16 12 -16 26
q0 9 11.5 21t20.5 12q-14 14 -14 28q0 5 3 13q2 8 33 17q7 2 14.5 3.5t15.5 3.5l-14 13q-17 -7 -42 -7q-6 0 -22 2l-26 -26q-32 -27 -72 -39q-26 -8 -55 -8q-31 -1 -31 5q0 4 26 9q39 4 65 12q32 11 55 31q6 5 11.5 10t10.5 10q-15 14 -14 24q0 1 2 1q1 0 14 -7
q7 -4 13.5 -6.5t11.5 -4.5q7 -2 24 0t17 5q-7 9 -4 15q1 1 3 1t19 -15t25 -19q10 -3 18 -3q7 0 10.5 3t2.5 4q-9 6 -20 26q-10 19 -21 25q-22 15 -65 24q-2 1 -21 1q-116 0 -159 -28q-23 -14 -44 -35q-18 -19 -20 -19t-2 3q0 7 4 15h-10t-11 -1l-16.5 -1.5t-6.5 -0.5v-151z
M495 434q28 -13 39 -32q7 -11 12 -18.5t8 -10.5q54 2 99.5 3.5t84.5 3.5q61 2 77 5q23 6 23 21q-2 15 -27 19q-8 2 -26.5 3t-46.5 2q-61 2 -121.5 3t-121.5 1zM101 401v-198h43v198h-43zM460 294q7 -3 86 -3q54 0 56 2q23 0 23 20q0 7 -6 12q-19 13 -53 12q-51 4 -87 -3
q-28 -4 -28 -23q0 -10 9 -17zM434 249q1 -10 23 -16q12 -4 30 -4q4 -2 48 0q23 1 36.5 2t15.5 2q14 8 14 20q0 8 -8.5 15.5t-18.5 7.5h-96q-44 0 -44 -23v-4zM418 197q-3 -13 14 -22q12 -6 23 -6q2 -2 47 -2q46 1 63 6q13 4 13 20q0 19 -19 20q-20 1 -35.5 1h-26.5h-48
q-28 0 -31 -17z" />
    <glyph glyph-name="female" unicode="&#x2640;" horiz-adv-x="630" 
d="M547 496q0 -40 -13 -76.5t-36 -65.5t-55 -50.5t-70 -31.5v-102h170v-107h-170v-190h-117v190h-168v107h168v102q-39 9 -71 29.5t-55 50.5q-23 29 -35.5 66t-12.5 78q0 49 17.5 91.5t48.5 74.5q31 31 73.5 48.5t92.5 17.5q51 0 93.5 -18t73.5 -49q31 -32 48.5 -74
t17.5 -91zM431 496q0 27 -9 50.5t-24 41.5q-16 17 -37.5 26.5t-46.5 9.5t-46.5 -9.5t-36.5 -25.5q-16 -17 -25 -41t-9 -52q0 -60 33 -94.5t84 -34.5t84 36t33 93z" />
    <glyph glyph-name="male" unicode="&#x2642;" horiz-adv-x="630" 
d="M369 327q43 -9 76.5 -31t56.5 -52q22 -31 34 -67.5t12 -74.5q0 -51 -19 -93.5t-51 -73.5t-74.5 -48t-89.5 -17t-89 17.5t-73 48.5q-32 31 -51 73.5t-19 92.5q0 37 11 73t33 67q21 30 53.5 52.5t74.5 31.5v186l-98 -108l-79 72l237 265l218 -267l-81 -80l-82 105v-172z
M436 103q0 27 -8.5 50t-24.5 41q-16 17 -38.5 26.5t-49.5 9.5q-54 0 -87.5 -36t-33.5 -91q0 -57 33.5 -92.5t87.5 -35.5q55 0 88 36.5t33 91.5z" />
    <glyph glyph-name="spade" unicode="&#x2660;" horiz-adv-x="940" 
d="M334 -128v51q7 13 14 30.5t14 36.5q6 19 11 38.5t8 36.5q-29 -18 -58.5 -27t-48.5 -9q-34 0 -61.5 12t-46.5 34t-29.5 52t-10.5 65q0 42 22.5 98.5t66.5 126.5q44 69 108 149t147 169q165 -180 254.5 -319t89.5 -224q0 -35 -10.5 -65t-29.5 -52t-46.5 -34t-61.5 -12
q-20 0 -48.5 9t-59.5 27q5 -35 18.5 -74.5t28.5 -67.5v-51h-271z" />
    <glyph glyph-name="uni2661" unicode="&#x2661;" horiz-adv-x="940" 
d="M177 471q0 -65 28 -133.5t71 -130.5t94 -111.5t97 -76.5q46 27 96.5 76.5t93.5 111.5t71 130.5t28 133.5q0 64 -25 100t-76 36q-42 0 -71 -32.5t-46 -77.5q-9 -25 -24.5 -43t-45.5 -18q-33 0 -48.5 18t-24.5 43q-17 45 -46 77.5t-70 32.5q-51 0 -76.5 -36t-25.5 -100z
M467 -83q-91 55 -163.5 125.5t-122.5 145.5t-77 149.5t-27 137.5q0 46 13 85.5t38 67.5t62 44t85 16q66 0 115.5 -33t76.5 -99q27 66 76.5 99t115.5 33q48 0 85 -16t62 -44q24 -28 37 -67.5t13 -85.5q0 -63 -25.5 -136t-74.5 -147t-122 -145.5t-167 -129.5z" />
    <glyph glyph-name="club" unicode="&#x2663;" horiz-adv-x="940" 
d="M334 -76q15 29 29.5 59t22.5 63q3 13 3.5 17.5t-2.5 5.5q-6 2 -14 -6t-16 -14q-29 -23 -56.5 -34t-66.5 -11q-41 0 -75 16t-58 43t-37.5 63t-13.5 75q0 40 14 75t38 62q24 26 56.5 41.5t70.5 15.5q55 0 119 -35q5 -3 12.5 -6t11.5 4t-0.5 11t-9.5 9q-23 21 -39.5 39
t-27.5 38q-11 19 -16 42t-5 54q0 39 16.5 71.5t44.5 56.5q27 23 62 36t73 13q37 0 72.5 -13t63.5 -36q27 -24 43.5 -56.5t16.5 -71.5q0 -31 -6 -54.5t-17 -42.5q-11 -20 -28 -38t-39 -39l-8.5 -8.5t0.5 -10.5t11 -4.5t12 5.5q64 36 120 36q37 0 70 -15.5t57 -41.5
q24 -27 38 -62t14 -75q0 -39 -13.5 -75t-37.5 -63t-58 -43t-75 -16q-39 0 -66.5 11t-56.5 34q-8 6 -16 12.5t-14 5.5q-5 -1 -3.5 -4.5t4.5 -16.5q8 -33 22.5 -63t29.5 -59v-44h-272v44z" />
    <glyph glyph-name="uni2664" unicode="&#x2664;" horiz-adv-x="940" 
d="M334 -128v50q7 13 14 30.5t14 36.5q6 19 11 38.5t8 36.5q-29 -18 -58.5 -26.5t-48.5 -8.5q-34 0 -61.5 12t-46.5 34t-29.5 52t-10.5 65q0 42 22.5 98.5t66.5 126.5q44 69 108 149t147 169q165 -180 254.5 -319t89.5 -224q0 -35 -10.5 -65t-29.5 -52t-46.5 -34t-61.5 -12
q-20 0 -48.5 8.5t-59.5 26.5q5 -35 18.5 -74.5t28.5 -67.5v-50h-271zM716 192q0 38 -25.5 93t-62.5 113q-38 58 -80.5 112.5t-77.5 92.5q-35 -38 -77.5 -92.5t-79.5 -112.5q-38 -58 -63.5 -113t-25.5 -93q0 -33 10.5 -56.5t39.5 -23.5q17 0 36 8t55 30q11 7 23.5 11.5
t26.5 4.5q24 0 35.5 -13.5t11.5 -46.5q0 -34 -8.5 -77t-20.5 -78v-2h73v2q-11 35 -19 78t-8 77q0 33 11 46.5t35 13.5q14 0 26.5 -4.5t23.5 -11.5q36 -22 56.5 -30t34.5 -8q29 0 39.5 23.5t10.5 56.5z" />
    <glyph glyph-name="heart" unicode="&#x2665;" horiz-adv-x="940" 
d="M467 -83q-91 55 -163.5 125.5t-122.5 145.5t-77 149.5t-27 137.5q0 46 13 85.5t38 67.5t62 44t85 16q66 0 115.5 -33t76.5 -99q27 66 76.5 99t115.5 33q48 0 85 -16t62 -44q24 -28 37 -67.5t13 -85.5q0 -63 -25.5 -136t-74.5 -147t-122 -145.5t-167 -129.5z" />
    <glyph glyph-name="uni2667" unicode="&#x2667;" horiz-adv-x="940" 
d="M334 -76q15 29 29.5 59t22.5 63q3 13 3.5 17.5t-2.5 5.5q-6 2 -14 -6t-16 -14q-29 -23 -56.5 -34t-66.5 -11q-41 0 -75 16t-58 43t-37.5 63t-13.5 75q0 40 14 75t38 62q24 26 56.5 41.5t70.5 15.5q55 0 119 -35q5 -3 12.5 -6t11.5 4t-0.5 11t-9.5 9q-23 21 -39.5 39
t-27.5 38q-11 19 -16 42t-5 54q0 39 16.5 71.5t44.5 56.5q27 23 62 36t73 13q37 0 72.5 -13t63.5 -36q27 -24 43.5 -56.5t16.5 -71.5q0 -31 -6 -54.5t-17 -42.5q-11 -20 -28 -38t-39 -39l-8.5 -8.5t0.5 -10.5t11 -4.5t12 5.5q64 36 120 36q37 0 70 -15.5t57 -41.5
q24 -27 38 -62t14 -75q0 -39 -13.5 -75t-37.5 -63t-58 -43t-75 -16q-39 0 -66.5 11t-56.5 34q-8 6 -16 12.5t-14 5.5q-5 -1 -3.5 -4.5t4.5 -16.5q8 -33 22.5 -63t29.5 -59v-44h-272v44zM508 -42q-15 37 -22.5 80t-7.5 78q0 27 13 41t33 14q27 0 47 -18q29 -27 58.5 -46.5
t68.5 -19.5q51 0 79 33.5t28 84.5q0 23 -7.5 44t-20.5 37q-14 16 -33 25.5t-41 9.5q-40 0 -80 -22q-14 -8 -32 -13.5t-36 -5.5q-18 -1 -34 5t-27 21q-19 26 -13.5 53t27.5 49q19 19 33 34.5t23 31.5q9 15 13 32t4 41q0 46 -31.5 75t-79.5 29t-79 -29t-31 -75q0 -23 4 -40.5
t13 -33.5q8 -16 21.5 -31t33.5 -34q20 -20 26 -50t-12 -54q-11 -14 -27 -20t-33 -5q-18 1 -36 6.5t-33 13.5q-40 22 -80 22q-23 0 -41.5 -9.5t-31.5 -25.5q-14 -16 -21.5 -37t-7.5 -44q0 -51 28 -84.5t79 -33.5q39 0 68.5 19.5t58.5 46.5q19 18 47 18q20 0 33 -14t13 -41
q0 -17 -2 -37.5t-6 -41.5t-9.5 -41t-12.5 -38v-2h76v2z" />
    <glyph glyph-name="uni2668" unicode="&#x2668;" horiz-adv-x="940" 
d="M665 248q0 -45 -36 -114q-20 -39 -32 -67t-14 -45h-13q-8 34 -8 55q0 17 3 40t10 51q7 31 10.5 53.5t3.5 38.5q0 44 -22 109t-22 106q0 22 33 91q17 38 27.5 63t13.5 37h11q7 -13 7 -47q0 -12 -2 -30t-6 -42q-4 -23 -6 -41t-2 -31q0 -49 22 -115t22 -112zM538 260
q0 -51 -38 -125q-25 -48 -39.5 -77.5t-18.5 -43.5h-15q-2 10 -3.5 21.5t-1.5 25.5q0 39 19 95q19 57 19 97q0 39 -24 113q-24 73 -24 111q0 48 33 119q36 74 39 116h13q18 -38 18 -75q0 -27 -15 -79q-15 -51 -15 -76q0 -28 26 -109q27 -74 27 -113zM397 248q0 -44 -36 -113
q-20 -38 -32 -66.5t-14 -45.5h-12q-9 19 -9 56q0 41 13 90q7 28 10 51t3 41q0 38 -21 109q-20 80 -20 107q0 20 32 90q17 35 27.5 60t12.5 40h11q6 -20 6 -47q0 -13 -2 -31.5t-6 -43.5t-6 -43t-2 -31q0 -47 22 -113q23 -81 23 -110zM872 90q0 -42 -20.5 -73t-54.5 -54
t-77 -37.5t-89 -23.5t-90.5 -12.5t-80.5 -3.5q-33 0 -74.5 3.5t-84.5 11.5q-44 9 -86 23t-74 35q-33 22 -53 51t-20 68q0 34 22 62.5t54 50.5t69.5 36.5t69.5 20.5l4 -13q-19 -6 -44.5 -20t-48.5 -32q-24 -19 -40 -40t-16 -41q0 -27 17.5 -46.5t45.5 -32.5q27 -14 62.5 -22
t71.5 -12q35 -4 68 -5.5t57 -1.5q25 0 60.5 1.5t74.5 5.5q38 5 76 13.5t69 23.5q30 14 49 35t19 51q0 28 -29 58.5t-92 56.5l7 12q26 -5 57 -18.5t58 -32.5q27 -20 45 -45t18 -53z" />
    <glyph glyph-name="uni2669" unicode="&#x2669;" horiz-adv-x="400" 
d="M299 70q0 -30 -13 -59t-35 -52t-51 -37.5t-60 -14.5q-40 0 -59.5 16t-19.5 53q0 21 11 41t30 35t44 24.5t52 9.5h13q9 0 9 9v624h79v-649z" />
    <glyph glyph-name="musicalnote" unicode="&#x266a;" horiz-adv-x="600" 
d="M288 70q0 -30 -13 -59t-35 -52t-51 -37.5t-60 -14.5q-40 0 -59.5 16t-19.5 53q0 21 11 41t30 35t44 24.5t52 9.5h13q9 0 9 9v621h51q29 -51 71.5 -88.5t93.5 -74.5q62 -46 93.5 -97t31.5 -125q0 -39 -11.5 -73t-32.5 -65t-49.5 -58.5t-62.5 -52.5l-25 28q29 30 47.5 57.5
t29.5 52.5q10 25 13.5 46.5t3.5 40.5q0 20 -6.5 37.5t-23.5 34.5q-16 15 -34.5 28.5t-37.5 26.5t-37.5 27t-35.5 30v-421z" />
    <glyph glyph-name="uni266C" unicode="&#x266c;" horiz-adv-x="840" 
d="M741 179q0 -30 -13 -59t-35 -52t-51 -37.5t-60 -14.5q-40 0 -59.5 16t-19.5 53q0 21 11 41t30 35t44 24.5t52 9.5h13q9 0 9 9v224l-368 -79v-279q0 -30 -13 -59t-35 -52t-51 -37.5t-60 -14.5q-40 0 -59.5 16t-19.5 53q0 21 11 41t30 35t44 24.5t52 9.5h13q9 0 9 9v536
l526 112v-564zM297 514v-33l365 83v32z" />
    <glyph glyph-name="uni266D" unicode="&#x266d;" horiz-adv-x="580" 
d="M485 302q0 -78 -31 -140.5t-84 -106.5q-54 -44 -125.5 -68.5t-151.5 -26.5v734h127v-288q26 23 53.5 34t62.5 11q76 0 112.5 -40t36.5 -109zM351 271q0 30 -8 47.5t-31 17.5q-15 0 -29 -8.5t-26 -21.5q-12 -14 -21.5 -30.5t-15.5 -32.5v-154q63 23 97 69.5t34 112.5z" />
    <glyph glyph-name="uni3001" unicode="&#x3001;" horiz-adv-x="940" 
d="M58 130l245 -98v-165l-245 156v107z" />
    <glyph glyph-name="uni3002" unicode="&#x3002;" horiz-adv-x="940" 
d="M314 0q0 -25 -9 -47t-25 -38t-38 -25.5t-49 -9.5q-25 0 -47 9.5t-38 25.5q-17 16 -26.5 38t-9.5 47q0 27 9.5 49t26.5 38q16 16 38 25t47 9t47 -9t39 -25q16 -17 25.5 -39t9.5 -48zM249 0q0 28 -16 44.5t-40 16.5t-40 -16.5t-16 -44.5t16 -44t40 -16t40 16t16 44z" />
    <glyph glyph-name="uni3003" unicode="&#x3003;" horiz-adv-x="940" 
d="M265 121l92 338h139l-152 -338h-79zM449 121l92 338h139l-152 -338h-79z" />
    <glyph glyph-name="uni3008" unicode="&#x3008;" horiz-adv-x="550" 
d="M510 -64l-80 -63l-349 427l350 426l79 -64l-297 -362z" />
    <glyph glyph-name="uni3009" unicode="&#x3009;" horiz-adv-x="550" 
d="M114 726l350 -426l-349 -427l-80 63l297 364l-297 362z" />
    <glyph glyph-name="uni300A" unicode="&#x300a;" horiz-adv-x="600" 
d="M571 -82l-78 -45l-283 427l281 427l78 -45l-249 -382zM423 -82l-78 -45l-283 427l281 427l78 -45l-249 -382z" />
    <glyph glyph-name="uni300B" unicode="&#x300b;" horiz-adv-x="600" 
d="M119 727l281 -427l-283 -427l-78 45l251 382l-249 382zM267 727l281 -427l-283 -427l-78 45l251 382l-249 382z" />
    <glyph glyph-name="uni300C" unicode="&#x300c;" horiz-adv-x="450" 
d="M218 645v-338h-127v442h318v-104h-191z" />
    <glyph glyph-name="uni300D" unicode="&#x300d;" horiz-adv-x="450" 
d="M231 -44v347h127v-451h-318v104h191z" />
    <glyph glyph-name="uni300E" unicode="&#x300e;" horiz-adv-x="450" 
d="M251 603v-296h-160v440h318v-144h-158zM343 684h-186v-315h27v293h159v22z" />
    <glyph glyph-name="uni300F" unicode="&#x300f;" horiz-adv-x="450" 
d="M198 0v304h160v-451h-318v147h158zM106 -85h186v327h-27v-304h-159v-23z" />
    <glyph glyph-name="uni3010" unicode="&#x3010;" horiz-adv-x="460" 
d="M102 733h352q-48 -39 -83 -88.5t-58 -105.5t-34.5 -116.5t-11.5 -120.5q0 -61 11 -121.5t34 -116.5q23 -57 58.5 -107t84.5 -89h-353v865z" />
    <glyph glyph-name="uni3011" unicode="&#x3011;" horiz-adv-x="460" 
d="M5 -132q49 39 84.5 89t58.5 107q23 56 34 116.5t11 121.5q0 60 -11.5 120.5t-34.5 116.5t-58 105.5t-83 88.5h352v-865h-353z" />
    <glyph glyph-name="uni3013" unicode="&#x3013;" horiz-adv-x="940" 
d="M43 464h855v-102h-855v102zM43 225h855v-102h-855v102z" />
    <glyph glyph-name="uni3014" unicode="&#x3014;" horiz-adv-x="500" 
d="M367 -172l-241 103v739l242 105l38 -88l-165 -75v-623l165 -73z" />
    <glyph glyph-name="uni3015" unicode="&#x3015;" horiz-adv-x="500" 
d="M269 612l-165 75l38 88l242 -105v-739l-241 -103l-39 88l165 73v623z" />
    <glyph glyph-name="uni3041" unicode="&#x3041;" horiz-adv-x="760" 
d="M85 462q70 -3 145 -3q1 27 3 54t5 54h105q-4 -26 -6 -52t-4 -53q60 3 120.5 8.5t126.5 14.5v-96q-63 -8 -125 -13.5t-125 -8.5v-34t1 -34q28 6 55.5 9.5t54.5 3.5q53 0 103 -11.5t89 -36.5q38 -26 61.5 -67t23.5 -99q0 -52 -22 -91t-58 -67t-83 -45t-96 -25l-22 91
q35 6 67 16.5t57 27.5q25 16 39.5 39t14.5 54q0 29 -16.5 58t-58.5 47q-27 -54 -69 -111t-96 -105q4 -15 7.5 -30t8.5 -30l-94 -43l-12 42q-48 -23 -92 -23q-26 0 -50 7t-43 23t-30.5 43t-11.5 66q0 37 13 70.5t37 62.5q23 28 54.5 51t68.5 40q-3 48 -3 98q-36 -1 -72 -1
t-71 2v97zM197 4q30 0 65 20q-7 33 -12 66.5t-10 67.5q-33 -23 -53.5 -51.5t-20.5 -61.5q0 -26 10 -33.5t21 -7.5zM352 100q26 29 49 60t40 62q-46 0 -103 -17q3 -26 6.5 -52.5t7.5 -52.5z" />
    <glyph glyph-name="uni3042" unicode="&#x3042;" 
d="M110 588q84 -3 168 -3q2 35 4.5 70t6.5 71h121q-5 -35 -8.5 -69.5t-5.5 -69.5q73 2 146.5 7.5t151.5 15.5v-104q-78 -10 -152 -15.5t-150 -7.5v-81q35 7 68 10.5t65 3.5q60 0 121 -13t110 -43q48 -30 79 -79.5t31 -121.5q0 -59 -22 -105.5t-61 -80.5q-40 -34 -94.5 -56.5
t-118.5 -33.5l-29 104q45 8 83 20.5t66 32.5q27 20 42.5 49t15.5 70q0 44 -26 82.5t-88 57.5q-35 -82 -86 -157t-112 -130q5 -25 10.5 -50t12.5 -51l-114 -30q-4 15 -7.5 30t-6.5 29q-27 -12 -54 -19t-53 -7q-75 0 -120.5 47t-45.5 132q0 49 17 90.5t46 75.5t69 61t86 47
q-2 28 -2 56.5t1 57.5q-42 0 -82.5 0.5t-82.5 1.5v105zM231 27q40 0 78 21q-9 51 -15.5 101.5t-10.5 102.5q-48 -27 -77 -66t-29 -90q0 -30 13 -49.5t41 -19.5zM413 144q53 67 105 169q-29 -1 -60 -4.5t-61 -11.5q3 -38 7 -76.5t9 -76.5z" />
    <glyph glyph-name="uni3043" unicode="&#x3043;" horiz-adv-x="720" 
d="M407 104q-25 -56 -48 -92t-44 -57q-22 -21 -43 -29.5t-42 -8.5q-48 0 -79.5 26t-49.5 69q-19 43 -26.5 97.5t-7.5 111.5q0 69 7 128t13 95l123 -11q-3 -21 -6.5 -47.5t-6.5 -56.5t-4.5 -61.5t-1.5 -62.5q0 -34 2 -63.5t8 -50.5q5 -22 13.5 -34.5t20.5 -12.5q10 0 20 9
t20 25q9 15 18 34.5t17 40.5zM553 -12q-5 43 -12.5 88.5t-19.5 92.5q-13 47 -31.5 94.5t-45.5 93.5l112 54q57 -94 82 -191.5t33 -188.5z" />
    <glyph glyph-name="uni3044" unicode="&#x3044;" horiz-adv-x="800" 
d="M447 175q-80 -254 -196 -254q-60 0 -96.5 37t-55.5 97q-19 59 -25 134t-6 152q0 72 4.5 141.5t12.5 147.5l133 -10q-2 -14 -5 -43.5t-5 -69.5q-3 -40 -5 -86.5t-2 -94.5q0 -51 1 -100.5t6 -88.5t15 -63t27 -24q16 0 35 42t43 123zM621 35q-8 128 -36 251t-92 249l120 46
q75 -129 105 -256t35 -256z" />
    <glyph glyph-name="uni3045" unicode="&#x3045;" horiz-adv-x="600" 
d="M177 -19q47 13 90 27t76 34q32 20 51.5 49t19.5 71q0 51 -24 72t-69 21q-29 0 -60.5 -6.5t-62.5 -15.5q-32 -10 -61.5 -22t-54.5 -23l-32 114q60 29 129 48.5t141 19.5q48 0 89 -10.5t71 -34.5q29 -24 45.5 -64t16.5 -99q0 -66 -27.5 -113.5t-72.5 -81.5
q-46 -33 -106 -55.5t-124 -37.5zM440 412q-75 8 -159 21t-162 36l31 111q35 -12 74 -21.5t79 -16.5t78.5 -12t73.5 -8z" />
    <glyph glyph-name="uni3046" unicode="&#x3046;" horiz-adv-x="700" 
d="M204 -23q54 9 108.5 23.5t99.5 41.5q44 27 72 70t28 109q0 67 -37 95.5t-100 28.5q-35 0 -72.5 -6.5t-74.5 -16.5t-72.5 -22.5t-65.5 -24.5l-36 123q72 29 151 48t163 19q61 0 112 -12.5t88 -40.5q36 -29 56 -75.5t20 -115.5q0 -86 -31.5 -148t-86.5 -105t-130 -69
t-162 -39zM522 524q-88 10 -185 25.5t-185 42.5l36 117q40 -14 85 -24.5t91 -17.5q46 -8 91 -13.5t86 -9.5z" />
    <glyph glyph-name="uni3047" unicode="&#x3047;" horiz-adv-x="670" 
d="M38 -14q45 36 83.5 68t74.5 64q35 32 67.5 65t64.5 69q-50 -5 -101.5 -7t-120.5 -3l-4 113q83 1 165 5t184 15l66 -78q-34 -42 -67 -80t-68 -74h4q36 0 61.5 -21t30.5 -73q3 -30 10.5 -35.5t28.5 -5.5q32 0 62 2t72 7v-113q-42 -5 -73 -6t-63 -1q-46 0 -74 9t-44 25
q-17 17 -24.5 40.5t-11.5 52.5q-2 8 -4.5 15t-12.5 7q-11 0 -30 -4t-52 -19q-63 -58 -139 -127zM467 412q-75 9 -159.5 21.5t-162.5 35.5l32 111q35 -12 74 -21t79 -16t78.5 -12t73.5 -9z" />
    <glyph glyph-name="uni3048" unicode="&#x3048;" horiz-adv-x="820" 
d="M625 405q-79 -106 -167 -203q45 0 78 -27.5t40 -93.5q2 -20 4.5 -34.5t8.5 -23.5t17 -13t29 -4q43 0 82.5 3.5t90.5 10.5v-119q-45 -5 -88 -7.5t-91 -2.5q-60 0 -95.5 11.5t-54.5 33.5q-20 22 -28 52.5t-14 69.5q-2 14 -7 28.5t-23 14.5q-21 0 -56 -13q-51 -54 -105 -105
t-112 -106l-87 89q220 190 381 393q-78 -10 -150.5 -12.5t-156.5 -2.5v120q54 0 105 1.5t104 5.5q52 4 108 9.5t119 13.5zM549 528q-88 10 -185 25.5t-185 42.5l36 117q40 -14 85 -24.5t91 -17.5q46 -8 91 -13.5t86 -9.5z" />
    <glyph glyph-name="uni3049" unicode="&#x3049;" horiz-adv-x="760" 
d="M58 30q0 38 14 70.5t39 59.5q24 26 57 47t71 36v83q-38 0 -75.5 1t-76.5 3v105q76 -3 152 -3v130h116v-126q60 3 128 9v-107q-69 -6 -128 -9v-55q23 4 45.5 6t44.5 2q48 0 92.5 -12.5t78.5 -37.5t54 -63t20 -90q0 -40 -10 -73t-30 -57q-21 -24 -53 -37.5t-76 -13.5
q-33 0 -64 7.5t-66 29.5l39 91q33 -13 51 -17.5t28 -4.5q38 0 52 19.5t14 56.5q0 26 -10.5 45t-28.5 32q-18 12 -41.5 18t-49.5 6q-17 0 -40.5 -3t-49.5 -9v-156q0 -66 -44 -99t-111 -33t-104.5 41.5t-37.5 107.5zM633 247q-11 25 -24 51.5t-27 52.5q-15 25 -29.5 48.5
t-29.5 42.5l89 55q34 -41 65.5 -92.5t51.5 -96.5zM204 -12q35 0 35 43v92q-27 -17 -44 -39.5t-17 -51.5q0 -26 7 -35t19 -9z" />
    </font>
</defs>
</svg>
